<?xml version="1.0" standalone="no"?>
<!DOCTYPE svg PUBLIC "-//W3C//DTD SVG 1.1//EN" "http://www.w3.org/Graphics/SVG/1.1/DTD/svg11.dtd" >
<svg>
<metadata>
Created by FontForge 20090914 at Sat Sep 21 20:11:41 2013
 By www-data
Copyright (c) Myanmar NLP, 2005.
</metadata>
<defs>
<font id="Myanmar3" horiz-adv-x="549" >
  <font-face 
    font-family="Myanmar3"
    font-weight="400"
    font-stretch="normal"
    units-per-em="900"
    panose-1="2 2 6 3 5 4 5 2 3 4"
    ascent="720"
    descent="-180"
    x-height="449.999"
    cap-height="662.001"
    bbox="-856 -373 1896.01 870.054"
    underline-thickness="50"
    underline-position="-100"
    unicode-range="U+0020-U+25CC"
  />
<missing-glyph horiz-adv-x="364" 
d="M33 0v666h265v-666h-265zM66 33h199v600h-199v-600z" />
    <glyph glyph-name="wa.ha.med" unicode="&#x103d;&#x103e;" horiz-adv-x="1" 
d="M-132 -195c0 -48 -16.999 -89 -50.999 -123c-34 -34.667 -75.667 -52.667 -125 -54c-44.667 0 -83.334 15.333 -116.001 46c-32.667 29.333 -52 66 -58 110c-15.333 -7.33301 -29 -10.333 -41 -9c-30.667 2 -58.334 16.333 -83.001 43
c-7.33301 7.33301 -11 15.333 -11 24c0 22.667 11.667 34 35 34c8.66699 0 16.334 -3.33301 23.001 -10c9.33301 -9.33301 15.666 -14.333 18.999 -15c6.66699 -6 13.667 -9 21 -9c12 -1.33301 21.667 3.66699 29 15l32 41c32.667 56.667 82.667 85 150 85
c48.667 0 90.334 -17.333 125.001 -52c34 -35.333 51 -77.333 51 -126zM-199.999 -195c0 29.333 -10.333 55.332 -31 77.999c-21.333 22 -47 33 -77 33c-15.333 0 -29.5 -2.83301 -42.5 -8.5s-24.167 -13.5 -33.5 -23.5s-16.833 -21.667 -22.5 -35s-8.5 -28 -8.5 -44
c0 -29.333 10.667 -54.666 32 -75.999c20.667 -22 45.667 -33 75 -33c30 0 55.667 11 77 33c20.667 20.667 31 46 31 76z" />
    <glyph glyph-name="dda.ddha.lig" unicode="&#x100d;&#x1039;&#x100e;" 
d="M450 226c0 -51.333 -16 -98.333 -48 -141c-31.333 -42 -71.666 -70.667 -120.999 -86v-271h8c24 0 36 -12.333 36 -37c0 -22.667 -12 -34 -36 -34h-44c-23.333 0 -35 12 -35 36v296c-48 1.33301 -92.333 18.333 -133 51c-42 34 -68.333 72 -79 114
c-3.33301 4.66699 -5.66602 10.667 -6.99902 18c-4 26 1.33301 50.667 16 74l3 4c8 12 19 23 33 33c56 18 84 38.333 84 61c0 10.667 -7.66699 19.667 -23 27c-8.66699 2.66699 -17.334 3.66699 -26.001 3c-11.333 -2 -17 -6.66699 -17 -14c0 -24 -11.333 -36 -34 -36
c-24 0 -36 12 -36 36s11.333 44.333 34 61c21.333 15.333 45 23 71 23c26.667 0 50 -10.333 70 -31c20.667 -20.667 30.667 -44.334 30 -71.001c-1.33301 -36.667 -20 -67.334 -56 -92.001c-5.33301 -3.33301 -12.333 -7.16602 -21 -11.499
s-19.334 -9.16602 -32.001 -14.499l-11.5 -9c-5 -4 -10.167 -14.667 -15.5 -32v-3v-9c2.66699 -27.333 19.667 -52.333 51 -75c30.667 -23.333 63.667 -35.333 99 -36v25h-24c-22.667 0 -34 12 -34 36v22c0 24.667 9.33301 37 28 37c5.33301 0 12 -1.66699 20 -5
c12 -5.33301 25.333 -5.66602 40 -0.999023c16 4 24 9.33301 24 16c0 3.33301 -8.33301 6.33301 -25 9c-16 2.66699 -31 1.66699 -45 -3c-5.33301 -1.33301 -10 -2 -14 -2c-21.333 0 -32 12.333 -32 37c0 19.333 9.33301 31 28 35c32 6.66699 58.333 7.66699 79 3
c50.667 -12.667 77 -38.334 79 -77.001c2 -37.333 -15.667 -64 -53 -80v-37c30 13.333 53.833 33.833 71.5 61.5s26.5 57.5 26.5 89.5c0 71.333 -27.333 123 -82 155c-12 8 -18 18 -18 30c0 10 3.33301 18.833 10 26.5s15 11.5 25 11.5c5.33301 0 12 -1.66699 20 -5
c36 -22 64.667 -53.667 86 -95c20 -39.333 30 -80.333 30 -123z" />
    <glyph glyph-name="tta.ttha.lig" unicode="&#x100b;&#x1039;&#x100c;" 
d="M421 339c0 -1.33301 -0.999023 -1.99902 -2.99902 -1.99902h-1v2v1c4 -7.33301 6 -13.666 6 -18.999c0 -10 -3.83301 -18.667 -11.5 -26s-16.5 -11 -26.5 -11c-14 0 -24.333 7 -31 21c-1.33301 0.666992 -1.33301 1.66699 0 3l-9 11c-32 38 -73.333 57 -124 57
c-45.333 0 -83.333 -15.333 -114 -46c-30 -30 -45 -66.667 -45 -110c0 -42.667 15.667 -80.334 47 -113.001c32.667 -31.333 70 -47 112 -47c56 0 96.333 17.333 121 52c3.33301 3.33301 6.66602 8 9.99902 14c6 17.333 17.333 26 34 26c24 0 36 -11.333 36 -34
c0 -10.667 -7 -26.334 -21 -47.001c-38.667 -54.667 -98.667 -82 -180 -82c-62.667 0 -116.667 22.667 -162 68c-45.333 46.667 -68 101 -68 163c0 63.333 22 117 66 161s98.667 66 164 66c34.667 0 70 -8.66699 106 -26c30 -16 54.333 -34.333 73 -55l11 -13l6 -9l1 -2z
M406.001 -207.999c0 -50.667 -12.335 -89.166 -37.002 -115.499s-64 -39.5 -118 -39.5h-165c-30 0 -52.667 8.33301 -68 25s-23 37.667 -23 63c0 18.667 5 38.667 15 60c15.333 31.333 43.666 47 84.999 47c28.667 0 59.667 -8.66699 93 -26
c13.333 -7.33301 20 -17.333 20 -30c0 -25.333 -11.667 -38 -35 -38c-6 0 -11.667 1.66699 -17 5c-27.333 15.333 -47.333 23 -60 23c-11.333 0 -19.166 -4.33301 -23.499 -13s-6.5 -16.667 -6.5 -24c0 -13.333 6.66699 -20 20 -20h165c32.667 0 54.834 6 66.501 18
s17.5 33.667 17.5 65v110c-39.333 -19.333 -81 -29.333 -125 -30c-38.667 -2 -72 3 -100 15c-22 9.33301 -50 28 -84 56c-9.33301 7.33301 -14 16.666 -14 27.999c0 8.66699 3.5 16.667 10.5 24s15.5 11 25.5 11c6.66699 0 24.667 -11 54 -33
c24.667 -21.333 57.667 -32.333 99 -33c30.667 -1.33301 52.334 1 65.001 7l56 26l31 15c9.33301 5.33301 17.333 8 24 8c19.333 0 29 -13 29 -39v-165z" />
    <glyph glyph-name="nna.dda.lig" unicode="&#x100f;&#x1039;&#x100d;" horiz-adv-x="1042" 
d="M901 349c26 -39.333 39 -82.335 39 -129.002c0 -83.333 -32.667 -147.666 -98 -192.999c-39.333 -25.333 -81.666 -38 -126.999 -38c-24.667 0 -47 3.33301 -67 10c-16.667 4.66699 -25 16 -25 34c0 24 11.333 36 34 36c6 0 15.167 -1.66699 27.5 -5s21.833 -5 28.5 -5
c32 0 61.333 9.33301 88 28c44.667 30 67 74 67 132c0 33.333 -9 63 -27 89c-31.333 45.333 -73.333 68 -126 68c-35.333 0 -66.333 -10.333 -93 -31l-24 -16c-6 -6 -14.333 -17.333 -25 -34c0 -4 -1.66699 -9.33301 -5 -16c-11.333 -21.333 -17 -41.333 -17 -60
c0 -24.667 5.66699 -49 17 -73c3.33301 -5.33301 5 -10.666 5 -15.999v-29c0 -29.333 -10.667 -55.666 -32 -78.999c-21.333 -22 -46.333 -33 -75 -33c-29.333 0 -54.333 11 -75 33c-20.667 22.667 -31 49 -31 79v30c0 6 0.666992 11 2 15c12 22.667 18 47 18 73
c0 6 -1 12.333 -3 19s-4.16699 13.334 -6.5 20.001l-6.5 18c-2 5.33301 -3 9.66602 -3 12.999c-2.66699 3.33301 -5.5 7.5 -8.5 12.5l-10.5 17.5c-2.66699 3.33301 -13.667 11.666 -33 24.999c-28 20 -59 30 -93 30c-53.333 0 -95 -22 -125 -66
c-18.667 -25.333 -28 -54.666 -28 -87.999c0 -54 22.333 -96 67 -126c30.667 -22.667 62.667 -34 96 -34c6 0 14.333 1.5 25 4.5s18.667 4.5 24 4.5c22 0 33 -12 33 -36c0 -8.66699 -2.33301 -15.834 -7 -21.501s-10.834 -10 -18.501 -13s-16.5 -5 -26.5 -6
s-20 -1.5 -30 -1.5c-49.333 0 -95.333 14.333 -138 43c-64 44 -96 106.333 -96 187c0 46 13 88.667 39 128c44.667 64 106.667 96 186 96c48.667 0 93.667 -13.667 135 -41c4.66699 -3.33301 8.66699 -6.33301 12 -9s6 -4.66699 8 -6c20.667 38.667 52 58 94 58
c42.667 0 74.334 -19.333 95.001 -58l18 13c41.333 29.333 86.666 44 135.999 44c79.333 0 141.333 -32.333 186 -97zM795 -127.002c0 -25.333 -12.666 -37.998 -37.999 -37.998h-155c1.33301 -4 2.66602 -17 3.99902 -39c3.33301 -51.333 -7 -91.333 -31 -120l-18 -20
c-7.33301 -8 -16.666 -12 -27.999 -12h-107c-24.667 0 -37 12.333 -37 37v10c0 10 8.66699 23.667 26 41c18 16.667 27 37 27 61c0 24.667 -12 46.667 -36 66c-24 18 -51 27 -81 27c-32 0 -59 -8.5 -81 -25.5s-33 -39.5 -33 -67.5c0 -29.333 13.333 -53 40 -71l11 -8
c0 -3.33301 -1 -4 -3 -2c0 1.33301 0.333008 2.33301 1 3c16.667 -4.66699 25 -16 25 -34c0 -26.667 -11.667 -40 -35 -40c-7.33301 0 -13.833 1.66699 -19.5 5s-13.834 8.66602 -24.501 15.999c-17.333 12 -32.333 29.333 -45 52c-16 26 -24 52.333 -24 79
c0 47.333 18.333 87 55 119s81 48 133 48c48.667 0 92.667 -16.667 132 -50s59 -72.333 59 -117c0 -28.667 -6.33301 -53.667 -19 -75h19l5 8c12 13.333 17.333 35.333 16 66c-0.666992 23.333 -6.66699 44.666 -18 63.999c-3.33301 10 -5 17.667 -5 23
c0 20.667 12.667 31 38 31h173v14c0 24.667 12.667 37 38 37c24 0 36 -12.333 36 -37v-51zM503.001 121c-16 28.667 -23 61.667 -21 99c0.666992 30.667 7.66699 58.667 21 84v35c0 10 -3.66699 18.833 -11 26.5s-16 11.5 -26 11.5s-18.5 -3.83301 -25.5 -11.5
s-10.5 -16.5 -10.5 -26.5v-36c13.333 -30 20 -58 20 -84c0 -35.333 -6.66699 -67 -20 -95v-23c0 -10.667 3.5 -20.334 10.5 -29.001s15.5 -13 25.5 -13s18.667 4.33301 26 13s11 18.334 11 29.001v20z" />
    <glyph glyph-name="nna.nna.lig" unicode="&#x100f;&#x1039;&#x100f;" horiz-adv-x="1042" 
d="M901 349c26 -39.333 39 -82.335 39 -129.002c0 -83.333 -32.667 -147.666 -98 -192.999c-39.333 -25.333 -81.666 -38 -126.999 -38c-24.667 0 -47 3.33301 -67 10c-16.667 4.66699 -25 16 -25 34c0 24 11.333 36 34 36c6 0 15.167 -1.66699 27.5 -5s21.833 -5 28.5 -5
c32 0 61.333 9.33301 88 28c44.667 30 67 74 67 132c0 33.333 -9 63 -27 89c-31.333 45.333 -73.333 68 -126 68c-35.333 0 -66.333 -10.333 -93 -31l-24 -16c-6 -6 -14.333 -17.333 -25 -34c0 -4 -1.66699 -9.33301 -5 -16c-11.333 -21.333 -17 -41.333 -17 -60
c0 -24.667 5.66699 -49 17 -73c3.33301 -5.33301 5 -10.666 5 -15.999v-29c0 -29.333 -10.667 -55.666 -32 -78.999c-21.333 -22 -46.333 -33 -75 -33c-29.333 0 -54.333 11 -75 33c-20.667 22.667 -31 49 -31 79v30c0 6 0.666992 11 2 15c12 22.667 18 47 18 73
c0 6 -1 12.333 -3 19s-4.16699 13.334 -6.5 20.001l-6.5 18c-2 5.33301 -3 9.66602 -3 12.999c-2.66699 3.33301 -5.5 7.5 -8.5 12.5l-10.5 17.5c-2.66699 3.33301 -13.667 11.666 -33 24.999c-28 20 -59 30 -93 30c-53.333 0 -95 -22 -125 -66
c-18.667 -25.333 -28 -54.666 -28 -87.999c0 -54 22.333 -96 67 -126c30.667 -22.667 62.667 -34 96 -34c6 0 14.333 1.5 25 4.5s18.667 4.5 24 4.5c22 0 33 -12 33 -36c0 -8.66699 -2.33301 -15.834 -7 -21.501s-10.834 -10 -18.501 -13s-16.5 -5 -26.5 -6
s-20 -1.5 -30 -1.5c-49.333 0 -95.333 14.333 -138 43c-64 44 -96 106.333 -96 187c0 46 13 88.667 39 128c44.667 64 106.667 96 186 96c48.667 0 93.667 -13.667 135 -41c4.66699 -3.33301 8.66699 -6.33301 12 -9s6 -4.66699 8 -6c20.667 38.667 52 58 94 58
c42.667 0 74.334 -19.333 95.001 -58l18 13c41.333 29.333 86.666 44 135.999 44c79.333 0 141.333 -32.333 186 -97zM503 120.998c-16 28.667 -23 61.667 -21 99c0.666992 30.667 7.66699 58.667 21 84v35c0 10 -3.66699 18.833 -11 26.5s-16 11.5 -26 11.5
s-18.5 -3.83301 -25.5 -11.5s-10.5 -16.5 -10.5 -26.5v-36c13.333 -30 20 -58 20 -84c0 -35.333 -6.66699 -67 -20 -95v-23c0 -10.667 3.5 -20.334 10.5 -29.001s15.5 -13 25.5 -13s18.667 4.33301 26 13s11 18.334 11 29.001v20zM821 -102.002
c20.667 -25.333 30.9961 -56.3311 30.9961 -92.998c1.33301 -61.333 -24 -107.333 -76 -138c-31.333 -17.333 -64.666 -26 -99.999 -26c-53.333 0 -80 13.333 -80 40c-0.666992 24 11 36.333 35 37c5.33301 0 9 -0.333008 11 -1c34 -9.33301 65.333 -5.66602 94 11.001
c29.333 17.333 44.333 43 45 77c0.666992 30.667 -14.666 55.334 -45.999 74.001c-16.667 10.667 -37 16 -61 16c-25.333 0 -47.666 -6.66699 -66.999 -20c-7.33301 -1.33301 -16 -7.33301 -26 -18c-0.666992 -0.666992 -2.66699 -4.33398 -6 -11.001l-5 -10
c-6 -9.33301 -9.33301 -19.666 -10 -30.999c0 -16.667 3.33301 -30.334 10 -41.001c2 -4 3.66699 -9.66699 5 -17v-20c0 -12 -2.5 -23.167 -7.5 -33.5s-11.5 -19.333 -19.5 -27s-17.5 -13.834 -28.5 -18.501s-22.5 -7 -34.5 -7c-24 -1.33301 -45 7 -63 25
c-18 16.667 -27 37 -27 61v21c0 9.33301 1.33301 15.666 4 18.999c7.33301 10.667 11 23.334 11 38.001c0 4.66699 -3.66699 15 -11 31l-2 7c-4 4 -7 8 -9 12v2c-7.33301 10.667 -21.333 19.334 -42 26.001c-19.333 6.66699 -36.666 10 -51.999 10
c-38 0 -68 -13.333 -90 -40c-9.33301 -12.667 -14.666 -28 -15.999 -46c-1.33301 -31.333 14.667 -56.333 48 -75c30.667 -16.667 61 -21.667 91 -15c6 0 10 0.333008 12 1c22.667 0 34.334 -12.333 35.001 -37c1.33301 -25.333 -23 -38.333 -73 -39
c-36.667 -0.666992 -72.334 9 -107.001 29c-51.333 31.333 -77.333 76.666 -78 135.999c0 35.333 10.333 65.666 31 90.999c34.667 42.667 84.667 64.667 150 66c41.333 1.33301 76 -7.33398 104 -26.001l10 -6c17.333 22 42 33.667 74 35
c28.667 0.666992 52.667 -11.666 72 -36.999l12 8c28 18 62.667 27.333 104 28c63.333 1.33301 112.666 -21.334 147.999 -68.001zM503.996 -265c-10 18 -15 41.333 -15 70c0 18 5 37.667 15 59v19c0 6.66699 -6.33301 11 -19 13c-12.667 0 -19 -4.33301 -19 -13v-20
c10 -20 15 -39.333 15 -58c0 -23.333 -5 -45 -15 -65v-13c0 -10 6.33301 -15 19 -15s19 5 19 15v8z" />
    <glyph glyph-name="tta.tta.lig" unicode="&#x100b;&#x1039;&#x100b;" horiz-adv-x="519" 
d="M414 346c0 -0.666992 -0.999023 -1.00098 -2.99902 -1.00098h-1v1v1c3.33301 -8 5 -14 5 -18c0 -10 -3.66699 -18.667 -11 -26s-16 -11 -26 -11c-12.667 0 -22.334 7 -29.001 21c-1.33301 0.666992 -1.33301 1.66699 0 3l-10 11c-30.667 36.667 -70.334 55 -119.001 55
c-44 0 -80.667 -14.667 -110 -44s-44 -65 -44 -107s15.333 -78.333 46 -109s66.667 -46 108 -46c50.667 0 90.334 17.333 119.001 52c8 8 17 12 27 12h13c23.333 0 35 -11.333 35 -34s-11.333 -34.334 -34 -35.001c-40.667 -42.667 -94 -64 -160 -64
c-60.667 0 -113 22 -157 66c-44 44.667 -66 97.334 -66 158.001c0 61.333 21.333 113.333 64 156s95.667 64 159 64c34.667 0 68.667 -8.33301 102 -25c29.333 -15.333 53 -33 71 -53l11 -14c1.33301 -2 3.33301 -4.33301 6 -7l1 -2
c0.666992 -1.33301 1.66699 -2.66602 3 -3.99902zM379.001 -319.001c-9.33301 0 -17.665 2.66504 -24.998 7.99805c-4.66699 -14.667 -15.334 -22 -32.001 -22h-49c-22.667 0 -34 11.667 -34 35v28c-10 -2 -22 -3 -36 -3c-38 0 -69.333 8 -94 24s-37 39 -37 69
c0 26.667 11.333 48.667 34 66s52.334 26 89.001 26c47.333 0 78.666 -7 93.999 -21c6.66699 -8.66699 10 -17.334 10 -26.001c0 -22 -11 -33 -33 -33c-6 0.666992 -10.667 1.83398 -14 3.50098s-6.5 3.33398 -9.5 5.00098s-6 3 -9 4s-6.5 1.16699 -10.5 0.5
c-54.667 0 -82 -8.33301 -82 -25c0 -15.333 13 -23.333 39 -24h23c20 0 38 3.66699 54 11c4.66699 2.66699 10 4 16 4c22.667 0 34 -13.667 34 -41c0.666992 -2.66699 1 -6 1 -10v-25h14c8.66699 0 16.334 -2.66699 23.001 -8v212c-34.667 -13.333 -75.334 -20 -122.001 -20
c-64 0 -126.333 19 -187 57c-10.667 6.66699 -16 15.334 -16 26.001c0 8.66699 3.33301 17 10 25s15 12 25 12c5.33301 0 11.666 -2 18.999 -6c47.333 -29.333 97 -44 149 -44c52.667 0 88.334 6.66699 107.001 20l28 22c9.33301 7.33301 18.666 11 27.999 11
c18.667 0 28 -12.667 28 -38v-254h62c23.333 0 35 -11.667 35 -35c0 -22.667 -11.667 -34 -35 -34h-97z" />
    <glyph glyph-name="dda.dda.sub" unicode="&#x100d;&#x1039;&#x100d;" horiz-adv-x="498" 
d="M463 -245c0.666992 -24.667 -12.333 -37.001 -39 -37.001h-93c-26 0 -39 12.333 -39 37v234c-10.667 -3.33301 -24.5 -6.66602 -41.5 -9.99902s-36.833 -7 -59.5 -11c-64 -2 -109.333 6 -136 24l-28 18c-16 10.667 -24 22 -24 34v97c0 24.667 12.667 37 38 37h14
c11.333 0 21 -4.33301 29 -13c26.667 -28.667 63.334 -43.667 110.001 -45c38.667 -0.666992 72 12.333 100 39h-1c28 27.333 42.667 59 44 95c0.666992 35.333 -13 65.666 -41 90.999c-14.667 13.333 -30.167 22.833 -46.5 28.5s-34.833 9.16699 -55.5 10.5
c-20.667 0.666992 -40.334 -3.33301 -59.001 -12s-35.667 -20.667 -51 -36c-1.33301 -1.33301 -2.66602 -3.33301 -3.99902 -6s-2.66602 -4.66699 -3.99902 -6v1c-8 -13.333 -19.333 -20.333 -34 -21c-24.667 0 -38.334 12.333 -41.001 37c0 4.66699 0.166992 8 0.5 10
s0.833008 4.66699 1.5 8v-2c0 4.66699 1.33301 7.33398 4 8.00098c0.666992 3.33301 6.33398 10.333 17.001 21v-1c45.333 49.333 102 74 170 74c60.667 0 112.667 -19.667 156 -59c20.667 -19.333 36.667 -41.5 48 -66.5s17 -51.5 17 -79.5
c1.33301 -56.667 -20.334 -105.667 -65.001 -147c-22 -18.667 -46 -33.5 -72 -44.5s-54 -16.833 -84 -17.5c-45.333 -2 -83 8 -113 30v-11c27.333 -16.667 62.666 -25 105.999 -25c28.667 0 73.334 11.667 134.001 35h6.5c3 0 6.5 0.333008 10.5 1
c22.667 0 34 -12.333 34 -37v-246c9.33301 0 18.166 0.166992 26.499 0.5s16.833 0.5 25.5 0.5c24.667 0.666992 37.667 -12 39 -38zM48 -100.001c0 1.33301 0.166016 2.99805 0.499023 4.99805s1.5 5.33301 3.5 10c4 6 10.833 12.333 20.5 19s19.834 13 30.501 19
c6.66699 2 15 4.16699 25 6.5s19.667 3.5 29 3.5c35.333 0 64.666 -10.333 87.999 -31c24 -21.333 36 -47.333 36 -78c0 -15.333 -3.16699 -29.666 -9.5 -42.999s-15.166 -25 -26.499 -35s-24.5 -18 -39.5 -24s-31.167 -9 -48.5 -9
c-10.667 -0.666992 -20.334 -0.333984 -29.001 0.999023s-18.667 5 -30 11v-11c18 -8 36.333 -12 55 -12c6.66699 0 16.5 1.66699 29.5 5s27.167 7.66602 42.5 12.999c4.66699 0 7.66699 0.333008 9 1c6 -1.33301 11.333 -3.66602 16 -6.99902s7 -8.33301 7 -15v-54
c6.66699 0 11 0.333008 13 1c0.666992 0 1.33398 0.333008 2.00098 1s2 1 4 1h-2c8.66699 0.666992 14.834 -1 18.501 -5s6.5 -8 8.5 -12c0 -19.333 -6 -29 -18 -29h-51c-15.333 0 -23 7.33301 -23 22v54l5 -6c-0.666992 0 -1.16699 -0.333008 -1.5 -1s-0.833008 -1 -1.5 -1
c-4 -0.666992 -8.66699 -1.5 -14 -2.5s-10.333 -1.83301 -15 -2.5l1 1c-3.33301 -2 -7 -3 -11 -3c-2 0 -3.33301 -0.166992 -4 -0.5s-1.66699 -0.5 -3 -0.5l-4 -2h-7c-17.333 -0.666992 -31 0 -41 2s-18 3.66699 -24 5l-18 10c-4.66699 0.666992 -7 1.66699 -7 3l-2 2h2
c-10 8 -15 18.333 -15 31v51c0 16 8 24 24 24h7c0.666992 0 3.33398 -1.16699 8.00098 -3.5s8 -4.5 10 -6.5c7.33301 -5.33301 16.166 -10 26.499 -14s21.166 -6.33301 32.499 -7c21.333 0 39 6.66699 53 20s21.333 29 22 47c0 18 -7.16699 33.333 -21.5 46
s-32.166 19.334 -53.499 20.001c-9.33301 0 -17.833 -1.83301 -25.5 -5.5s-16.167 -8.5 -25.5 -14.5c-5.33301 -2.66699 -9 -5.16699 -11 -7.5s-4.66699 -5.83301 -8 -10.5c2.66699 2.66699 3.16699 3.83398 1.5 3.50098s-3.83398 -1.5 -6.50098 -3.5c1.33301 0 1 -1 -1 -3
l-4 -4c-6.66699 2 -12.667 4.66699 -18 8s-9 8.33301 -11 15v2z" />
    <glyph glyph-name="ka.sub.dot" unicode="&#x1039;&#x1000;" horiz-adv-x="589" 
d="M537 -314c-39.333 -32.667 -81.3301 -48.999 -125.997 -48.999c-7.33301 0 -14.5 0.333008 -21.5 1s-15.833 2.66699 -26.5 6c-15.333 5.33301 -23 15 -23 29c0 21.333 10 32 30 32c3.33301 0 7.66602 -0.833008 12.999 -2.5s9 -2.5 11 -2.5
c35.333 -4.66699 69.333 6.66602 102 33.999c20.667 18 31 41.333 31 70c0 29.333 -10.333 53 -31 71c-24.667 20.667 -54.334 31 -89.001 31s-64.334 -10.333 -89.001 -31c-18.667 -14.667 -29.667 -37 -33 -67v-9c0 -70.667 -30 -122.334 -90 -155.001
c-5.33301 -2.66699 -10.666 -4 -15.999 -4c-20.667 0 -31 11 -31 33c0 10.667 5.66699 19.667 17 27c36 18.667 55.333 49.334 58 92.001v14c-2 28.667 -14.5 52.5 -37.5 71.5s-51.833 28.5 -86.5 28.5c-17.333 0 -33.333 -2.66699 -48 -8s-27.5 -12.833 -38.5 -22.5
s-19.667 -21 -26 -34s-9.5 -27.167 -9.5 -42.5c0 -42.667 21.333 -76.334 64 -101.001c10 -7.33301 15 -15.666 15 -24.999c0 -21.333 -10.333 -32 -31 -32c-4.66699 0 -9.33398 1.33301 -14.001 4c-30 16.667 -53.667 39.5 -71 68.5s-26 57.5 -26 85.5
c0 47.333 18.333 87.333 55 120c36 32 79.333 48 130 48c68.667 0 120 -23.667 154 -71c35.333 47.333 86.333 71 153 71c50 0 93 -15 129 -45c36.667 -30 55 -69.333 55 -118s-17.667 -88 -53 -118zM12.0029 178.001c-3.33301 15.333 -5 31.999 -5 49.999
c0 8.66699 0.333008 17.334 1 26.001s2 16.667 4 24l53 -9c-2.66699 -11.333 -4 -25 -4 -41s1.33301 -29.333 4 -40zM107.003 38c-29.333 19.333 -52.333 42.999 -69 70.999l43 32c14 -23.333 33 -42.666 57 -57.999zM424.003 108.999
c-17.333 -28 -40.667 -51.666 -70 -70.999l-30 45c24 15.333 42.667 34.666 56 57.999zM138.002 373c-24 -15.333 -43 -34.667 -57 -58l-43 32c16.667 28 39.667 51.667 69 71zM380.002 314.999c-13.333 23.333 -32.002 42.668 -56.002 58.001l30 45
c14.667 -9.33301 27.834 -19.833 39.501 -31.5s21.834 -24.834 30.501 -39.501zM455 228.001c0 -8.66699 -0.5 -17.166 -1.5 -25.499s-2.16699 -16.5 -3.5 -24.5l-54 10c1.33301 6.66699 2.5 13.167 3.5 19.5s1.5 13.166 1.5 20.499c0 12.667 -1.66699 26.334 -5 41.001
l54 9c3.33301 -16.667 5 -33.334 5 -50.001zM280 5.00195c-9.33301 -1.33301 -18.0029 -2.5 -26.0029 -3.5s-15.667 -1.5 -23 -1.5s-15 0.5 -23 1.5s-16.667 2.16699 -26 3.5l8 54c7.33301 -2 14.333 -3.16699 21 -3.5s13.334 -0.5 20.001 -0.5s13.334 0.166992 20.001 0.5
s13.334 1.5 20.001 3.5zM270.997 397.002c-6.66699 2 -13.3301 3.33301 -19.9971 4s-13.334 1 -20.001 1s-13.334 -0.333008 -20.001 -1s-13.667 -2 -21 -4l-8 55c18 4 34.333 6 49 6c13.333 0 29.666 -2 48.999 -6z" />
    <glyph glyph-name="kha.sub.dot" unicode="&#x1039;&#x1001;" horiz-adv-x="512" 
d="M403 -197c0 -48 -18.3359 -87.333 -55.0029 -118c-36 -32 -80 -48 -132 -48c-71.333 0 -125 26.667 -161 80c-6 14 -10 28.333 -12 43c-2 17.333 -0.333008 28 5 32c38.667 28 78.334 42 119.001 42c32 0 61.833 -8 89.5 -24s48.167 -38.333 61.5 -67
c14.667 17.333 22 37.333 22 60c0 14 -3.16699 27.167 -9.5 39.5s-15 23 -26 32s-24 16.167 -39 21.5s-31.5 8 -49.5 8c-35.333 0 -70.666 -15.667 -105.999 -47c-7.33301 -11.333 -15.666 -17 -24.999 -17c-8.66699 0 -16.5 3.33301 -23.5 10s-10.5 14.667 -10.5 24
c0 4.66699 1.33301 9.33398 4 14.001v1c-1.33301 0 -1.33301 0.666992 0 2s3.5 3.66602 6.5 6.99902l10.5 12c38.667 38 86.667 57 144 57c54 0 98.667 -15.667 134 -47c35.333 -32 53 -71 53 -117zM263.997 -292c-16.667 42.667 -48.334 64.002 -95.001 64.002
c-24 0 -47.333 -7.33301 -70 -22c4.66699 0.666992 8.33398 0.666992 11.001 0c0.666992 -0.666992 1.66699 -1.83398 3 -3.50098s3.33301 -3.83398 6 -6.50098c24.667 -26.667 57 -40 97 -40c16 0 32 2.66699 48 8zM10.9971 178.002c-3.33301 15.333 -5 32 -5 50
c0 8.66699 0.333008 17.334 1 26.001s2 16.667 4 24l54 -9c-2 -6.66699 -3.16699 -13.334 -3.5 -20.001s-0.5 -13.667 -0.5 -21s0.166992 -14.333 0.5 -21s1.5 -13 3.5 -19zM106.997 38.002c-29.333 19.333 -52.667 42.999 -70 70.999l44 32
c13.333 -23.333 32 -42.666 56 -57.999zM422.996 109.001c-16.667 -28 -39.667 -51.666 -69 -70.999l-31 45c24 15.333 43 34.666 57 57.999zM136.996 373.002c-24 -15.333 -42.6689 -34.668 -56.002 -58.001l-44 32c8.66699 14.667 18.834 27.834 30.501 39.501
s24.834 22.167 39.501 31.5zM379.994 315c-14.667 23.333 -33.667 42.667 -57 58l31 45c29.333 -19.333 52.333 -43 69 -71zM453.994 228.001c0 -8.66699 -0.5 -17.166 -1.5 -25.499s-2.16699 -16.5 -3.5 -24.5l-53 10c1.33301 6.66699 2.5 13.167 3.5 19.5
s1.5 13.166 1.5 20.499c0 12.667 -1.66699 26.334 -5 41.001l53 9c3.33301 -16.667 5 -33.334 5 -50.001zM278.994 5.00195c-9.33301 -1.33301 -18.0039 -2.5 -26.0039 -3.5s-15.667 -1.5 -23 -1.5s-15 0.5 -23 1.5s-16.667 2.16699 -26 3.5l9 54
c6.66699 -2 13.334 -3.16699 20.001 -3.5s13.334 -0.5 20.001 -0.5s13.334 0.166992 20.001 0.5s13.334 1.5 20.001 3.5zM269.99 397.002c-6.66699 2 -13.3301 3.33301 -19.9971 4s-13.334 1 -20.001 1s-13.334 -0.333008 -20.001 -1s-13.334 -2 -20.001 -4l-9 55
c18 4 34.333 6 49 6s31 -2 49 -6z" />
    <glyph glyph-name="ga.sub.dot" unicode="&#x1039;&#x1002;" horiz-adv-x="510" 
d="M405 -198c0 -60.667 -22.333 -112.331 -67 -154.998c-6.66699 -5.33301 -13.667 -8 -21 -8c-21.333 0 -32 11 -32 33c0 8 3.66699 15.667 11 23c31.333 28 47 63.667 47 107c0 30 -10.667 53.667 -32 71c-23.333 20 -53.666 30 -90.999 30
c-17.333 0 -33.5 -2.5 -48.5 -7.5s-28 -11.833 -39 -20.5s-19.667 -19.334 -26 -32.001s-9.5 -26.334 -9.5 -41.001c0 -41.333 16 -77 48 -107c7.33301 -7.33301 11 -15.333 11 -24c0 -21.333 -10.667 -32 -32 -32c-6.66699 0 -13.667 2.66699 -21 8
c-45.333 41.333 -68 93 -68 155c0 50.667 19.333 92 58 124c34 26 75.333 39 124 39c53.333 0 97.666 -14.333 132.999 -43c36.667 -28.667 55 -68.667 55 -120zM11 178.003c-3.33301 15.333 -5 32 -5 50c0 8.66699 0.333008 17.334 1 26.001s2 16.667 4 24l54 -9
c-2 -6.66699 -3.16699 -13.334 -3.5 -20.001s-0.5 -13.667 -0.5 -21s0.166992 -14.333 0.5 -21s1.5 -13 3.5 -19zM107 38.0029c-29.333 19.333 -52.667 42.999 -70 70.999l44 32c13.333 -23.333 32 -42.666 56 -57.999zM422.999 109.002
c-16.667 -28 -39.667 -51.666 -69 -70.999l-31 45c24 15.333 43 34.666 57 57.999zM136.999 373.003c-24 -15.333 -42.6689 -34.668 -56.002 -58.001l-44 32c8.66699 14.667 18.834 27.834 30.501 39.501s24.834 22.167 39.501 31.5zM379.997 315.001
c-14.667 23.333 -33.667 42.667 -57 58l31 45c29.333 -19.333 52.333 -43 69 -71zM453.997 228.002c0 -8.66699 -0.5 -17.166 -1.5 -25.499s-2.16699 -16.5 -3.5 -24.5l-53 10c1.33301 6.66699 2.5 13.167 3.5 19.5s1.5 13.166 1.5 20.499
c0 12.667 -1.66699 26.334 -5 41.001l53 9c3.33301 -16.667 5 -33.334 5 -50.001zM278.997 5.00293c-9.33301 -1.33301 -18.0039 -2.5 -26.0039 -3.5s-15.667 -1.5 -23 -1.5s-15 0.5 -23 1.5s-16.667 2.16699 -26 3.5l9 54c6.66699 -2 13.334 -3.16699 20.001 -3.5
s13.334 -0.5 20.001 -0.5s13.334 0.166992 20.001 0.5s13.334 1.5 20.001 3.5zM269.993 397.003c-6.66699 2 -13.3301 3.33301 -19.9971 4s-13.334 1 -20.001 1s-13.334 -0.333008 -20.001 -1s-13.334 -2 -20.001 -4l-9 55c18 4 34.333 6 49 6s31 -2 49 -6z" />
    <glyph glyph-name="gha.sub.dot" unicode="&#x1039;&#x1003;" horiz-adv-x="588" 
d="M528 -78c36 -30 53.9941 -69.0029 53.9941 -117.003c0 -49.333 -18.333 -89 -55 -119c-37.333 -30 -80.333 -45 -129 -45c-66 0 -117 23.667 -153 71c-35.333 -48 -87.333 -72.333 -156 -73c-37.333 -1.33301 -72.666 10.334 -105.999 35.001
c-32.667 22.667 -54.667 49 -66 79c-9.33301 12 -11.333 28.667 -6 50c4.66699 16 11.667 28 21 36s15.333 13 18 15c1.33301 0.666992 3.83301 1.66699 7.5 3s8.5 3 14.5 5c12 3.33301 21.833 7 29.5 11s12.5 10.667 14.5 20c-3.33301 0.666992 -9 3.33398 -17 8.00098
c-22 10.667 -33 11.667 -33 3c0 -20 -10.667 -30.667 -32 -32c-20.667 0 -31 10.667 -31 32c0 8 2.5 15.667 7.5 23s11.833 13.833 20.5 19.5s18.334 10 29.001 13s21.667 4.5 33 4.5c20.667 0 40.334 -7.33301 59.001 -22s27 -32.667 25 -54
c-2 -30.667 -17 -54.334 -45 -71.001c-14 -3.33301 -30.667 -9.33301 -50 -18l-2 -1c-6 -6 -9 -12 -9 -18c0 -9.33301 -0.333008 -15 -1 -17c4.66699 -15.333 19.334 -29.666 44.001 -42.999c23.333 -12.667 48.333 -19 75 -19c34.667 0 63.834 9.5 87.501 28.5
s36.5 42.833 38.5 71.5v14c-2.66699 42.667 -22 73.667 -58 93c-11.333 6 -17 15 -17 27c0 22 9.66699 33 29 33c5.33301 0 10.333 -1.33301 15 -4c62 -33.333 93 -85.333 93 -156v-9c3.33301 -27.333 14 -48.666 32 -63.999c26 -22 56.667 -33 92 -33
c32.667 0 61.334 10.667 86.001 32c21.333 17.333 32 41 32 71c0 28.667 -10.667 52 -32 70c-30.667 26.667 -64.334 37.667 -101.001 33c-2.66699 0 -6.5 -0.666992 -11.5 -2s-8.5 -2 -10.5 -2c-20.667 0 -31 10.667 -31 32c0 13.333 7.33301 23 22 29
c5.33301 2.66699 14.333 4 27 4c3.33301 0.666992 6.83301 1.16699 10.5 1.5s7.16699 0.5 10.5 0.5c44.667 0 86.334 -16.333 125.001 -49zM11.9941 177.997c-3.33301 15.333 -5 31.999 -5 49.999c0 8.66699 0.333008 17.334 1 26.001s2 16.667 4 24l53 -9
c-2.66699 -11.333 -4 -25 -4 -41s1.33301 -29.333 4 -40zM106.994 37.9961c-29.333 19.333 -52.667 42.999 -70 70.999l44 32c14 -23.333 33 -42.666 57 -57.999zM423.993 108.995c-17.333 -28 -40.667 -51.666 -70 -70.999l-31 45c24 15.333 43 34.666 57 57.999z
M137.992 372.996c-24 -15.333 -43.002 -34.668 -57.002 -58.001l-44 32c8.66699 14.667 18.834 27.834 30.501 39.501s24.834 22.167 39.501 31.5zM379.99 314.994c-14 23.333 -33.002 42.668 -57.002 58.001l31 45c14.667 -9.33301 27.834 -19.833 39.501 -31.5
s21.834 -24.834 30.501 -39.501zM454.988 227.996c0 -17.333 -2 -34 -6 -50l-53 10c1.33301 6.66699 2.5 13.167 3.5 19.5s1.5 13.166 1.5 20.499c0 12.667 -1.66699 26.334 -5 41.001l53 9c4 -15.333 6 -32 6 -50zM278.988 4.99609l-25.502 -3.5
c-7.66699 -1 -15.167 -1.5 -22.5 -1.5s-15.166 0.5 -23.499 1.5s-17.166 2.16699 -26.499 3.5l9 54c6.66699 -2 13.334 -3.16699 20.001 -3.5s13.667 -0.5 21 -0.5c6.66699 0 13.167 0.166992 19.5 0.5s13.166 1.5 20.499 3.5zM270.986 396.996
c-7.33301 2 -14.167 3.33301 -20.5 4s-12.833 1 -19.5 1c-7.33301 0 -14.333 -0.333008 -21 -1s-13.334 -2 -20.001 -4l-9 55c18.667 4 35.334 6 50.001 6c14 0 30 -2 48 -6z" />
    <glyph glyph-name="nga.sub.dot" unicode="&#x1039;&#x1004;" horiz-adv-x="510" 
d="M361 -104l-1.00195 -0.00195312v1c2 -3.33301 3 -8 3 -14c0 -18.667 -8.33301 -28 -25 -28c-10.667 0 -17.334 5 -20.001 15v3l-9 9c-23.333 27.333 -51.666 41 -84.999 41c-32 0.666992 -58.333 -10.333 -79 -33c-20.667 -23.333 -31 -50.333 -31 -81
c0 -30 10.333 -56.667 31 -80c20.667 -24 47 -36 79 -36c38 -1.33301 66 11 84 37c0.666992 1.33301 1.5 2.66602 2.5 3.99902s2.16699 3.33301 3.5 6c4 12.667 12.333 19 25 19c16 0 24 -8.33301 24 -25c0 -7.33301 -4.66699 -18.666 -14 -33.999
c-27.333 -40 -69 -60 -125 -60c-44 0 -81.667 16.667 -113 50c-30.667 32.667 -46 72.334 -46 119.001c0 44.667 14.333 83.334 43 116.001c28.667 32 67.334 48.667 116.001 50c50.667 0.666992 91.667 -19 123 -59l8 -11c0.666992 -0.666992 1.33398 -1.5 2.00098 -2.5
s1.66699 -2.16699 3 -3.5l1 -1c0 -0.666992 0.666992 -1 2 -1zM10.998 177.998c-3.33301 15.333 -5 32 -5 50c0 8.66699 0.333008 17.334 1 26.001s2 16.667 4 24l54 -9c-2 -6.66699 -3.16699 -13.334 -3.5 -20.001s-0.5 -13.667 -0.5 -21s0.166992 -14.333 0.5 -21
s1.5 -13 3.5 -19zM106.998 37.998c-29.333 19.333 -52.667 42.999 -70 70.999l44 32c13.333 -23.333 32 -42.666 56 -57.999zM422.997 108.997c-16.667 -28 -39.667 -51.666 -69 -70.999l-31 45c24 15.333 43 34.666 57 57.999zM136.997 372.998
c-24 -15.333 -42.6689 -34.668 -56.002 -58.001l-44 32c8.66699 14.667 18.834 27.834 30.501 39.501s24.834 22.167 39.501 31.5zM379.995 314.996c-14.667 23.333 -33.667 42.667 -57 58l31 45c29.333 -19.333 52.333 -43 69 -71zM453.995 227.997
c0 -8.66699 -0.5 -17.166 -1.5 -25.499s-2.16699 -16.5 -3.5 -24.5l-53 10c1.33301 6.66699 2.5 13.167 3.5 19.5s1.5 13.166 1.5 20.499c0 12.667 -1.66699 26.334 -5 41.001l53 9c3.33301 -16.667 5 -33.334 5 -50.001zM278.995 4.99805
c-9.33301 -1.33301 -18.0039 -2.5 -26.0039 -3.5s-15.667 -1.5 -23 -1.5s-15 0.5 -23 1.5s-16.667 2.16699 -26 3.5l9 54c6.66699 -2 13.334 -3.16699 20.001 -3.5s13.334 -0.5 20.001 -0.5s13.334 0.166992 20.001 0.5s13.334 1.5 20.001 3.5zM269.991 396.998
c-6.66699 2 -13.3301 3.33301 -19.9971 4s-13.334 1 -20.001 1s-13.334 -0.333008 -20.001 -1s-13.334 -2 -20.001 -4l-9 55c18 4 34.333 6 49 6s31 -2 49 -6z" />
    <glyph glyph-name="ca.sub.dot" unicode="&#x1039;&#x1005;" horiz-adv-x="512" 
d="M398 -212c0 -44 -17.334 -80.334 -52.001 -109.001c-37.333 -30 -80.333 -45 -129 -45c-48 0 -90.333 15 -127 45c-36 30 -54 69.667 -54 119c0 48 17.333 87 52 117c39.333 32.667 85.333 49 138 49s94.334 -18.333 125.001 -55c31.333 -37.333 47 -77.666 47 -120.999z
M305.999 -273.001c20.667 16.667 31 37.332 31 61.999c0 28.667 -11 55.667 -33 81c-18.667 22.667 -44.667 34 -78 34c-11.333 0 -22 -1.33301 -32 -4c32 -27.333 48 -61.666 48 -102.999c0 -40 -15.667 -73.667 -47 -101c4 -0.666992 7.83301 -1 11.5 -1h10.5
c34 0 63.667 10.667 89 32zM178.999 -203.003c0 29.333 -17 52.666 -51 69.999c-19.333 -17.333 -29 -39.666 -29 -66.999c0 -31.333 10.667 -56 32 -74c32 18 48 41.667 48 71zM10.999 177.997c-3.33301 15.333 -5 32 -5 50c0 8.66699 0.333008 17.334 1 26.001
s2 16.667 4 24l54 -9c-2 -6.66699 -3.16699 -13.334 -3.5 -20.001s-0.5 -13.667 -0.5 -21s0.166992 -14.333 0.5 -21s1.5 -13 3.5 -19zM106.999 37.9971c-29.333 19.333 -52.667 42.999 -70 70.999l44 32c13.333 -23.333 32 -42.666 56 -57.999zM422.998 108.996
c-16.667 -28 -39.667 -51.666 -69 -70.999l-31 45c24 15.333 43 34.666 57 57.999zM136.998 372.997c-24 -15.333 -42.6689 -34.668 -56.002 -58.001l-44 32c8.66699 14.667 18.834 27.834 30.501 39.501s24.834 22.167 39.501 31.5zM379.996 314.995
c-14.667 23.333 -33.667 42.667 -57 58l31 45c29.333 -19.333 52.333 -43 69 -71zM453.996 227.996c0 -8.66699 -0.5 -17.166 -1.5 -25.499s-2.16699 -16.5 -3.5 -24.5l-53 10c1.33301 6.66699 2.5 13.167 3.5 19.5s1.5 13.166 1.5 20.499
c0 12.667 -1.66699 26.334 -5 41.001l53 9c3.33301 -16.667 5 -33.334 5 -50.001zM278.996 4.99707c-9.33301 -1.33301 -18.0039 -2.5 -26.0039 -3.5s-15.667 -1.5 -23 -1.5s-15 0.5 -23 1.5s-16.667 2.16699 -26 3.5l9 54c6.66699 -2 13.334 -3.16699 20.001 -3.5
s13.334 -0.5 20.001 -0.5s13.334 0.166992 20.001 0.5s13.334 1.5 20.001 3.5zM269.992 396.997c-6.66699 2 -13.3301 3.33301 -19.9971 4s-13.334 1 -20.001 1s-13.334 -0.333008 -20.001 -1s-13.334 -2 -20.001 -4l-9 55c18 4 34.333 6 49 6s31 -2 49 -6z" />
    <glyph glyph-name="cha.sub.dot" unicode="&#x1039;&#x1006;" 
d="M548 -195c1.33301 -47.333 -18 -86.666 -58 -117.999c-35.333 -27.333 -78 -41.666 -128 -42.999c-62.667 -0.666992 -113 21.333 -151 66c-37.333 -44.667 -88 -67.334 -152 -68.001c-52 -0.666992 -98 17.666 -138 54.999c-2.66699 4 -6.33398 9 -11.001 15
s-10.334 12.667 -17.001 20c-6 5.33301 -9.33301 11.666 -10 18.999c0 8.66699 5.33301 17 16 25c31.333 26.667 65 40.334 101 41.001c68.667 0.666992 117.334 -28 146.001 -86c14.667 11.333 26 28 34 50c0 9.33301 -0.666992 17.333 -2 24c0 4.66699 0.166992 9 0.5 13
s0.833008 7.66699 1.5 11c-17.333 49.333 -57.666 74 -120.999 74c-36 0 -70.333 -14.667 -103 -44c-5.33301 -10 -13.333 -16 -24 -18c-8 0 -15.667 3.66699 -23 11c-6 4.66699 -9.33301 12 -10 22c0 4.66699 1 9.66699 3 15l-1 1l1 2c2.66699 2 8.66699 8 18 18
c34.667 36.667 81 55 139 55c64.667 0 115.334 -22.333 152.001 -67c35.333 44 85.666 66.667 150.999 68c51.333 1.33301 94.666 -13 129.999 -43c36.667 -30 55.334 -69.333 56.001 -118zM486 -195c0.666992 30.667 -12.667 55.668 -40 75.001
c-23.333 16 -51.333 24 -84 24c-62 0 -101.333 -25 -118 -75c0 -9.33301 0.666992 -17.333 2 -24c0 -9.33301 -1 -17.333 -3 -24c16.667 -50.667 56 -76.334 118 -77.001c32.667 -1.33301 61.667 7.66699 87 27c24 17.333 36.667 42 38 74zM88.999 -292.999
c-10.667 20.667 -28.667 35.001 -54 43.001c-24.667 8.66699 -49.334 7 -74.001 -5c24.667 -26.667 57.334 -40.334 98.001 -41.001c12 0 22 1 30 3zM11.999 178.002c-3.33301 15.333 -5 31.999 -5 49.999c0 8.66699 0.333008 17.334 1 26.001s2 16.667 4 24l53 -9
c-2.66699 -11.333 -4 -25 -4 -41s1.33301 -29.333 4 -40zM106.999 38.001c-29.333 19.333 -52.667 42.999 -70 70.999l44 32c14 -23.333 33 -42.666 57 -57.999zM423.998 109c-17.333 -28 -40.667 -51.666 -70 -70.999l-31 45c24 15.333 43 34.666 57 57.999z
M137.997 373.001c-24 -15.333 -43.002 -34.668 -57.002 -58.001l-44 32c8.66699 14.667 18.834 27.834 30.501 39.501s24.834 22.167 39.501 31.5zM379.995 314.999c-14 23.333 -33.002 42.668 -57.002 58.001l31 45c14.667 -9.33301 27.834 -19.833 39.501 -31.5
s21.834 -24.834 30.501 -39.501zM454.993 228.001c0 -17.333 -2 -34 -6 -50l-53 10c1.33301 6.66699 2.5 13.167 3.5 19.5s1.5 13.166 1.5 20.499c0 12.667 -1.66699 26.334 -5 41.001l53 9c4 -15.333 6 -32 6 -50zM278.993 5.00098l-25.502 -3.5
c-7.66699 -1 -15.167 -1.5 -22.5 -1.5s-15.166 0.5 -23.499 1.5s-17.166 2.16699 -26.499 3.5l9 54c6.66699 -2 13.334 -3.16699 20.001 -3.5s13.667 -0.5 21 -0.5c6.66699 0 13.167 0.166992 19.5 0.5s13.166 1.5 20.499 3.5zM270.991 397.001
c-7.33301 2 -14.167 3.33301 -20.5 4s-12.833 1 -19.5 1c-7.33301 0 -14.333 -0.333008 -21 -1s-13.334 -2 -20.001 -4l-9 55c18.667 4 35.334 6 50.001 6c14 0 30 -2 48 -6z" />
    <glyph glyph-name="ja.sub.dot" unicode="&#x1039;&#x1007;" horiz-adv-x="512" 
d="M409 -258c0 -8 -3.83203 -15.334 -11.499 -22.001s-14.834 -10 -21.501 -10c-9.33301 0 -17.333 5 -24 15l-17 24c-19.333 -10 -47.666 -15 -84.999 -15c-22.667 0 -43.667 8.33301 -63 25c-19.333 16 -29 34.333 -29 55c0 21.333 10 38 30 50c16 10 35 15.667 57 17
c26.667 0.666992 53 -9.66602 79 -30.999c-3.33301 9.33301 -8.66602 16.666 -15.999 21.999c-26.667 20.667 -57 31 -91 31c-30.667 0 -57.667 -8.66699 -81 -26c-26 -19.333 -39 -43.666 -39 -72.999c0 -31.333 13.333 -56.333 40 -75
c25.333 -17.333 53.666 -26.333 84.999 -27c24.667 -1.33301 44.667 3.66699 60 15c4.66699 0.666992 10.667 2.66699 18 6c21.333 0 32 -10.333 32 -31c0 -17.333 -15.333 -31 -46 -41c-20 -6.66699 -42.333 -10 -67 -10c-48 -1.33301 -90.667 13.667 -128 45
c-36.667 30.667 -55.667 70.334 -57 119.001c-1.33301 47.333 18 86.333 58 117c34.667 27.333 76 41.666 124 42.999c45.333 1.33301 88.333 -13 129 -43c9.33301 -6.66699 18.666 -20.667 27.999 -42c8.66699 -21.333 13.667 -38.333 15 -51
c1.33301 -11.333 -2 -23.666 -10 -36.999c20.667 -24.667 31 -41.334 31 -50.001zM292.001 -202.001l-12.501 9.99902c-4.33301 3.33301 -9.16602 6.33301 -14.499 9c-24.667 8 -40 5.66699 -46 -7c-4 -9.33301 7.66699 -14.666 35 -15.999c15.333 0 28 1.33301 38 4z
M11 177.998c-3.33301 15.333 -5 32 -5 50c0 8.66699 0.333008 17.334 1 26.001s2 16.667 4 24l54 -9c-2 -6.66699 -3.16699 -13.334 -3.5 -20.001s-0.5 -13.667 -0.5 -21s0.166992 -14.333 0.5 -21s1.5 -13 3.5 -19zM107 37.998c-29.333 19.333 -52.667 42.999 -70 70.999
l44 32c13.333 -23.333 32 -42.666 56 -57.999zM422.999 108.997c-16.667 -28 -39.667 -51.666 -69 -70.999l-31 45c24 15.333 43 34.666 57 57.999zM136.999 372.998c-24 -15.333 -42.6689 -34.668 -56.002 -58.001l-44 32c8.66699 14.667 18.834 27.834 30.501 39.501
s24.834 22.167 39.501 31.5zM379.997 314.996c-14.667 23.333 -33.667 42.667 -57 58l31 45c29.333 -19.333 52.333 -43 69 -71zM453.997 227.997c0 -8.66699 -0.5 -17.166 -1.5 -25.499s-2.16699 -16.5 -3.5 -24.5l-53 10c1.33301 6.66699 2.5 13.167 3.5 19.5
s1.5 13.166 1.5 20.499c0 12.667 -1.66699 26.334 -5 41.001l53 9c3.33301 -16.667 5 -33.334 5 -50.001zM278.997 4.99805c-9.33301 -1.33301 -18.0039 -2.5 -26.0039 -3.5s-15.667 -1.5 -23 -1.5s-15 0.5 -23 1.5s-16.667 2.16699 -26 3.5l9 54
c6.66699 -2 13.334 -3.16699 20.001 -3.5s13.334 -0.5 20.001 -0.5s13.334 0.166992 20.001 0.5s13.334 1.5 20.001 3.5zM269.993 396.998c-6.66699 2 -13.3301 3.33301 -19.9971 4s-13.334 1 -20.001 1s-13.334 -0.333008 -20.001 -1s-13.334 -2 -20.001 -4l-9 55
c18 4 34.333 6 49 6s31 -2 49 -6z" />
    <glyph glyph-name="jha.sub.dot" unicode="&#x1039;&#x1008;" 
d="M553 -330c0 -25.333 -9.66797 -38 -29.001 -38c-8 0 -13.333 1 -16 3l-169 46c-34.667 -27.333 -75 -41 -121 -41c-45.333 0 -85.333 13.667 -120 41c-35.333 29.333 -53 67 -53 113c0 47.333 18.333 86 55 116c34.667 28 76.334 42.333 125.001 43
c46 0.666992 84.333 -15.333 115 -48c30 -32 45.667 -71.667 47 -119c0 -15.333 -2.33301 -30.333 -7 -45l102 -25v687c0 22.667 12 34.667 36 36c23.333 1.33301 35 -10.667 35 -36v-733zM300.999 -272c18.667 15.333 28.334 35.335 29.001 60.002
c0.666992 23.333 -10 48.666 -32 75.999c-14.667 19.333 -38.667 29.666 -72 30.999c-4 0 -8.66699 -0.333008 -14 -1s-11.333 -1.66699 -18 -3c30.667 -24.667 46 -56.667 46 -96c0 -36.667 -14.667 -68.667 -44 -96c10 0 16.667 -0.333008 20 -1
c31.333 0 59.666 10 84.999 30zM180.999 -204.998c0 27.333 -16.334 49.332 -49.001 65.999c-16 -16 -24.333 -39.667 -25 -71c-1.33301 -29.333 8.33398 -51.666 29.001 -66.999c10.667 5.33301 20.667 16 30 32c10 16 15 29.333 15 40zM10.998 178.001
c-3.33301 15.333 -5 32 -5 50c0 8.66699 0.333008 17.334 1 26.001s2 16.667 4 24l54 -9c-2 -6.66699 -3.16699 -13.334 -3.5 -20.001s-0.5 -13.667 -0.5 -21s0.166992 -14.333 0.5 -21s1.5 -13 3.5 -19zM106.998 38.001c-29.333 19.333 -52.667 42.999 -70 70.999l44 32
c13.333 -23.333 32 -42.666 56 -57.999zM422.997 109c-16.667 -28 -39.667 -51.666 -69 -70.999l-31 45c24 15.333 43 34.666 57 57.999zM136.997 373.001c-24 -15.333 -42.6689 -34.668 -56.002 -58.001l-44 32c8.66699 14.667 18.834 27.834 30.501 39.501
s24.834 22.167 39.501 31.5zM379.995 314.999c-14.667 23.333 -33.667 42.667 -57 58l31 45c29.333 -19.333 52.333 -43 69 -71zM453.995 228c0 -8.66699 -0.5 -17.166 -1.5 -25.499s-2.16699 -16.5 -3.5 -24.5l-53 10c1.33301 6.66699 2.5 13.167 3.5 19.5
s1.5 13.166 1.5 20.499c0 12.667 -1.66699 26.334 -5 41.001l53 9c3.33301 -16.667 5 -33.334 5 -50.001zM278.995 5.00098c-9.33301 -1.33301 -18.0039 -2.5 -26.0039 -3.5s-15.667 -1.5 -23 -1.5s-15 0.5 -23 1.5s-16.667 2.16699 -26 3.5l9 54
c6.66699 -2 13.334 -3.16699 20.001 -3.5s13.334 -0.5 20.001 -0.5s13.334 0.166992 20.001 0.5s13.334 1.5 20.001 3.5zM269.991 397.001c-6.66699 2 -13.3301 3.33301 -19.9971 4s-13.334 1 -20.001 1s-13.334 -0.333008 -20.001 -1s-13.334 -2 -20.001 -4l-9 55
c18 4 34.333 6 49 6s31 -2 49 -6z" />
    <glyph glyph-name="nya.sub.dot" unicode="&#x1039;&#x1009;" 
d="M498 -317c0 -30.667 -17 -45.9971 -51 -45.9971h-310c-61.333 0 -92 25.333 -92 76v80c0 12.667 12 19 36 19c4.66699 0 8.66699 -1 12 -3c14 -16.667 38.333 -25 73 -25c12 0 23.667 1.83301 35 5.5s21.333 9 30 16s15.667 15.333 21 25s8 20.5 8 32.5
c0 23.333 -10 42.666 -30 57.999c-19.333 12 -40.666 18 -63.999 18c-30.667 0 -56 -9 -76 -27l-6 -6c0 -2.66699 -2.16699 -5.33398 -6.5 -8.00098s-8.16602 -4 -11.499 -4c-14 0 -21.333 6.33301 -22 19c0 1.33301 0.666992 4 2 8l-1 1h1h-1l1 1
c0.666992 0.666992 2 2.16699 4 4.5s4.66699 5.16602 8 8.49902c26.667 26 62.667 39.333 108 40c34 0 65 -10 93 -30c28.667 -20 43 -47.667 43 -83c1.33301 -33.333 -13.334 -61.666 -44.001 -84.999c-26.667 -18.667 -57.334 -28.667 -92.001 -30c-28 0 -54 6 -78 18v-53
c0 -16.667 3.5 -27.834 10.5 -33.501s19.833 -8.5 38.5 -8.5h310c5.33301 0 8 6.33301 8 19s7.66699 19 23 19c11.333 0 18 -5 20 -15v-11zM11 178.003c-3.33301 15.333 -5 32 -5 50c0 8.66699 0.333008 17.334 1 26.001s2 16.667 4 24l54 -9
c-2 -6.66699 -3.16699 -13.334 -3.5 -20.001s-0.5 -13.667 -0.5 -21s0.166992 -14.333 0.5 -21s1.5 -13 3.5 -19zM107 38.0029c-29.333 19.333 -52.667 42.999 -70 70.999l44 32c13.333 -23.333 32 -42.666 56 -57.999zM422.999 109.002
c-16.667 -28 -39.667 -51.666 -69 -70.999l-31 45c24 15.333 43 34.666 57 57.999zM136.999 373.003c-24 -15.333 -42.6689 -34.668 -56.002 -58.001l-44 32c8.66699 14.667 18.834 27.834 30.501 39.501s24.834 22.167 39.501 31.5zM379.997 315.001
c-14.667 23.333 -33.667 42.667 -57 58l31 45c29.333 -19.333 52.333 -43 69 -71zM453.997 228.002c0 -8.66699 -0.5 -17.166 -1.5 -25.499s-2.16699 -16.5 -3.5 -24.5l-53 10c1.33301 6.66699 2.5 13.167 3.5 19.5s1.5 13.166 1.5 20.499
c0 12.667 -1.66699 26.334 -5 41.001l53 9c3.33301 -16.667 5 -33.334 5 -50.001zM278.997 5.00293c-9.33301 -1.33301 -18.0039 -2.5 -26.0039 -3.5s-15.667 -1.5 -23 -1.5s-15 0.5 -23 1.5s-16.667 2.16699 -26 3.5l9 54c6.66699 -2 13.334 -3.16699 20.001 -3.5
s13.334 -0.5 20.001 -0.5s13.334 0.166992 20.001 0.5s13.334 1.5 20.001 3.5zM269.993 397.003c-6.66699 2 -13.3301 3.33301 -19.9971 4s-13.334 1 -20.001 1s-13.334 -0.333008 -20.001 -1s-13.334 -2 -20.001 -4l-9 55c18 4 34.333 6 49 6s31 -2 49 -6z" />
    <glyph glyph-name="nnya.sub.dot" unicode="&#x1039;&#x100a;" 
d="M531 -303c0 -20.667 -9.99805 -36.334 -29.998 -47.001c-16.667 -9.33301 -36.334 -14 -59.001 -14h-459c-18.667 0 -37.667 5.66699 -57 17c-21.333 13.333 -32 28.666 -32 45.999v108l50 15c20.667 -33.333 57.667 -50.333 111 -51
c30 -1.33301 56.667 5.33398 80 20.001c26.667 14.667 40.667 36 42 64s-12.667 49.667 -42 65c-24 14 -50.667 21.333 -80 22c-50 0.666992 -87 -16.333 -111 -51l-52 14c29.333 48 84 72.667 164 74c42.667 0.666992 81 -8.66602 115 -27.999
c40 -23.333 60 -55.333 60 -96c0 -24.667 15 -45.334 45 -62.001c22.667 -13.333 48.667 -20.333 78 -21c26 -0.666992 53.333 6.33301 82 21c26 14.667 39.333 36 40 64c1.33301 27.333 -12.667 49 -42 65c-24 12.667 -50.667 19.334 -80 20.001
c-10.667 0.666992 -20.5 0 -29.5 -2s-17.833 -4.66699 -26.5 -8l-23 36c26 7.33301 52.333 11 79 11c45.333 0 84.333 -9.33301 117 -28c40 -23.333 60 -55.333 60 -96c0 -39.333 -20.333 -70.333 -61 -93c-35.333 -20 -74 -30 -116 -30c-65.333 0 -115 19.667 -149 59
c-32.667 -38 -82.334 -57.333 -149.001 -58c-39.333 -1.33301 -75 6.66699 -107 24v-58c0 -16 11.667 -24 35 -24h458c22.667 0 34 7.33301 34 22v32h55v-32zM13.002 178c-4 14 -6 30.668 -6 50.001c0 18 2 34.667 6 50l53 -9c-2 -6.66699 -3.16699 -13.334 -3.5 -20.001
s-0.5 -13.667 -0.5 -21s0.166992 -14.333 0.5 -21s1.5 -13 3.5 -19zM108.002 38.001c-29.333 19.333 -52.667 42.999 -70 70.999l44 32c14 -23.333 33 -42.666 57 -57.999zM425.001 109c-17.333 -28 -40.667 -51.666 -70 -70.999l-31 45c24 15.333 43 34.666 57 57.999z
M139 373.001c-24 -15.333 -43.002 -34.668 -57.002 -58.001l-44 32c8.66699 14.667 18.834 27.834 30.501 39.501s24.834 22.167 39.501 31.5zM380.998 314.999c-14.667 23.333 -33.6689 42.668 -57.002 58.001l31 45c14.667 -9.33301 27.834 -19.833 39.501 -31.5
s21.834 -24.834 30.501 -39.501zM454.996 228.001c0 -8.66699 -0.5 -17.166 -1.5 -25.499s-2.16699 -16.5 -3.5 -24.5l-53 10c1.33301 6.66699 2.5 13.167 3.5 19.5s1.5 13.166 1.5 20.499c0 12.667 -1.66699 26.334 -5 41.001l53 9c3.33301 -16.667 5 -33.334 5 -50.001z
M279.996 5.00195c-9.33301 -1.33301 -18.001 -2.5 -26.001 -3.5s-15.667 -1.5 -23 -1.5s-15 0.5 -23 1.5s-16.667 2.16699 -26 3.5l9 54c6.66699 -2 13.334 -3.16699 20.001 -3.5s13.334 -0.5 20.001 -0.5c7.33301 0 14.166 0.166992 20.499 0.5s12.833 1.5 19.5 3.5z
M270.995 397.002c-6.66699 2 -13.166 3.33301 -19.499 4s-13.166 1 -20.499 1c-6.66699 0 -13.334 -0.333008 -20.001 -1s-13.334 -2 -20.001 -4l-9 55c18 4 34.333 6 49 6s31 -2 49 -6z" />
    <glyph glyph-name="ddha.sub.dot" unicode="&#x1039;&#x100e;" horiz-adv-x="507" 
d="M407 -185c0 -52.667 -19.668 -94.667 -59.001 -126s-85.333 -47 -138 -47c-40.667 0 -77.667 11.667 -111 35c-36.667 24.667 -56 57 -58 97c-0.666992 32.667 16 55 50 67c26.667 8.66699 40.667 21.667 42 39c0.666992 8.66699 -8.66602 13.667 -27.999 15h-6.5
c-3.66699 0 -8.83398 -0.333008 -15.501 -1c-2 0 -4.5 -0.166992 -7.5 -0.5s-6.5 -0.833008 -10.5 -1.5c-24 0 -36.667 12.667 -38 38c-1.33301 22 10.334 33.667 35.001 35c26 2.66699 55 -2.66602 87 -15.999c35.333 -16 54.333 -38.333 57 -67c0 -16.667 -14 -33 -42 -49
c-28 -17.333 -44 -34.666 -48 -51.999c-3.33301 -22 7.66699 -39 33 -51c18 -9.33301 39.333 -14.333 64 -15c30 -0.666992 57.333 8.66602 82 27.999c24.667 18.667 37 42.667 37 72c0 41.333 -19.333 72.333 -58 93c-12 7.33301 -19 17.666 -21 30.999
c0 26.667 12.333 40 37 40c4.66699 0 11 -1.66699 19 -5c65.333 -35.333 98 -88.333 98 -159zM10.999 178c-3.33301 15.333 -5 32 -5 50c0 8.66699 0.333008 17.334 1 26.001s2 16.667 4 24l54 -9c-2 -6.66699 -3.16699 -13.334 -3.5 -20.001s-0.5 -13.667 -0.5 -21
s0.166992 -14.333 0.5 -21s1.5 -13 3.5 -19zM106.999 38c-29.333 19.333 -52.667 42.999 -70 70.999l44 32c13.333 -23.333 32 -42.666 56 -57.999zM422.998 108.999c-16.667 -28 -39.667 -51.666 -69 -70.999l-31 45c24 15.333 43 34.666 57 57.999zM136.998 373
c-24 -15.333 -42.6689 -34.668 -56.002 -58.001l-44 32c8.66699 14.667 18.834 27.834 30.501 39.501s24.834 22.167 39.501 31.5zM379.996 314.998c-14.667 23.333 -33.667 42.667 -57 58l31 45c29.333 -19.333 52.333 -43 69 -71zM453.996 227.999
c0 -8.66699 -0.5 -17.166 -1.5 -25.499s-2.16699 -16.5 -3.5 -24.5l-53 10c1.33301 6.66699 2.5 13.167 3.5 19.5s1.5 13.166 1.5 20.499c0 12.667 -1.66699 26.334 -5 41.001l53 9c3.33301 -16.667 5 -33.334 5 -50.001zM278.996 5
c-9.33301 -1.33301 -18.0039 -2.5 -26.0039 -3.5s-15.667 -1.5 -23 -1.5s-15 0.5 -23 1.5s-16.667 2.16699 -26 3.5l9 54c6.66699 -2 13.334 -3.16699 20.001 -3.5s13.334 -0.5 20.001 -0.5s13.334 0.166992 20.001 0.5s13.334 1.5 20.001 3.5zM269.992 397
c-6.66699 2 -13.3301 3.33301 -19.9971 4s-13.334 1 -20.001 1s-13.334 -0.333008 -20.001 -1s-13.334 -2 -20.001 -4l-9 55c18 4 34.333 6 49 6s31 -2 49 -6z" />
    <glyph glyph-name="tta.sub.dot" unicode="&#x1039;&#x100b;" 
d="M344 -87c0 -12 -6.99707 -18.667 -20.9971 -20l-6 5c-2 2.66699 -4.33301 5.5 -7 8.5s-5.66699 6.16699 -9 9.5c-18.667 15.333 -41 23.666 -67 24.999c-24.667 0 -45.167 -7.83301 -61.5 -23.5s-24.5 -35.834 -24.5 -60.501c0 -12 2.16699 -23.167 6.5 -33.5
s10.5 -19.5 18.5 -27.5s17.167 -14.333 27.5 -19s21.5 -7 33.5 -7c26.667 0 48.667 10 66 30c0.666992 0 2.66699 1.66699 6 5c2.66699 8 8.33398 12 17.001 12c12 0 19 -6.66699 21 -20c0 -4 -4 -11.333 -12 -22c-22.667 -28.667 -55.334 -43 -98.001 -43
c-34.667 -0.666992 -64.334 11.333 -89.001 36c-24 24.667 -36 54.334 -36 89.001c0 18 3.16699 34.5 9.5 49.5s15 28 26 39s24.167 19.5 39.5 25.5s32 9 50 9c19.333 0 38.666 -4.33301 57.999 -13c13.333 -6.66699 26.666 -16.667 39.999 -30l6 -8
c1.33301 -2.66699 2.33301 -5.16699 3 -7.5s1.66699 -5.16602 3 -8.49902zM317.003 -368c-12.667 0 -19 6.33203 -19 18.999l1 39c-16 -5.33301 -37.333 -8.66602 -64 -9.99902c-38 -1.33301 -72.667 9 -104 31c-5.33301 2.66699 -8.33301 7.66699 -9 15
c0 14 6.33301 21 19 21c4 0 7.66699 -1 11 -3c25.333 -17.333 53 -26 83 -26c24.667 0 42.667 4 54 12l15 12c5.33301 4.66699 10.666 7 15.999 7c11.333 0 17 -7.33301 17 -22v-57h34c12.667 0 19.334 -6.33301 20.001 -19c0 -12.667 -6.66699 -19 -20 -19h-54z
M11.0029 177.999c-3.33301 15.333 -5 32 -5 50c0 8.66699 0.333008 17.334 1 26.001s2 16.667 4 24l54 -9c-2 -6.66699 -3.16699 -13.334 -3.5 -20.001s-0.5 -13.667 -0.5 -21s0.166992 -14.333 0.5 -21s1.5 -13 3.5 -19zM107.003 37.999
c-29.333 19.333 -52.667 42.999 -70 70.999l44 32c13.333 -23.333 32 -42.666 56 -57.999zM423.002 108.998c-16.667 -28 -39.667 -51.666 -69 -70.999l-31 45c24 15.333 43 34.666 57 57.999zM137.002 372.999c-24 -15.333 -42.6689 -34.668 -56.002 -58.001l-44 32
c8.66699 14.667 18.834 27.834 30.501 39.501s24.834 22.167 39.501 31.5zM380 314.997c-14.667 23.333 -33.667 42.667 -57 58l31 45c29.333 -19.333 52.333 -43 69 -71zM454 227.998c0 -8.66699 -0.5 -17.166 -1.5 -25.499s-2.16699 -16.5 -3.5 -24.5l-53 10
c1.33301 6.66699 2.5 13.167 3.5 19.5s1.5 13.166 1.5 20.499c0 12.667 -1.66699 26.334 -5 41.001l53 9c3.33301 -16.667 5 -33.334 5 -50.001zM279 4.99902c-9.33301 -1.33301 -18.0039 -2.5 -26.0039 -3.5s-15.667 -1.5 -23 -1.5s-15 0.5 -23 1.5
s-16.667 2.16699 -26 3.5l9 54c6.66699 -2 13.334 -3.16699 20.001 -3.5s13.334 -0.5 20.001 -0.5s13.334 0.166992 20.001 0.5s13.334 1.5 20.001 3.5zM269.996 396.999c-6.66699 2 -13.3301 3.33301 -19.9971 4s-13.334 1 -20.001 1s-13.334 -0.333008 -20.001 -1
s-13.334 -2 -20.001 -4l-9 55c18 4 34.333 6 49 6s31 -2 49 -6z" />
    <glyph glyph-name="ttha.sub.dot" unicode="&#x1039;&#x100c;" 
d="M57 -356c-38 0 -67.166 9.49707 -87.499 28.4971s-30.5 48.833 -30.5 89.5v139c0 22.667 11.333 41 34 55c18.667 12 41.667 18 69 18c30 0 54.5 -9.83301 73.5 -29.5s28.5 -44.834 28.5 -75.501c0 -31.333 -10.667 -58.666 -32 -81.999c-6 -6 -12.667 -9 -20 -9
s-13.833 2.83301 -19.5 8.5s-8.5 12.167 -8.5 19.5c0 6.66699 2.66699 13.334 8 20.001c12.667 10.667 19 25 19 43c0 22.667 -9 38.667 -27 48c-8.66699 4.66699 -19.667 7 -33 7c-24.667 0 -37 -7.66699 -37 -23v-139c0 -24.667 4.5 -41.5 13.5 -50.5
s25.5 -13.5 49.5 -13.5h167c-20.667 29.333 -31 63 -31 101c0 47.333 17.333 88.333 52 123c34.667 34 76.667 51 126 51c48 0 88.667 -16.667 122 -50s50 -74.666 50 -123.999c0 -55.333 -20.667 -100.666 -62 -135.999c-2.66699 -2 -5.5 -4.33301 -8.5 -7
s-6.83301 -5.66699 -11.5 -9c-0.666992 0 -1 0.333008 -1 1c-5.33301 -3.33301 -10.666 -5 -15.999 -5c-17.333 0 -26 9 -26 27c0 10 4.66699 18 14 24c0.666992 0.666992 1.66699 0.666992 3 0c0 -0.666992 -0.333008 -1 -1 -1
c-0.666992 -0.666992 -1.33398 -0.666992 -2.00098 0l3 3l10 9c29.333 24 44 55.333 44 94c0 34 -11.667 62.667 -35 86c-22.667 22.667 -50.334 34 -83.001 34s-61.667 -11.667 -87 -35c-24 -24 -36 -52.333 -36 -85c0 -38.667 12.667 -68.667 38 -90
c4.66699 -2.66699 7 -8.66699 7 -18c0 -10 -3.16699 -20.333 -9.5 -31s-13.5 -16 -21.5 -16h-205zM12.001 177.997c-4 14 -6 30.667 -6 50c0 18 2 34.667 6 50l53 -9c-2.66699 -11.333 -4 -25 -4 -41s1.33301 -29.333 4 -40zM107.001 37.9971
c-29.333 19.333 -52.667 42.999 -70 70.999l44 32c14 -23.333 33 -42.666 57 -57.999zM424 108.996c-17.333 -28 -40.667 -51.666 -70 -70.999l-31 45c24 15.333 43 34.666 57 57.999zM137.999 372.997c-24 -15.333 -43.002 -34.668 -57.002 -58.001l-44 32
c8.66699 14.667 18.834 27.834 30.501 39.501s24.834 22.167 39.501 31.5zM379.997 314.995c-14.667 23.333 -33.6689 42.668 -57.002 58.001l31 45c14.667 -9.33301 27.834 -19.833 39.501 -31.5s21.834 -24.834 30.501 -39.501zM454.995 227.997c0 -17.333 -2 -34 -6 -50
l-53 10c1.33301 6.66699 2.5 13.167 3.5 19.5s1.5 13.166 1.5 20.499c0 12.667 -1.66699 26.334 -5 41.001l53 9c4 -15.333 6 -32 6 -50zM278.995 4.99707l-25.502 -3.5c-7.66699 -1 -15.167 -1.5 -22.5 -1.5s-15.166 0.5 -23.499 1.5s-17.166 2.16699 -26.499 3.5l9 54
c6.66699 -2 13.334 -3.16699 20.001 -3.5s13.667 -0.5 21 -0.5c6.66699 0 13.167 0.166992 19.5 0.5s13.166 1.5 20.499 3.5zM270.993 396.997c-7.33301 2 -14.167 3.33301 -20.5 4s-12.833 1 -19.5 1c-7.33301 0 -14.333 -0.333008 -21 -1s-13.334 -2 -20.001 -4l-9 55
c18.667 4 35.334 6 50.001 6c14 0 30 -2 48 -6z" />
    <glyph glyph-name="dda.sub.dot" unicode="&#x1039;&#x100d;" horiz-adv-x="526" 
d="M117 -82c0 2 1.00098 4.66895 3.00098 8.00195l-2 2c0 -2.66699 0.166992 -3.83398 0.5 -3.50098s0.833008 2.16602 1.5 5.49902c6.66699 14.667 23 28.667 49 42c16.667 8.66699 36 13 58 13c35.333 0 64.666 -11.333 87.999 -34c24 -23.333 36 -52.666 36 -87.999
c0.666992 -34 -11.333 -63 -36 -87c-24.667 -24.667 -54 -37 -88 -37c-28.667 -1.33301 -52.334 6 -71.001 22v-31c17.333 -11.333 39.333 -17 66 -17c16.667 0 43 7 79 21c1.33301 0 2.66602 0.166992 3.99902 0.5l6 1.5c10 0 15 -7 15 -21v-43l26 3
c12.667 2 19.334 -3.33301 20.001 -16c0 -16 -4 -24 -12 -24h-54c-12.667 0 -19 6 -19 18v38c-11.333 -3.33301 -32.333 -8.33301 -63 -15c-36 -0.666992 -61.667 4 -77 14l-16 12c-8.66699 6.66699 -13 17 -13 31v61c0 12.667 6.33301 19 19 19h7
c7.33301 0 12.333 -2.33301 15 -7c16.667 -18.667 39.334 -28.667 68.001 -30c12 0 23.167 2.33301 33.5 7s19.333 11 27 19s13.834 17.167 18.501 27.5s7 21.5 7 33.5c0 23.333 -8.5 43.166 -25.5 59.499s-37.167 24.833 -60.5 25.5c-20.667 0 -43.334 -10.333 -68.001 -31
l-22 -19c-11.333 0 -18 6.66699 -20 20zM11.001 178.002c-3.33301 15.333 -5 32 -5 50c0 8.66699 0.333008 17.334 1 26.001s2 16.667 4 24l54 -9c-2 -6.66699 -3.16699 -13.334 -3.5 -20.001s-0.5 -13.667 -0.5 -21s0.166992 -14.333 0.5 -21s1.5 -13 3.5 -19z
M107.001 38.002c-29.333 19.333 -52.667 42.999 -70 70.999l44 32c13.333 -23.333 32 -42.666 56 -57.999zM423 109.001c-16.667 -28 -39.667 -51.666 -69 -70.999l-31 45c24 15.333 43 34.666 57 57.999zM137 373.002c-24 -15.333 -42.6689 -34.668 -56.002 -58.001l-44 32
c8.66699 14.667 18.834 27.834 30.501 39.501s24.834 22.167 39.501 31.5zM379.998 315c-14.667 23.333 -33.667 42.667 -57 58l31 45c29.333 -19.333 52.333 -43 69 -71zM453.998 228.001c0 -8.66699 -0.5 -17.166 -1.5 -25.499s-2.16699 -16.5 -3.5 -24.5l-53 10
c1.33301 6.66699 2.5 13.167 3.5 19.5s1.5 13.166 1.5 20.499c0 12.667 -1.66699 26.334 -5 41.001l53 9c3.33301 -16.667 5 -33.334 5 -50.001zM278.998 5.00195c-9.33301 -1.33301 -18.0039 -2.5 -26.0039 -3.5s-15.667 -1.5 -23 -1.5s-15 0.5 -23 1.5
s-16.667 2.16699 -26 3.5l9 54c6.66699 -2 13.334 -3.16699 20.001 -3.5s13.334 -0.5 20.001 -0.5s13.334 0.166992 20.001 0.5s13.334 1.5 20.001 3.5zM269.994 397.002c-6.66699 2 -13.3301 3.33301 -19.9971 4s-13.334 1 -20.001 1s-13.334 -0.333008 -20.001 -1
s-13.334 -2 -20.001 -4l-9 55c18 4 34.333 6 49 6s31 -2 49 -6z" />
    <glyph glyph-name="nna.sub.dot" unicode="&#x1039;&#x100f;" horiz-adv-x="601" 
d="M564 -93c22 -27.333 32.999 -59.335 32.999 -96.002c0.666992 -62.667 -26 -109.667 -80 -141c-31.333 -18 -65.666 -27 -102.999 -27c-53.333 0 -80.666 13.667 -81.999 41c-0.666992 24.667 11.333 37.334 36 38.001c6 0 10 -0.333008 12 -1
c34 -9.33301 66 -5.33301 96 12c30 16.667 45.667 42.667 47 78c1.33301 32 -14.334 57.667 -47.001 77c-17.333 10.667 -38.333 16 -63 16c-26.667 0 -49.667 -6.66699 -69 -20c-8 -2 -16.667 -8.33301 -26 -19c-0.666992 -1.33301 -1.5 -2.83301 -2.5 -4.5
s-2.5 -3.83398 -4.5 -6.50098l-5 -11c-6 -9.33301 -9.33301 -20 -10 -32c0 -17.333 3.33301 -31.333 10 -42c1.33301 -2.66699 2.33301 -5.5 3 -8.5s1.33398 -6.16699 2.00098 -9.5v-20c0 -12 -2.5 -23.333 -7.5 -34s-11.833 -20 -20.5 -28s-18.667 -14.333 -30 -19
s-23 -7 -35 -7c-24 -1.33301 -45.333 7 -64 25s-28 39 -28 63v21c0 10.667 1.33301 17.334 4 20.001c8 10 12 23 12 39c0 6 -4 16.667 -12 32l-2 7c-4 4 -7 8 -9 12l-1 3c-7.33301 9.33301 -21.333 18 -42 26c-22 7.33301 -39.667 11 -53 11
c-38.667 0 -69.334 -14 -92.001 -42c-10.667 -13.333 -16.334 -29 -17.001 -47c-1.33301 -32 15.334 -57.667 50.001 -77c30.667 -18 61.667 -23 93 -15c5.33301 0 9.33301 0.333008 12 1c22.667 0 34.667 -12.667 36 -38s-24 -38.666 -76 -39.999
c-36.667 -0.666992 -72.667 9 -108 29c-52.667 32 -79.667 78.667 -81 140c0 35.333 11 66.666 33 93.999c34.667 44 85.667 66.667 153 68c41.333 1.33301 76.666 -7.66699 105.999 -27l11 -7c18.667 23.333 43.667 35.666 75 36.999c30.667 0.666992 55.667 -12 75 -38
l12 8c27.333 18.667 63 28.334 107 29.001c64.667 0.666992 115.334 -22.666 152.001 -69.999zM237.999 -261.002c-10 18.667 -15 42.668 -15 72.001c0 17.333 5 37.666 15 60.999v20c0 6.66699 -6.66699 11 -20 13c-12.667 0 -19 -4.33301 -19 -13v-21
c10.667 -20.667 16 -40.667 16 -60c0 -24 -5.33301 -46.333 -16 -67v-13c0 -10 6.33301 -15 19 -15c13.333 0 20 5 20 15v8zM11.999 177.999c-3.33301 15.333 -5 31.999 -5 49.999c0 8.66699 0.333008 17.334 1 26.001s2 16.667 4 24l53 -9c-2.66699 -11.333 -4 -25 -4 -41
s1.33301 -29.333 4 -40zM106.999 37.998c-29.333 19.333 -52.667 42.999 -70 70.999l44 32c14 -23.333 33 -42.666 57 -57.999zM423.998 108.997c-17.333 -28 -40.667 -51.666 -70 -70.999l-31 45c24 15.333 43 34.666 57 57.999zM137.997 372.998
c-24 -15.333 -43.002 -34.668 -57.002 -58.001l-44 32c8.66699 14.667 18.834 27.834 30.501 39.501s24.834 22.167 39.501 31.5zM379.995 314.996c-14 23.333 -33.002 42.668 -57.002 58.001l31 45c14.667 -9.33301 27.834 -19.833 39.501 -31.5
s21.834 -24.834 30.501 -39.501zM454.993 227.998c0 -17.333 -2 -34 -6 -50l-53 10c1.33301 6.66699 2.5 13.167 3.5 19.5s1.5 13.166 1.5 20.499c0 12.667 -1.66699 26.334 -5 41.001l53 9c4 -15.333 6 -32 6 -50zM278.993 4.99805l-25.502 -3.5
c-7.66699 -1 -15.167 -1.5 -22.5 -1.5s-15.166 0.5 -23.499 1.5s-17.166 2.16699 -26.499 3.5l9 54c6.66699 -2 13.334 -3.16699 20.001 -3.5s13.667 -0.5 21 -0.5c6.66699 0 13.167 0.166992 19.5 0.5s13.166 1.5 20.499 3.5zM270.991 396.998
c-7.33301 2 -14.167 3.33301 -20.5 4s-12.833 1 -19.5 1c-7.33301 0 -14.333 -0.333008 -21 -1s-13.334 -2 -20.001 -4l-9 55c18.667 4 35.334 6 50.001 6c14 0 30 -2 48 -6z" />
    <glyph glyph-name="ta.sub.dot" unicode="&#x1039;&#x1010;" 
d="M479 -196c0 30.667 -13.002 55.668 -39.002 75.001c-23.333 16 -51.333 24.667 -84 26c-28 1.33301 -53.667 -6 -77 -22s-39.333 -36.333 -48 -61c0 -8 0.333008 -13.667 1 -17c0 -46 -17.667 -84.667 -53 -116c-35.333 -32 -79.333 -48 -132 -48
c-49.333 0 -92.333 15.333 -129 46c-36 29.333 -54.667 68.666 -56 117.999c-1.33301 48 17.667 87.667 57 119c34.667 26.667 77.334 40.667 128.001 42c66 0.666992 117.667 -22.666 155 -69.999c37.333 47.333 88.333 71 153 71c50 0 93.333 -15.333 130 -46
c38 -30.667 57.333 -70.334 58 -119.001c0.666992 -50 -21.333 -90.333 -66 -121c-40.667 -28 -87 -41.333 -139 -40c-29.333 0.666992 -44.666 8.66699 -45.999 24c0 11.333 3 19.333 9 24s15.333 7 28 7c30.667 -1.33301 58.667 4.66699 84 18c44 22 66 52 66 90z
M168.998 -211.999c-0.666992 10.667 -0.666992 21.999 0 33.999c-4.66699 26 -19.667 46.667 -45 62c-22 12 -47.667 18.667 -77 20c-30.667 0.666992 -58.334 -7.66602 -83.001 -24.999c-26.667 -18.667 -40 -43.334 -40 -74.001c0 -31.333 13.333 -56.333 40 -75
c22.667 -17.333 50.334 -26.666 83.001 -27.999c28.667 -1.33301 54.667 5.66699 78 21s38 37 44 65zM11.998 178c-3.33301 15.333 -5 32 -5 50c0 8.66699 0.333008 17.334 1 26.001s2 16.667 4 24l54 -9c-2 -6.66699 -3.16699 -13.334 -3.5 -20.001s-0.5 -13.667 -0.5 -21
s0.166992 -14.333 0.5 -21s1.5 -13 3.5 -19zM107.998 38c-29.333 19.333 -52.667 42.999 -70 70.999l44 32c13.333 -23.333 32 -42.666 56 -57.999zM423.997 108.999c-16.667 -28 -39.667 -51.666 -69 -70.999l-31 45c24 15.333 43 34.666 57 57.999zM137.997 373
c-24 -15.333 -42.6689 -34.668 -56.002 -58.001l-44 32c8.66699 14.667 18.834 27.834 30.501 39.501s24.834 22.167 39.501 31.5zM380.995 314.998c-14.667 23.333 -33.667 42.667 -57 58l31 45c29.333 -19.333 52.333 -43 69 -71zM454.995 227.999
c0 -8.66699 -0.5 -17.166 -1.5 -25.499s-2.16699 -16.5 -3.5 -24.5l-53 10c1.33301 6.66699 2.5 13.167 3.5 19.5s1.5 13.166 1.5 20.499c0 12.667 -1.66699 26.334 -5 41.001l53 9c3.33301 -16.667 5 -33.334 5 -50.001zM279.995 5
c-9.33301 -1.33301 -18.0039 -2.5 -26.0039 -3.5s-15.667 -1.5 -23 -1.5s-15 0.5 -23 1.5s-16.667 2.16699 -26 3.5l9 54c6.66699 -2 13.334 -3.16699 20.001 -3.5s13.334 -0.5 20.001 -0.5s13.334 0.166992 20.001 0.5s13.334 1.5 20.001 3.5zM270.991 397
c-6.66699 2 -13.3301 3.33301 -19.9971 4s-13.334 1 -20.001 1s-13.334 -0.333008 -20.001 -1s-13.334 -2 -20.001 -4l-9 55c18 4 34.333 6 49 6s31 -2 49 -6z" />
    <glyph glyph-name="tha.sub.dot" unicode="&#x1039;&#x1011;" horiz-adv-x="559" 
d="M557 -198c1.33301 -49.333 -17.3291 -89 -55.9961 -119c-36.667 -30.667 -80.334 -46 -131.001 -46c-64.667 0 -115.334 23.333 -152.001 70c-37.333 -45.333 -88.666 -68.666 -153.999 -69.999c-48.667 -0.666992 -91.334 14.666 -128.001 45.999
c-36 30.667 -54.333 70.334 -55 119.001s18 88.334 56 119.001c34.667 27.333 77 41.666 127 42.999c65.333 1.33301 116.666 -21.334 153.999 -68.001c37.333 45.333 88 68 152 68c51.333 0 94.666 -13.667 129.999 -41c37.333 -30 56.333 -70.333 57 -121zM494.005 -198
c0 33.333 -13.001 58.6689 -39.001 76.002c-23.333 15.333 -51.666 23.333 -84.999 24c-64.667 0.666992 -104.667 -25.666 -120 -78.999c0 -7.33301 0.666992 -14.333 2 -21c0 -7.33301 -0.666992 -14.333 -2 -21c6 -26.667 21 -47.334 45 -62.001
c20.667 -13.333 45.667 -20.333 75 -21c31.333 -0.666992 60 8.66602 86 27.999c25.333 19.333 38 44.666 38 75.999zM186.004 -176.997c-10.667 50.667 -51.333 76.999 -122 78.999c-16 0 -31.333 -2.16699 -46 -6.5s-27.5 -10.833 -38.5 -19.5
s-19.833 -19.167 -26.5 -31.5s-10 -26.5 -10 -42.5c-1.33301 -31.333 10.667 -56 36 -74c25.333 -19.333 53.666 -29.333 84.999 -30c28.667 -0.666992 54.334 6.33301 77.001 21s37.667 35.334 45 62.001c0 10.667 -0.333008 17.667 -1 21c0 10.667 0.333008 17.667 1 21z
M12.0049 178.002c-4 14 -6 30.667 -6 50c0 18 2 34.667 6 50l53 -9c-2.66699 -11.333 -4 -25 -4 -41s1.33301 -29.333 4 -40zM107.005 38.002c-29.333 19.333 -52.667 42.999 -70 70.999l44 32c14 -23.333 33 -42.666 57 -57.999zM424.004 109.001
c-17.333 -28 -40.667 -51.666 -70 -70.999l-31 45c24 15.333 43 34.666 57 57.999zM138.003 373.002c-24 -15.333 -43.002 -34.668 -57.002 -58.001l-44 32c8.66699 14.667 18.834 27.834 30.501 39.501s24.834 22.167 39.501 31.5zM380.001 315
c-14.667 23.333 -33.6689 42.668 -57.002 58.001l31 45c14.667 -9.33301 27.834 -19.833 39.501 -31.5s21.834 -24.834 30.501 -39.501zM454.999 228.002c0 -17.333 -2 -34 -6 -50l-53 10c1.33301 6.66699 2.5 13.167 3.5 19.5s1.5 13.166 1.5 20.499
c0 12.667 -1.66699 26.334 -5 41.001l53 9c4 -15.333 6 -32 6 -50zM278.999 5.00195l-25.502 -3.5c-7.66699 -1 -15.167 -1.5 -22.5 -1.5s-15.166 0.5 -23.499 1.5s-17.166 2.16699 -26.499 3.5l9 54c6.66699 -2 13.334 -3.16699 20.001 -3.5s13.667 -0.5 21 -0.5
c6.66699 0 13.167 0.166992 19.5 0.5s13.166 1.5 20.499 3.5zM270.997 397.002c-7.33301 2 -14.167 3.33301 -20.5 4s-12.833 1 -19.5 1c-7.33301 0 -14.333 -0.333008 -21 -1s-13.334 -2 -20.001 -4l-9 55c18.667 4 35.334 6 50.001 6c14 0 30 -2 48 -6z" />
    <glyph glyph-name="da.sub.dot" unicode="&#x1039;&#x1012;" 
d="M209 -361c-80 -2.66699 -132.001 23.668 -156.001 79.001c0 2.66699 -1 7 -3 13c0 18.667 10.333 28.334 31 29.001c12.667 0.666992 22 -5.33301 28 -18c13.333 -27.333 46.666 -41 99.999 -41c62 0 95 12 99 36c4 18 -8.66699 29.667 -38 35c-4 0 -7 -0.333008 -9 -1
h-27c-19.333 0 -29.333 10 -30 30c-1.33301 22 8.66699 33 30 33h33c32 3.33301 45.667 14.333 41 33c-6 28.667 -39 43.667 -99 45c-57.333 1.33301 -90 -13.667 -98 -45c-3.33301 -16.667 -13.666 -25.334 -30.999 -26.001c-9.33301 0 -17.333 4 -24 12
c-5.33301 5.33301 -7.66602 14 -6.99902 26c16 62 69.333 93 160 93c40.667 0 76 -8 106 -24c36.667 -21.333 55.667 -50.333 57 -87c0.666992 -22.667 -9 -43 -29 -61c18.667 -18.667 28 -38.667 28 -60c0 -64.667 -54 -98.334 -162 -101.001zM10.999 178.002
c-3.33301 15.333 -5 32 -5 50c0 8.66699 0.333008 17.334 1 26.001s2 16.667 4 24l54 -9c-2 -6.66699 -3.16699 -13.334 -3.5 -20.001s-0.5 -13.667 -0.5 -21s0.166992 -14.333 0.5 -21s1.5 -13 3.5 -19zM106.999 38.002c-29.333 19.333 -52.667 42.999 -70 70.999l44 32
c13.333 -23.333 32 -42.666 56 -57.999zM422.998 109.001c-16.667 -28 -39.667 -51.666 -69 -70.999l-31 45c24 15.333 43 34.666 57 57.999zM136.998 373.002c-24 -15.333 -42.6689 -34.668 -56.002 -58.001l-44 32c8.66699 14.667 18.834 27.834 30.501 39.501
s24.834 22.167 39.501 31.5zM379.996 315c-14.667 23.333 -33.667 42.667 -57 58l31 45c29.333 -19.333 52.333 -43 69 -71zM453.996 228.001c0 -8.66699 -0.5 -17.166 -1.5 -25.499s-2.16699 -16.5 -3.5 -24.5l-53 10c1.33301 6.66699 2.5 13.167 3.5 19.5
s1.5 13.166 1.5 20.499c0 12.667 -1.66699 26.334 -5 41.001l53 9c3.33301 -16.667 5 -33.334 5 -50.001zM278.996 5.00195c-9.33301 -1.33301 -18.0039 -2.5 -26.0039 -3.5s-15.667 -1.5 -23 -1.5s-15 0.5 -23 1.5s-16.667 2.16699 -26 3.5l9 54
c6.66699 -2 13.334 -3.16699 20.001 -3.5s13.334 -0.5 20.001 -0.5s13.334 0.166992 20.001 0.5s13.334 1.5 20.001 3.5zM269.992 397.002c-6.66699 2 -13.3301 3.33301 -19.9971 4s-13.334 1 -20.001 1s-13.334 -0.333008 -20.001 -1s-13.334 -2 -20.001 -4l-9 55
c18 4 34.333 6 49 6s31 -2 49 -6z" />
    <glyph glyph-name="dha.sub.dot" unicode="&#x1039;&#x1013;" 
d="M406 -197c0.666992 -48 -18.999 -88.6699 -58.999 -122.003c-36.667 -28.667 -80 -43 -130 -43s-93.333 15.333 -130 46s-55.334 70.334 -56.001 119.001s18.666 88.334 57.999 119.001c34 28 76.667 42.667 128 44c50.667 0.666992 94.334 -13.666 131.001 -42.999
c38 -30.667 57.333 -70.667 58 -120zM343.001 -197.003c0.666992 32.667 -12.999 58 -40.999 76c-23.333 15.333 -51.666 23.333 -84.999 24c-32.667 1.33301 -61.334 -7 -86.001 -25c-24.667 -18.667 -37 -43.667 -37 -75c0 -14.667 3.33301 -28.334 10 -41.001
c27.333 30 64.666 45.667 111.999 47c46 0.666992 85 -15 117 -47c6.66699 12.667 10 26.334 10 41.001zM289.002 -281.003c-17.333 17.333 -41.668 26.334 -73.001 27.001c-26 0.666992 -49.333 -9.33301 -70 -30c11.333 -5.33301 22.833 -9.33301 34.5 -12
s23.834 -4.33398 36.501 -5.00098c22.667 -0.666992 46.667 6 72 20zM11 177.998c-3.33301 15.333 -5 32 -5 50c0 8.66699 0.333008 17.334 1 26.001s2 16.667 4 24l54 -9c-2 -6.66699 -3.16699 -13.334 -3.5 -20.001s-0.5 -13.667 -0.5 -21s0.166992 -14.333 0.5 -21
s1.5 -13 3.5 -19zM107 37.998c-29.333 19.333 -52.667 42.999 -70 70.999l44 32c13.333 -23.333 32 -42.666 56 -57.999zM422.999 108.997c-16.667 -28 -39.667 -51.666 -69 -70.999l-31 45c24 15.333 43 34.666 57 57.999zM136.999 372.998
c-24 -15.333 -42.6689 -34.668 -56.002 -58.001l-44 32c8.66699 14.667 18.834 27.834 30.501 39.501s24.834 22.167 39.501 31.5zM379.997 314.996c-14.667 23.333 -33.667 42.667 -57 58l31 45c29.333 -19.333 52.333 -43 69 -71zM453.997 227.997
c0 -8.66699 -0.5 -17.166 -1.5 -25.499s-2.16699 -16.5 -3.5 -24.5l-53 10c1.33301 6.66699 2.5 13.167 3.5 19.5s1.5 13.166 1.5 20.499c0 12.667 -1.66699 26.334 -5 41.001l53 9c3.33301 -16.667 5 -33.334 5 -50.001zM278.997 4.99805
c-9.33301 -1.33301 -18.0039 -2.5 -26.0039 -3.5s-15.667 -1.5 -23 -1.5s-15 0.5 -23 1.5s-16.667 2.16699 -26 3.5l9 54c6.66699 -2 13.334 -3.16699 20.001 -3.5s13.334 -0.5 20.001 -0.5s13.334 0.166992 20.001 0.5s13.334 1.5 20.001 3.5zM269.993 396.998
c-6.66699 2 -13.3301 3.33301 -19.9971 4s-13.334 1 -20.001 1s-13.334 -0.333008 -20.001 -1s-13.334 -2 -20.001 -4l-9 55c18 4 34.333 6 49 6s31 -2 49 -6z" />
    <glyph glyph-name="na.sub.dot" unicode="&#x1039;&#x1014;" horiz-adv-x="512" 
d="M423 -339c0 -21.333 -10.0039 -32.334 -30.0039 -33.001c-4.66699 0 -26.667 10.667 -66 32c-38.667 -15.333 -85.667 -21.666 -141 -18.999c-103.333 5.33301 -155.666 40.666 -156.999 105.999c0 12.667 2.33301 24.5 7 35.5s11.334 20.5 20.001 28.5
s18.667 14.333 30 19s23.666 7 36.999 7c44 0 101.667 -26.667 173 -80c4 -4 12 -9.66699 24 -17v10c-2.66699 18 -15.667 33.667 -39 47c-3.33301 1.33301 -10.833 3.5 -22.5 6.5s-27.5 6.5 -47.5 10.5c-42.667 8 -71.667 23.667 -87 47c-4.66699 10 -7.66699 21.667 -9 35
c0 50 31.333 75 94 75c28.667 0 52.667 -6.66699 72 -20l4 -4l4 -4c12.667 -2.66699 20 -12 22 -28c0 -22 -10 -33.333 -30 -34c-4 0 -11 2.33301 -21 7l-3 3c-19.333 11.333 -35.333 17 -48 17c-12 0 -22.333 -3.33301 -31 -10v-2c4.66699 -6.66699 37.334 -17 98.001 -31
c62.667 -16 97.667 -52 105 -108c2.66699 -13.333 0.333984 -30 -6.99902 -50c8 -3.33301 18.667 -9.33301 32 -18c10.667 -7.33301 16.334 -16.666 17.001 -27.999zM255.996 -294.001c-8 6.66699 -18.498 14.332 -31.498 22.999s-28.833 18.334 -47.5 29.001
c-19.333 11.333 -37 17.333 -53 18c-10.667 0 -19.334 -4 -26.001 -12c-17.333 -20 -9.33301 -36 24 -48c18 -6.66699 40.667 -11 68 -13c23.333 -1.33301 45.666 -0.333008 66.999 3h-1zM10.998 177.997c-3.33301 15.333 -5 32 -5 50c0 8.66699 0.333008 17.334 1 26.001
s2 16.667 4 24l54 -9c-2 -6.66699 -3.16699 -13.334 -3.5 -20.001s-0.5 -13.667 -0.5 -21s0.166992 -14.333 0.5 -21s1.5 -13 3.5 -19zM106.998 37.9971c-29.333 19.333 -52.667 42.999 -70 70.999l44 32c13.333 -23.333 32 -42.666 56 -57.999zM422.997 108.996
c-16.667 -28 -39.667 -51.666 -69 -70.999l-31 45c24 15.333 43 34.666 57 57.999zM136.997 372.997c-24 -15.333 -42.6689 -34.668 -56.002 -58.001l-44 32c8.66699 14.667 18.834 27.834 30.501 39.501s24.834 22.167 39.501 31.5zM379.995 314.995
c-14.667 23.333 -33.667 42.667 -57 58l31 45c29.333 -19.333 52.333 -43 69 -71zM453.995 227.996c0 -8.66699 -0.5 -17.166 -1.5 -25.499s-2.16699 -16.5 -3.5 -24.5l-53 10c1.33301 6.66699 2.5 13.167 3.5 19.5s1.5 13.166 1.5 20.499
c0 12.667 -1.66699 26.334 -5 41.001l53 9c3.33301 -16.667 5 -33.334 5 -50.001zM278.995 4.99707c-9.33301 -1.33301 -18.0039 -2.5 -26.0039 -3.5s-15.667 -1.5 -23 -1.5s-15 0.5 -23 1.5s-16.667 2.16699 -26 3.5l9 54c6.66699 -2 13.334 -3.16699 20.001 -3.5
s13.334 -0.5 20.001 -0.5s13.334 0.166992 20.001 0.5s13.334 1.5 20.001 3.5zM269.991 396.997c-6.66699 2 -13.3301 3.33301 -19.9971 4s-13.334 1 -20.001 1s-13.334 -0.333008 -20.001 -1s-13.334 -2 -20.001 -4l-9 55c18 4 34.333 6 49 6s31 -2 49 -6z" />
    <glyph glyph-name="pa.sub.dot" unicode="&#x1039;&#x1015;" horiz-adv-x="515" 
d="M404 -194c1.33301 -50.667 -17 -91.334 -55 -122.001c-37.333 -31.333 -81.333 -47 -132 -47s-94.667 15.667 -132 47c-36 30.667 -54.667 71.334 -56 122.001c-0.666992 65.333 32 117.666 98 156.999c3.33301 2.66699 8.33301 4 15 4
c19.333 0 29.666 -10.667 30.999 -32c0.666992 -10.667 -4.33301 -19.334 -15 -26.001c-42.667 -24.667 -64.667 -59 -66 -103c-0.666992 -32 12.333 -58.333 39 -79c23.333 -17.333 52 -26.666 86 -27.999c34.667 -1.33301 63.667 8.33398 87 29.001
c24.667 20.667 37 46.667 37 78c0 42.667 -21.667 76.667 -65 102c-11.333 4.66699 -17.666 13.667 -18.999 27c0 20.667 11 31.667 33 33c5.33301 0 10.333 -1.33301 15 -4c65.333 -35.333 98.333 -88 99 -158zM11 178c-3.33301 15.333 -5 32 -5 50
c0 8.66699 0.333008 17.334 1 26.001s2 16.667 4 24l54 -9c-2 -6.66699 -3.16699 -13.334 -3.5 -20.001s-0.5 -13.667 -0.5 -21s0.166992 -14.333 0.5 -21s1.5 -13 3.5 -19zM107 38c-29.333 19.333 -52.667 42.999 -70 70.999l44 32c13.333 -23.333 32 -42.666 56 -57.999z
M422.999 108.999c-16.667 -28 -39.667 -51.666 -69 -70.999l-31 45c24 15.333 43 34.666 57 57.999zM136.999 373c-24 -15.333 -42.6689 -34.668 -56.002 -58.001l-44 32c8.66699 14.667 18.834 27.834 30.501 39.501s24.834 22.167 39.501 31.5zM379.997 314.998
c-14.667 23.333 -33.667 42.667 -57 58l31 45c29.333 -19.333 52.333 -43 69 -71zM453.997 227.999c0 -8.66699 -0.5 -17.166 -1.5 -25.499s-2.16699 -16.5 -3.5 -24.5l-53 10c1.33301 6.66699 2.5 13.167 3.5 19.5s1.5 13.166 1.5 20.499
c0 12.667 -1.66699 26.334 -5 41.001l53 9c3.33301 -16.667 5 -33.334 5 -50.001zM278.997 5c-9.33301 -1.33301 -18.0039 -2.5 -26.0039 -3.5s-15.667 -1.5 -23 -1.5s-15 0.5 -23 1.5s-16.667 2.16699 -26 3.5l9 54c6.66699 -2 13.334 -3.16699 20.001 -3.5
s13.334 -0.5 20.001 -0.5s13.334 0.166992 20.001 0.5s13.334 1.5 20.001 3.5zM269.993 397c-6.66699 2 -13.3301 3.33301 -19.9971 4s-13.334 1 -20.001 1s-13.334 -0.333008 -20.001 -1s-13.334 -2 -20.001 -4l-9 55c18 4 34.333 6 49 6s31 -2 49 -6z" />
    <glyph glyph-name="pha.sub.dot" unicode="&#x1039;&#x1016;" horiz-adv-x="517" 
d="M403 -192c0 -50.667 -18.002 -91.332 -54.002 -121.999c-35.333 -30 -79.333 -45.667 -132 -47c-51.333 -1.33301 -95.333 14 -132 46c-36 30.667 -54.667 71.667 -56 123c-1.33301 31.333 7.16699 61 25.5 89s41.833 49.667 70.5 65c3.33301 2.66699 8.33301 4 15 4
c18.667 0 28.667 -10.667 30 -32c0.666992 -10.667 -4.33301 -19 -15 -25c-42.667 -24.667 -64 -58.334 -64 -101.001c0 -33.333 13.333 -60 40 -80c22.667 -18 51.334 -27.333 86.001 -28c32.667 -0.666992 62.334 10 89.001 32c-45.333 16 -73.333 44.333 -84 85
c-2.66699 6 -4.33398 19.333 -5.00098 40c0 36.667 15 68.667 45 96c10.667 16 24.334 19.667 41.001 11c66.667 -34 100 -86 100 -156zM339.998 -191.998c0 32.667 -15.668 62.002 -47.001 88.002c-13.333 -19.333 -16.666 -40 -9.99902 -62s25 -37.333 55 -46
c0.666992 1.33301 1 3.66602 1 6.99902s0.333008 7.66602 1 12.999zM10.9971 178.004c-3.33301 15.333 -5 32 -5 50c0 8.66699 0.333008 17.334 1 26.001s2 16.667 4 24l54 -9c-2 -6.66699 -3.16699 -13.334 -3.5 -20.001s-0.5 -13.667 -0.5 -21s0.166992 -14.333 0.5 -21
s1.5 -13 3.5 -19zM106.997 38.0039c-29.333 19.333 -52.667 42.999 -70 70.999l44 32c13.333 -23.333 32 -42.666 56 -57.999zM422.996 109.003c-16.667 -28 -39.667 -51.666 -69 -70.999l-31 45c24 15.333 43 34.666 57 57.999zM136.996 373.004
c-24 -15.333 -42.6689 -34.668 -56.002 -58.001l-44 32c8.66699 14.667 18.834 27.834 30.501 39.501s24.834 22.167 39.501 31.5zM379.994 315.002c-14.667 23.333 -33.667 42.667 -57 58l31 45c29.333 -19.333 52.333 -43 69 -71zM453.994 228.003
c0 -8.66699 -0.5 -17.166 -1.5 -25.499s-2.16699 -16.5 -3.5 -24.5l-53 10c1.33301 6.66699 2.5 13.167 3.5 19.5s1.5 13.166 1.5 20.499c0 12.667 -1.66699 26.334 -5 41.001l53 9c3.33301 -16.667 5 -33.334 5 -50.001zM278.994 5.00391
c-9.33301 -1.33301 -18.0039 -2.5 -26.0039 -3.5s-15.667 -1.5 -23 -1.5s-15 0.5 -23 1.5s-16.667 2.16699 -26 3.5l9 54c6.66699 -2 13.334 -3.16699 20.001 -3.5s13.334 -0.5 20.001 -0.5s13.334 0.166992 20.001 0.5s13.334 1.5 20.001 3.5zM269.99 397.004
c-6.66699 2 -13.3301 3.33301 -19.9971 4s-13.334 1 -20.001 1s-13.334 -0.333008 -20.001 -1s-13.334 -2 -20.001 -4l-9 55c18 4 34.333 6 49 6s31 -2 49 -6z" />
    <glyph glyph-name="ba.sub.dot" unicode="&#x1039;&#x1017;" horiz-adv-x="510" 
d="M404 -198c1.33301 -45.333 -15.665 -84.002 -50.998 -116.002c-34 -32 -78.667 -48.667 -134 -50c-53.333 -1.33301 -97 13.334 -131 44.001c-35.333 31.333 -53.333 72 -54 122c0 16 2.16699 31.667 6.5 47s10.666 29.666 18.999 42.999s18.166 25.666 29.499 36.999
s23.666 21 36.999 29c2.66699 0.666992 5.66699 1.33398 9 2.00098s7.33301 1.33398 12 2.00098c15.333 0 23 -11 23 -33c0 -14.667 4.33301 -27 13 -37s20.334 -15 35.001 -15c28 0 42 17.333 42 52c0 20.667 8.66699 31.667 26 33c3.33301 0 8.66602 -1 15.999 -3
c32 -13.333 56.833 -34.166 74.5 -62.499s26.834 -59.833 27.501 -94.5zM342.002 -198.002c0 29.333 -10.667 54.667 -32 76c-19.333 -42 -50 -63 -92 -63c-42.667 0 -75 20 -97 60c-15.333 -20.667 -23.666 -45 -24.999 -73c-0.666992 -30.667 12 -56.667 38 -78
c24 -17.333 52.333 -26.333 85 -27c16.667 -0.666992 32.5 1.5 47.5 6.5s28.167 12.333 39.5 22s20.166 21 26.499 34s9.5 27.167 9.5 42.5zM11.002 177.999c-3.33301 15.333 -5 32 -5 50c0 8.66699 0.333008 17.334 1 26.001s2 16.667 4 24l54 -9
c-2 -6.66699 -3.16699 -13.334 -3.5 -20.001s-0.5 -13.667 -0.5 -21s0.166992 -14.333 0.5 -21s1.5 -13 3.5 -19zM107.002 37.999c-29.333 19.333 -52.667 42.999 -70 70.999l44 32c13.333 -23.333 32 -42.666 56 -57.999zM423.001 108.998
c-16.667 -28 -39.667 -51.666 -69 -70.999l-31 45c24 15.333 43 34.666 57 57.999zM137.001 372.999c-24 -15.333 -42.6689 -34.668 -56.002 -58.001l-44 32c8.66699 14.667 18.834 27.834 30.501 39.501s24.834 22.167 39.501 31.5zM379.999 314.997
c-14.667 23.333 -33.667 42.667 -57 58l31 45c29.333 -19.333 52.333 -43 69 -71zM453.999 227.998c0 -8.66699 -0.5 -17.166 -1.5 -25.499s-2.16699 -16.5 -3.5 -24.5l-53 10c1.33301 6.66699 2.5 13.167 3.5 19.5s1.5 13.166 1.5 20.499
c0 12.667 -1.66699 26.334 -5 41.001l53 9c3.33301 -16.667 5 -33.334 5 -50.001zM278.999 4.99902c-9.33301 -1.33301 -18.0039 -2.5 -26.0039 -3.5s-15.667 -1.5 -23 -1.5s-15 0.5 -23 1.5s-16.667 2.16699 -26 3.5l9 54c6.66699 -2 13.334 -3.16699 20.001 -3.5
s13.334 -0.5 20.001 -0.5s13.334 0.166992 20.001 0.5s13.334 1.5 20.001 3.5zM269.995 396.999c-6.66699 2 -13.3301 3.33301 -19.9971 4s-13.334 1 -20.001 1s-13.334 -0.333008 -20.001 -1s-13.334 -2 -20.001 -4l-9 55c18 4 34.333 6 49 6s31 -2 49 -6z" />
    <glyph glyph-name="bha.sub.dot" unicode="&#x1039;&#x1018;" horiz-adv-x="566" 
d="M385 -358c-6 0 -12.6709 0.166016 -20.0039 0.499023s-17.333 2.5 -30 6.5c-12 4 -18.667 13 -20 27c0 21.333 10 32 30 32c7.33301 0 15.333 -1.66699 24 -5c35.333 -3.33301 68 7.33398 98 32.001c20 16.667 30.667 39.334 32 68.001
c1.33301 30 -11.334 54.667 -38.001 74c-22.667 18.667 -49.667 28 -81 28c-32 0 -61.333 -10.333 -88 -31c-16.667 -13.333 -27 -34 -31 -62v-8c0 -48 -19 -87 -57 -117c-35.333 -29.333 -77.666 -44 -126.999 -44c-55.333 0 -102.666 18.667 -141.999 56
c-5.33301 8 -11.333 14.667 -18 20l2 1c-3.33301 4.66699 -5 9.66699 -5 15c0 8 3.66699 15.667 11 23c6 4.66699 14 8 24 10c10.667 0 18.667 -6 24 -18l2 -1c28 -28 62 -42.667 102 -44c34 -1.33301 62.333 7 85 25s35 44 37 78c-0.666992 30 -14 54.333 -40 73
c-23.333 15.333 -50.666 23.333 -81.999 24c-43.333 1.33301 -74.666 -9.66699 -93.999 -33c-2.66699 0 -5.33398 -2 -8.00098 -6c-7.33301 -14.667 -17.333 -22.334 -30 -23.001c-8.66699 0 -16 3.83301 -22 11.5s-8 17.5 -6 29.5
c0.666992 1.33301 2.33398 4.16602 5.00098 8.49902l11 17.5c30.667 36 78.667 54.667 144 56c64.667 1.33301 115.334 -22 152.001 -70c34.667 46.667 84.667 70 150 70c50 0 92.667 -15 128 -45c36 -30 54 -69.333 54 -118c0 -46.667 -17.667 -85 -53 -115
c-34.667 -29.333 -75.667 -44.666 -123 -45.999zM11.9961 177.999c-3.33301 15.333 -5 31.999 -5 49.999c0 8.66699 0.333008 17.334 1 26.001s2 16.667 4 24l53 -9c-2.66699 -11.333 -4 -25 -4 -41s1.33301 -29.333 4 -40zM106.996 37.998
c-29.333 19.333 -52.333 42.999 -69 70.999l43 32c14 -23.333 33 -42.666 57 -57.999zM423.996 108.997c-17.333 -28 -40.667 -51.666 -70 -70.999l-30 45c24 15.333 42.667 34.666 56 57.999zM137.995 372.998c-24 -15.333 -43 -34.667 -57 -58l-43 32
c16.667 28 39.667 51.667 69 71zM379.995 314.997c-13.333 23.333 -32.002 42.668 -56.002 58.001l30 45c14.667 -9.33301 27.834 -19.833 39.501 -31.5s21.834 -24.834 30.501 -39.501zM454.993 227.999c0 -8.66699 -0.5 -17.166 -1.5 -25.499s-2.16699 -16.5 -3.5 -24.5
l-54 10c1.33301 6.66699 2.5 13.167 3.5 19.5s1.5 13.166 1.5 20.499c0 12.667 -1.66699 26.334 -5 41.001l54 9c3.33301 -16.667 5 -33.334 5 -50.001zM279.993 5c-9.33301 -1.33301 -18.0029 -2.5 -26.0029 -3.5s-15.667 -1.5 -23 -1.5s-15 0.5 -23 1.5
s-16.667 2.16699 -26 3.5l8 54c7.33301 -2 14.333 -3.16699 21 -3.5s13.334 -0.5 20.001 -0.5s13.334 0.166992 20.001 0.5s13.334 1.5 20.001 3.5zM270.99 397c-6.66699 2 -13.3301 3.33301 -19.9971 4s-13.334 1 -20.001 1s-13.334 -0.333008 -20.001 -1
s-13.667 -2 -21 -4l-8 55c18 4 34.333 6 49 6c13.333 0 29.666 -2 48.999 -6z" />
    <glyph glyph-name="ma.sub.dot" unicode="&#x1039;&#x1019;" horiz-adv-x="507" 
d="M410 -188c1.33301 -50 -17.3311 -90.666 -55.998 -121.999c-36.667 -30.667 -80.334 -46.667 -131.001 -48c-28.667 -1.33301 -57.167 4 -85.5 16s-50.833 29.667 -67.5 53c-22 30 -33.667 63.667 -35 101c-1.33301 25.333 7.33398 53.666 26.001 84.999
c19.333 31.333 43 54.666 71 69.999c4.66699 2.66699 9.66699 4 15 4c19.333 0 29.666 -10.667 30.999 -32c1.33301 -11.333 -3.33398 -19.666 -14.001 -24.999c-43.333 -26 -65.333 -60 -66 -102c0 -10.667 1.33301 -20 4 -28c32 29.333 72.333 44.333 121 45
c48 1.33301 88 -14 120 -46c2.66699 7.33301 4 17 4 29c0 43.333 -22 76.666 -66 99.999c-12 7.33301 -18.333 16.333 -19 27c0 21.333 11.333 32.333 34 33c4 0 9 -1 15 -3c65.333 -35.333 98.333 -87.666 99 -156.999zM305.003 -269.999
c-21.333 24 -48.666 35.999 -81.999 35.999c-34 0 -62.333 -12 -85 -36c22 -16 50.333 -24.667 85 -26c31.333 -1.33301 58.666 7.33398 81.999 26.001zM11.0029 178c-3.33301 15.333 -5 32 -5 50c0 8.66699 0.333008 17.334 1 26.001s2 16.667 4 24l54 -9
c-2 -6.66699 -3.16699 -13.334 -3.5 -20.001s-0.5 -13.667 -0.5 -21s0.166992 -14.333 0.5 -21s1.5 -13 3.5 -19zM107.003 38c-29.333 19.333 -52.667 42.999 -70 70.999l44 32c13.333 -23.333 32 -42.666 56 -57.999zM423.002 108.999
c-16.667 -28 -39.667 -51.666 -69 -70.999l-31 45c24 15.333 43 34.666 57 57.999zM137.002 373c-24 -15.333 -42.6689 -34.668 -56.002 -58.001l-44 32c8.66699 14.667 18.834 27.834 30.501 39.501s24.834 22.167 39.501 31.5zM380 314.998
c-14.667 23.333 -33.667 42.667 -57 58l31 45c29.333 -19.333 52.333 -43 69 -71zM454 227.999c0 -8.66699 -0.5 -17.166 -1.5 -25.499s-2.16699 -16.5 -3.5 -24.5l-53 10c1.33301 6.66699 2.5 13.167 3.5 19.5s1.5 13.166 1.5 20.499c0 12.667 -1.66699 26.334 -5 41.001
l53 9c3.33301 -16.667 5 -33.334 5 -50.001zM279 5c-9.33301 -1.33301 -18.0039 -2.5 -26.0039 -3.5s-15.667 -1.5 -23 -1.5s-15 0.5 -23 1.5s-16.667 2.16699 -26 3.5l9 54c6.66699 -2 13.334 -3.16699 20.001 -3.5s13.334 -0.5 20.001 -0.5s13.334 0.166992 20.001 0.5
s13.334 1.5 20.001 3.5zM269.996 397c-6.66699 2 -13.3301 3.33301 -19.9971 4s-13.334 1 -20.001 1s-13.334 -0.333008 -20.001 -1s-13.334 -2 -20.001 -4l-9 55c18 4 34.333 6 49 6s31 -2 49 -6z" />
    <glyph glyph-name="ya.sub.dot" unicode="&#x1039;&#x101a;" horiz-adv-x="561" 
d="M377 -358c-63.333 0 -114.335 26.332 -153.002 78.999c-35.333 -51.333 -86.666 -77 -153.999 -77c-50 0 -92.667 16.333 -128 49c-36.667 32.667 -55 71.667 -55 117c0 28.667 9 57.667 27 87c18 28 40.333 49.333 67 64c2.66699 2.66699 7.66699 4.33398 15 5.00098
c6.66699 0 12.667 -2.5 18 -7.5s8.33301 -11.5 9 -19.5c0 -6.66699 -4 -13.334 -12 -20.001c-44.667 -26 -67 -62.333 -67 -109c0 -34 12.667 -62 38 -84c24.667 -22 54 -33 88 -33c16 0 31.333 2.66699 46 8s27.667 12.833 39 22.5s20.5 21.334 27.5 35.001
s11.167 28.5 12.5 44.5c0.666992 2.66699 0.666992 7.33398 0 14.001c-1.33301 44.667 -21.333 78.667 -60 102c-8 4.66699 -12.333 11.334 -13 20.001c0 17.333 9.33301 26 28 26c5.33301 0 10.333 -1.33301 15 -4c58 -30.667 87.333 -81 88 -151v-10
c2.66699 -30.667 14.334 -55.334 35.001 -74.001c25.333 -22.667 55.666 -34 90.999 -34c33.333 0 62.333 10.333 87 31s37.334 48.334 38.001 83.001c1.33301 31.333 -11.334 58 -38.001 80c-26 22 -54.667 33 -86 33c-5.33301 0 -12.333 -1 -21 -3s-15 -3 -19 -3
c-17.333 0 -26.666 8.66699 -27.999 26c0 11.333 7 19.666 21 24.999c5.33301 0 14.333 1.33301 27 4c9.33301 0 15.666 0.333008 18.999 1c46.667 0 88.334 -15.667 125.001 -47c36 -30.667 54.667 -69.667 56 -117c0 -47.333 -18.333 -86 -55 -116
c-37.333 -30.667 -80 -46.334 -128 -47.001zM11.998 177.999c-3.33301 15.333 -5 32 -5 50c0 16.667 1.66699 33.334 5 50.001l54 -9c-2 -6.66699 -3.16699 -13.334 -3.5 -20.001s-0.5 -13.667 -0.5 -21s0.166992 -14.333 0.5 -21s1.5 -13 3.5 -19zM107.998 37.999
c-29.333 19.333 -52.667 42.999 -70 70.999l44 32c13.333 -23.333 32 -42.666 56 -57.999zM424.997 108.998c-17.333 -28 -40.667 -51.666 -70 -70.999l-31 45c24 15.333 43 34.666 57 57.999zM137.996 372.999c-24 -15.333 -42.6689 -34.668 -56.002 -58.001l-44 32
c8.66699 14.667 18.834 27.834 30.501 39.501s24.834 22.167 39.501 31.5zM380.994 314.997c-14.667 23.333 -33.666 42.668 -56.999 58.001l31 45c14.667 -9.33301 27.667 -19.833 39 -31.5s21.666 -24.834 30.999 -39.501zM454.995 227.999
c0 -8.66699 -0.5 -17.166 -1.5 -25.499s-2.16699 -16.5 -3.5 -24.5l-53 10c1.33301 6.66699 2.5 13.167 3.5 19.5s1.5 13.166 1.5 20.499c0 12.667 -1.66699 26.334 -5 41.001l53 9c3.33301 -16.667 5 -33.334 5 -50.001zM279.995 5
c-9.33301 -1.33301 -18.0039 -2.5 -26.0039 -3.5s-15.667 -1.5 -23 -1.5s-15 0.5 -23 1.5s-16.667 2.16699 -26 3.5l9 54c6.66699 -2 13.334 -3.16699 20.001 -3.5s13.334 -0.5 20.001 -0.5s13.334 0.166992 20.001 0.5s13.334 1.5 20.001 3.5zM270.991 397
c-6.66699 2 -13.3301 3.33301 -19.9971 4s-13.334 1 -20.001 1s-13.334 -0.333008 -20.001 -1s-13.334 -2 -20.001 -4l-9 55c18 4 34.333 6 49 6s31 -2 49 -6z" />
    <glyph glyph-name="ra.sub.dot" unicode="&#x1039;&#x101b;" 
d="M326 -362c-12.667 0 -19.668 6.66602 -21.001 19.999v186c0 63.333 -30.333 96 -91 98c-20.667 0.666992 -39.667 -5.5 -57 -18.5s-28.666 -29.167 -33.999 -48.5c36 0 64.167 -9.5 84.5 -28.5s30.5 -43.5 30.5 -73.5c0 -29.333 -8 -44 -24 -44
c-17.333 0 -33.666 2.83301 -48.999 8.5s-29 13.667 -41 24s-21.833 22.833 -29.5 37.5s-12.5 30.667 -14.5 48c-1.33301 2.66699 -1.33301 6.66699 0 12c1.33301 35.333 15 64 41 86c26.667 21.333 57.667 32.666 93 33.999c25.333 0.666992 49.5 -6.16602 72.5 -20.499
s39.833 -33.166 50.5 -56.499c6.66699 -14 10 -33.333 10 -58v-167h30c13.333 0 20.666 -6.66699 21.999 -20c0 -12.667 -7.33301 -19 -22 -19h-51zM195.999 -232.001c1.33301 20 -5.33398 37.333 -20.001 52c-10 11.333 -28 17 -54 17c4.66699 -20 17.334 -38 38.001 -54
c8.66699 -7.33301 20.667 -12.333 36 -15zM10.999 177.999c-3.33301 15.333 -5 32 -5 50c0 8.66699 0.333008 17.334 1 26.001s2 16.667 4 24l54 -9c-2 -6.66699 -3.16699 -13.334 -3.5 -20.001s-0.5 -13.667 -0.5 -21s0.166992 -14.333 0.5 -21s1.5 -13 3.5 -19z
M106.999 37.999c-29.333 19.333 -52.667 42.999 -70 70.999l44 32c13.333 -23.333 32 -42.666 56 -57.999zM422.998 108.998c-16.667 -28 -39.667 -51.666 -69 -70.999l-31 45c24 15.333 43 34.666 57 57.999zM136.998 372.999
c-24 -15.333 -42.6689 -34.668 -56.002 -58.001l-44 32c8.66699 14.667 18.834 27.834 30.501 39.501s24.834 22.167 39.501 31.5zM379.996 314.997c-14.667 23.333 -33.667 42.667 -57 58l31 45c29.333 -19.333 52.333 -43 69 -71zM453.996 227.998
c0 -8.66699 -0.5 -17.166 -1.5 -25.499s-2.16699 -16.5 -3.5 -24.5l-53 10c1.33301 6.66699 2.5 13.167 3.5 19.5s1.5 13.166 1.5 20.499c0 12.667 -1.66699 26.334 -5 41.001l53 9c3.33301 -16.667 5 -33.334 5 -50.001zM278.996 4.99902
c-9.33301 -1.33301 -18.0039 -2.5 -26.0039 -3.5s-15.667 -1.5 -23 -1.5s-15 0.5 -23 1.5s-16.667 2.16699 -26 3.5l9 54c6.66699 -2 13.334 -3.16699 20.001 -3.5s13.334 -0.5 20.001 -0.5s13.334 0.166992 20.001 0.5s13.334 1.5 20.001 3.5zM269.992 396.999
c-6.66699 2 -13.3301 3.33301 -19.9971 4s-13.334 1 -20.001 1s-13.334 -0.333008 -20.001 -1s-13.334 -2 -20.001 -4l-9 55c18 4 34.333 6 49 6s31 -2 49 -6z" />
    <glyph glyph-name="la.sub.dot" unicode="&#x1039;&#x101c;" 
d="M95 317c-10 -16 -21.333 -44.667 -34 -86h-70c2.66699 54.667 20.667 101 54 139zM229 59c22 5.33301 52.001 17.667 90.001 37l50 -50c-38.667 -34.667 -85.334 -53 -140.001 -55v68zM337.001 115.001c6 10 11.998 20.667 17.998 32
c6.66699 12.667 11.834 23.667 15.501 33s5.83398 17.666 6.50098 24.999l70 -1c-2 -51.333 -21.667 -97.666 -59 -138.999zM63.999 390.001c38 34 84.334 53 139.001 57v-71c-14 -0.666992 -32.667 -7.66699 -56 -21c-10.667 -4.66699 -21.334 -11 -32.001 -19z
M319 339.001c-5.33301 3.33301 -10.499 6.33203 -15.499 8.99902l-15.5 8c-24.667 12.667 -44.334 19.334 -59.001 20.001v71c52 -2 98.667 -21 140 -57zM61.001 205c2.66699 -10 7.16895 -22.167 13.502 -36.5s14.166 -30.833 23.499 -49.5l-51 -50
c-34.667 38.667 -53.334 84 -56.001 136h70zM114.003 98c9.33301 -5.33301 21.332 -11.168 35.999 -17.501s32.334 -12.833 53.001 -19.5v-70c-50 2.66699 -95.333 22.334 -136 59.001zM377.002 230.998c-2 6.66699 -4 12.834 -6 18.501s-3.66699 11.167 -5 16.5
c-8 25.333 -17 43.666 -27 54.999l49 50c36 -39.333 55.667 -86 59 -140h-70zM369.002 -359.002c-46 -0.666992 -89.0039 14.666 -129.004 45.999c-26.667 20.667 -44.334 51.334 -53.001 92.001c-2.66699 2.66699 -4 7.33398 -4 14.001c0 34.667 -11.833 62.167 -35.5 82.5
s-52.5 30.833 -86.5 31.5c-16 0 -31 -2.33301 -45 -7s-26.333 -11.667 -37 -21s-19.167 -20.333 -25.5 -33s-9.5 -27 -9.5 -43c-0.666992 -26.667 9.33301 -49 30 -67c30 -26 62.667 -37 98 -33c7.33301 0 16 1.66699 26 5c20.667 0 31 -10.667 31 -32
c0 -15.333 -9.66699 -25.666 -29 -30.999c-5.33301 -1.33301 -13 -2.33301 -23 -3h-11c-3.33301 0 -6.33301 -0.333008 -9 -1c-45.333 0 -85.666 15.667 -120.999 47s-53.333 69.666 -54 114.999c-1.33301 48.667 16.667 88.667 54 120c32 28 73.667 42.667 125 44
c94.667 1.33301 154.334 -43.334 179.001 -134.001c3.33301 -5.33301 5 -12 5 -20c-0.666992 -32 12 -59 38 -81c24 -18.667 52.667 -28.667 86 -30c16 -0.666992 30.833 1.33301 44.5 6s25.834 11.5 36.501 20.5s19.167 19.833 25.5 32.5s9.5 26.667 9.5 42
c0.666992 32 -13 57.667 -41 77c-25.333 18 -54.666 26.667 -87.999 26c-5.33301 0 -10.333 -1 -15 -3c-10 -2.66699 -19.333 -1 -28 5s-13 14.667 -13 26c0 18 17.667 28.667 53 32c51.333 5.33301 98.333 -10 141 -46c34 -28.667 51.667 -67.667 53 -117
c0.666992 -49.333 -16.333 -88.333 -51 -117c-35.333 -29.333 -77.666 -44.333 -126.999 -45z" />
    <glyph glyph-name="sa.sub.dot" unicode="&#x1039;&#x101e;" horiz-adv-x="532" 
d="M529 -196c0 -46 -16.3311 -84.999 -48.998 -116.999c-31.333 -31.333 -70 -47.666 -116 -48.999c-61.333 -1.33301 -108.666 25 -141.999 79c-36.667 -52 -83.334 -78.333 -140.001 -79s-100.667 19.666 -132 60.999c-4 4.66699 -9 12.667 -15 24
c-6 18.667 2.66699 29.667 26 33c4.66699 0 8.83398 -1.33301 12.501 -4s6.66699 -5.5 9 -8.5s4.16602 -5.83301 5.49902 -8.5l2 -4l3 -2c19.333 -26 49 -39.333 89 -40c30.667 -0.666992 57.334 10.666 80.001 33.999c22 22 33.667 49.333 35 82
c0.666992 16 -1.83301 30.667 -7.5 44s-13.834 25 -24.501 35s-23.167 17.667 -37.5 23s-29.5 8 -45.5 8c-14.667 0 -33.334 -5 -56.001 -15c-22 -9.33301 -35.667 -20.333 -41 -33c-4.66699 -12.667 -12.334 -19 -23.001 -19c-19.333 0 -29 9.33301 -29 28
c0 5.33301 1.66699 10.333 5 15l1 -1v-2l-1 -1h-1l2 5l14 16c30.667 37.333 73.667 56.666 129 57.999c46 0.666992 84.667 -13 116 -41c31.333 -29.333 47.333 -66.666 48 -111.999c1.33301 -38 12.833 -67.833 34.5 -89.5s49.5 -33.167 83.5 -34.5
c31.333 -1.33301 58 9.66699 80 33c22.667 22.667 34 50 34 82s-10.667 58.667 -32 80c-24.667 23.333 -50.334 35 -77.001 35c-4 0 -9.33301 -0.666992 -16 -2h-7c-5.33301 0 -11.666 -1.33301 -18.999 -4c-16.667 0 -25 8.66699 -25 26c0 14.667 10.667 23.667 32 27
c4 0 8.66699 0.5 14 1.5s11.333 1.5 18 1.5c44.667 0 83 -16.333 115 -49c32 -33.333 48 -72 48 -116zM12.002 178.001c-3.33301 15.333 -5 31.999 -5 49.999c0 8.66699 0.333008 17.334 1 26.001s2 16.667 4 24l53 -9c-2.66699 -11.333 -4 -25 -4 -41
s1.33301 -29.333 4 -40zM107.002 38c-29.333 19.333 -52.667 42.999 -70 70.999l44 32c14 -23.333 33 -42.666 57 -57.999zM424.001 108.999c-17.333 -28 -40.667 -51.666 -70 -70.999l-31 45c24 15.333 43 34.666 57 57.999zM138 373
c-24 -15.333 -42.999 -34.668 -56.999 -58.001l-44 32c9.33301 14.667 19.666 27.834 30.999 39.501s24.333 22.167 39 31.5zM380.001 314.998c-14 23.333 -33.002 42.668 -57.002 58.001l31 45c14.667 -9.33301 27.834 -19.833 39.501 -31.5s21.834 -24.834 30.501 -39.501
zM454.999 228c0 -17.333 -2 -34 -6 -50l-53 10c1.33301 6.66699 2.5 13.167 3.5 19.5s1.5 13.166 1.5 20.499c0 12.667 -1.66699 26.334 -5 41.001l53 9c4 -15.333 6 -32 6 -50zM279.999 5c-9.33301 -1.33301 -18.002 -2.5 -26.002 -3.5s-15.667 -1.5 -23 -1.5
s-15.166 0.5 -23.499 1.5s-17.166 2.16699 -26.499 3.5l9 54c6.66699 -2 13.334 -3.16699 20.001 -3.5s13.667 -0.5 21 -0.5c6.66699 0 13.167 0.166992 19.5 0.5s13.166 1.5 20.499 3.5zM270.997 397c-7.33301 2 -14.166 3.33301 -20.499 4s-12.833 1 -19.5 1
c-7.33301 0 -14.333 -0.333008 -21 -1s-13.334 -2 -20.001 -4l-9 55c18.667 4 35.334 6 50.001 6c13.333 0 29.666 -2 48.999 -6z" />
    <glyph glyph-name="ha.sub.dot" unicode="&#x1039;&#x101f;" horiz-adv-x="566" 
d="M395 -358c-8 0 -15.3291 0.168945 -21.9961 0.501953s-16.667 2.83301 -30 7.5c-12.667 4 -19 11.333 -19 22c0 14.667 9.66699 22.667 29 24c-3.33301 0 -3 -0.5 1 -1.5s12 -2.16699 24 -3.5c32.667 -5.33301 65.667 6.66699 99 36c23.333 20 35 46 35 78
c0 34 -12 61.5 -36 82.5s-53.333 31.833 -88 32.5c-32.667 1.33301 -60.334 -7.83398 -83.001 -27.501s-36.334 -45.5 -41.001 -77.5v-10c0 -46.667 -18.333 -85.334 -55 -116.001c-36.667 -31.333 -80.334 -47 -131.001 -47s-92.334 15 -125.001 45
c-33.333 30 -50.333 69.333 -51 118c-1.33301 61.333 20 112.333 64 153c5.33301 5.33301 12 8 20 8c18.667 0 28.334 -8.33301 29.001 -25c0 -6 -3 -12 -9 -18c-30 -29.333 -45.667 -68.666 -47 -117.999c-0.666992 -17.333 2 -32.833 8 -46.5s14.5 -25.334 25.5 -35.001
s23.833 -17.167 38.5 -22.5s30.667 -8 48 -8c32.667 -1.33301 63.667 9.66699 93 33c21.333 16 33.333 39.333 36 70v19c-2 41.333 -19.333 77.333 -52 108c-4 4 -6.66699 10 -8 18c0 16 9.66699 24.667 29 26c7.33301 0 14 -3 20 -9c17.333 -16 31.666 -35.667 42.999 -59
c36 47.333 85.333 71 148 71c48 0 89.667 -15.667 125 -47c34.667 -30.667 52.667 -70 54 -118c0.666992 -44.667 -17 -83 -53 -115c-35.333 -32 -75 -48 -119 -48zM12.0039 178.002c-4 14 -6 30.667 -6 50c0 18 2 34.667 6 50l53 -9c-2.66699 -11.333 -4 -25 -4 -41
s1.33301 -29.333 4 -40zM107.004 38.002c-29.333 19.333 -52.667 42.999 -70 70.999l44 32c14 -23.333 33 -42.666 57 -57.999zM424.003 109.001c-17.333 -28 -40.667 -51.666 -70 -70.999l-31 45c24 15.333 43 34.666 57 57.999zM138.002 373.002
c-24 -15.333 -43.002 -34.668 -57.002 -58.001l-44 32c8.66699 14.667 18.834 27.834 30.501 39.501s24.834 22.167 39.501 31.5zM380 315c-14.667 23.333 -33.6689 42.668 -57.002 58.001l31 45c14.667 -9.33301 27.834 -19.833 39.501 -31.5
s21.834 -24.834 30.501 -39.501zM454.998 228.002c0 -17.333 -2 -34 -6 -50l-53 10c1.33301 6.66699 2.5 13.167 3.5 19.5s1.5 13.166 1.5 20.499c0 12.667 -1.66699 26.334 -5 41.001l53 9c4 -15.333 6 -32 6 -50zM278.998 5.00195l-25.502 -3.5
c-7.66699 -1 -15.167 -1.5 -22.5 -1.5s-15.166 0.5 -23.499 1.5s-17.166 2.16699 -26.499 3.5l9 54c6.66699 -2 13.334 -3.16699 20.001 -3.5s13.667 -0.5 21 -0.5c6.66699 0 13.167 0.166992 19.5 0.5s13.166 1.5 20.499 3.5zM270.996 397.002
c-7.33301 2 -14.167 3.33301 -20.5 4s-12.833 1 -19.5 1c-7.33301 0 -14.333 -0.333008 -21 -1s-13.334 -2 -20.001 -4l-9 55c18.667 4 35.334 6 50.001 6c14 0 30 -2 48 -6z" />
    <glyph glyph-name="kinzi.dot" unicode="&#x1004;&#x103a;&#x1039;" 
d="M220 480c-30.667 -0.666992 -57.334 8.00195 -80.001 26.002c-25.333 20.667 -38.666 51.667 -39.999 93c-1.33301 35.333 10.667 63.666 36 84.999c-12.667 16.667 -19.667 37 -21 61c-1.33301 28 7 50.167 25 66.5s41 24.833 69 25.5
c32.667 1.33301 58.667 -9.33398 78 -32.001c4.66699 -7.33301 7.66699 -15.333 9 -24c0 -24 -11.667 -36 -35 -36c-4 0 -8 1.16699 -12 3.5s-8 5 -12 8l-11.5 8.5c-3.66699 2.66699 -7.5 4 -11.5 4c-11.333 0 -19.333 -4.33301 -24 -13c-6 -8 -5.5 -16.833 1.5 -26.5
s22.5 -16.5 46.5 -20.5c24 -2.66699 39.667 -7.66699 47 -15c19.333 -12 29.666 -26 30.999 -42c0.666992 -9.33301 -2.5 -17.833 -9.5 -25.5s-15.5 -11.5 -25.5 -11.5c-6 0 -13.333 2.66699 -22 8c-1.33301 2 -3.5 4 -6.5 6s-6.16699 4.33301 -9.5 7l-26 7
c-30 0 -46.667 -14.667 -50 -44c0 -32.667 17.667 -50 53 -52c11.333 -1.33301 22 4.66699 32 18c6.66699 12.667 16.334 19 29.001 19c25.333 0 38 -11.667 38 -35c0 -5.33301 -1.33301 -10.333 -4 -15c-18 -34.667 -49.667 -52.667 -95 -54zM11 178.002
c-3.33301 15.333 -5 32 -5 50c0 8.66699 0.333008 17.334 1 26.001s2 16.667 4 24l54 -9c-2 -6.66699 -3.16699 -13.334 -3.5 -20.001s-0.5 -13.667 -0.5 -21s0.166992 -14.333 0.5 -21s1.5 -13 3.5 -19zM107 38.002c-29.333 19.333 -52.667 42.999 -70 70.999l44 32
c13.333 -23.333 32 -42.666 56 -57.999zM422.999 109.001c-16.667 -28 -39.667 -51.666 -69 -70.999l-31 45c24 15.333 43 34.666 57 57.999zM136.999 373.002c-24 -15.333 -42.6689 -34.668 -56.002 -58.001l-44 32c8.66699 14.667 18.834 27.834 30.501 39.501
s24.834 22.167 39.501 31.5zM379.997 315c-14.667 23.333 -33.667 42.667 -57 58l31 45c29.333 -19.333 52.333 -43 69 -71zM453.997 228.001c0 -8.66699 -0.5 -17.166 -1.5 -25.499s-2.16699 -16.5 -3.5 -24.5l-53 10c1.33301 6.66699 2.5 13.167 3.5 19.5
s1.5 13.166 1.5 20.499c0 12.667 -1.66699 26.334 -5 41.001l53 9c3.33301 -16.667 5 -33.334 5 -50.001zM278.997 5.00195c-9.33301 -1.33301 -18.0039 -2.5 -26.0039 -3.5s-15.667 -1.5 -23 -1.5s-15 0.5 -23 1.5s-16.667 2.16699 -26 3.5l9 54
c6.66699 -2 13.334 -3.16699 20.001 -3.5s13.334 -0.5 20.001 -0.5s13.334 0.166992 20.001 0.5s13.334 1.5 20.001 3.5zM269.993 397.002c-6.66699 2 -13.3301 3.33301 -19.9971 4s-13.334 1 -20.001 1s-13.334 -0.333008 -20.001 -1s-13.334 -2 -20.001 -4l-9 55
c18 4 34.333 6 49 6s31 -2 49 -6z" />
    <glyph glyph-name="ga.sha.sub.dot" unicode="&#x1039;&#x1050;" horiz-adv-x="562" 
d="M231 -237c-15.333 0 -28.333 5.16797 -39 15.501s-16 23.5 -16 39.5c0 14.667 5.5 27.667 16.5 39s23.833 16.666 38.5 15.999c16 -0.666992 29.167 -6.66699 39.5 -18s15.5 -24.333 15.5 -39c0 -35.333 -18.333 -53 -55 -53zM316 -340.999
c-3.33301 -2.66699 -7.99805 -3.99902 -13.998 -3.99902c-21.333 0 -32 11 -32 33c0 12 5.66699 20.667 17 26c43.333 24 65 57.333 65 100c0 14.667 -3.16699 28.5 -9.5 41.5s-15 24 -26 33s-24 16.167 -39 21.5s-30.833 8 -47.5 8c-17.333 0 -33.333 -2.66699 -48 -8
s-27.334 -12.5 -38.001 -21.5s-19.167 -20 -25.5 -33s-9.5 -26.833 -9.5 -41.5c0 -42.667 21.333 -76.334 64 -101.001c9.33301 -6 14 -14.333 14 -25c0 -20.667 -10 -31 -30 -31c-5.33301 0 -10.333 1.33301 -15 4c-63.333 35.333 -95 86.333 -95 153
c0 46.667 17.333 86 52 118c35.333 31.333 79 47 131 47c51.333 0 94.666 -15.667 129.999 -47c35.333 -32 53 -71.333 53 -118c0 -69.333 -32.333 -121 -97 -155zM231.002 -165.998c-11.333 -1.33301 -17 -6.66699 -17 -16c0.666992 -12.667 6.33398 -19 17.001 -19
c11.333 0 17 6.33301 17 19c-0.666992 10.667 -6.33398 16 -17.001 16zM11.002 178.001c-3.33301 15.333 -5 32 -5 50c0 8.66699 0.333008 17.334 1 26.001s2 16.667 4 24l54 -9c-2 -6.66699 -3.16699 -13.334 -3.5 -20.001s-0.5 -13.667 -0.5 -21s0.166992 -14.333 0.5 -21
s1.5 -13 3.5 -19zM107.002 38.001c-29.333 19.333 -52.667 42.999 -70 70.999l44 32c13.333 -23.333 32 -42.666 56 -57.999zM423.001 109c-16.667 -28 -39.667 -51.666 -69 -70.999l-31 45c24 15.333 43 34.666 57 57.999zM137.001 373.001
c-24 -15.333 -42.6689 -34.668 -56.002 -58.001l-44 32c8.66699 14.667 18.834 27.834 30.501 39.501s24.834 22.167 39.501 31.5zM379.999 314.999c-14.667 23.333 -33.667 42.667 -57 58l31 45c29.333 -19.333 52.333 -43 69 -71zM453.999 228
c0 -8.66699 -0.5 -17.166 -1.5 -25.499s-2.16699 -16.5 -3.5 -24.5l-53 10c1.33301 6.66699 2.5 13.167 3.5 19.5s1.5 13.166 1.5 20.499c0 12.667 -1.66699 26.334 -5 41.001l53 9c3.33301 -16.667 5 -33.334 5 -50.001zM278.999 5.00098
c-9.33301 -1.33301 -18.0039 -2.5 -26.0039 -3.5s-15.667 -1.5 -23 -1.5s-15 0.5 -23 1.5s-16.667 2.16699 -26 3.5l9 54c6.66699 -2 13.334 -3.16699 20.001 -3.5s13.334 -0.5 20.001 -0.5s13.334 0.166992 20.001 0.5s13.334 1.5 20.001 3.5zM269.995 397.001
c-6.66699 2 -13.3301 3.33301 -19.9971 4s-13.334 1 -20.001 1s-13.334 -0.333008 -20.001 -1s-13.334 -2 -20.001 -4l-9 55c18 4 34.333 6 49 6s31 -2 49 -6z" />
    <glyph glyph-name="pa.sha.sub.dot" unicode="&#x1039;&#x1051;" horiz-adv-x="552" 
d="M293 -186c0 -14.667 -5.16699 -27.499 -15.5 -38.499s-23.5 -16.833 -39.5 -17.5c-15.333 -1.33301 -28.333 3.66699 -39 15s-16 24.666 -16 39.999s5.16699 28.333 15.5 39s23.5 16 39.5 16c36.667 0 55 -18 55 -54zM420 -183.999
c0 -46.667 -17.667 -85.665 -53 -116.998c-35.333 -32 -78.666 -48 -129.999 -48c-52.667 0 -96.334 16 -131.001 48c-35.333 31.333 -53 70.333 -53 117c0 66.667 32 118 96 154c3.33301 2.66699 8.33301 4 15 4c20 0 30 -10.667 30 -32c0 -10.667 -5 -19 -15 -25
c-42.667 -24.667 -64 -58.334 -64 -101.001c0 -15.333 3.16699 -29.333 9.5 -42s15 -23.5 26 -32.5s23.833 -16.167 38.5 -21.5s30.667 -8 48 -8c16.667 0 32.5 2.66699 47.5 8s28 12.5 39 21.5s19.667 19.833 26 32.5s9.5 26.667 9.5 42
c0 43.333 -21.667 76.666 -65 99.999c-11.333 6 -17 14.667 -17 26c0 22 10.667 33 32 33c6 0 10.667 -1.33301 14 -4c64.667 -34 97 -85.667 97 -155zM255 -186.997c0 12 -5.66602 18 -16.999 18c-10.667 0 -16.334 -6 -17.001 -18c0 -10 5.66699 -15.667 17 -17
c10 0 15.667 5.66699 17 17zM11.001 178.003c-3.33301 15.333 -5 32 -5 50c0 8.66699 0.333008 17.334 1 26.001s2 16.667 4 24l54 -9c-2 -6.66699 -3.16699 -13.334 -3.5 -20.001s-0.5 -13.667 -0.5 -21s0.166992 -14.333 0.5 -21s1.5 -13 3.5 -19zM107.001 38.0029
c-29.333 19.333 -52.667 42.999 -70 70.999l44 32c13.333 -23.333 32 -42.666 56 -57.999zM423 109.002c-16.667 -28 -39.667 -51.666 -69 -70.999l-31 45c24 15.333 43 34.666 57 57.999zM137 373.003c-24 -15.333 -42.6689 -34.668 -56.002 -58.001l-44 32
c8.66699 14.667 18.834 27.834 30.501 39.501s24.834 22.167 39.501 31.5zM379.998 315.001c-14.667 23.333 -33.667 42.667 -57 58l31 45c29.333 -19.333 52.333 -43 69 -71zM453.998 228.002c0 -8.66699 -0.5 -17.166 -1.5 -25.499s-2.16699 -16.5 -3.5 -24.5l-53 10
c1.33301 6.66699 2.5 13.167 3.5 19.5s1.5 13.166 1.5 20.499c0 12.667 -1.66699 26.334 -5 41.001l53 9c3.33301 -16.667 5 -33.334 5 -50.001zM278.998 5.00293c-9.33301 -1.33301 -18.0039 -2.5 -26.0039 -3.5s-15.667 -1.5 -23 -1.5s-15 0.5 -23 1.5
s-16.667 2.16699 -26 3.5l9 54c6.66699 -2 13.334 -3.16699 20.001 -3.5s13.334 -0.5 20.001 -0.5s13.334 0.166992 20.001 0.5s13.334 1.5 20.001 3.5zM269.994 397.003c-6.66699 2 -13.3301 3.33301 -19.9971 4s-13.334 1 -20.001 1s-13.334 -0.333008 -20.001 -1
s-13.334 -2 -20.001 -4l-9 55c18 4 34.333 6 49 6s31 -2 49 -6z" />
    <glyph glyph-name=".notdef" horiz-adv-x="364" 
d="M33 0v666h265v-666h-265zM66 33h199v600h-199v-600z" />
    <glyph glyph-name="space" unicode=" " horiz-adv-x="250" 
 />
    <glyph glyph-name="exclam" unicode="!" horiz-adv-x="333" 
d="M189 176h-13l-9 108c-2 21.333 -8.66699 73.833 -20 157.5s-17 136.167 -17 157.5c0 23.333 4.66699 42 14 56s22.333 21 39 21c35.333 0 53 -26.667 53 -80c0 -8.66699 -0.666992 -21 -2 -37zM183 98c14.667 0 27.333 -5.33301 38 -16s16 -23.667 16 -39
s-5.16699 -27.833 -15.5 -37.5s-23.5 -14.5 -39.5 -14.5c-14.667 0 -27 4.83301 -37 14.5s-15 22.167 -15 37.5s5.16699 28.333 15.5 39s22.833 16 37.5 16z" />
    <glyph glyph-name="quotedbl" unicode="&#x22;" horiz-adv-x="408" 
d="M299 431h-20.999c-21.333 112.667 -32 180.667 -32 204c0 11.333 4.16699 21 12.5 29s18.5 12 30.5 12c11.333 0 21.166 -4 29.499 -12s12.5 -17.333 12.5 -28c0 -30.667 -8.33301 -85.667 -25 -165zM130.001 431h-20.999c-21.333 112.667 -32 180.667 -32 204
c0 11.333 4.16699 21 12.5 29s18.5 12 30.5 12c11.333 0 21.166 -4 29.499 -12s12.5 -17.333 12.5 -28c0 -30.667 -8.33301 -85.667 -25 -165z" />
    <glyph glyph-name="numbersign" unicode="#" horiz-adv-x="500" 
d="M471 271v-55h-109l-31 -216h-58l31 216h-134l-33 -216h-58l33 216h-107v55h116l21 134h-110v55h118l31 202h58l-31 -202h133l30 202h58l-30 -202h97v-55h-105l-20 -134h100zM333 405h-133l-21 -134h134z" />
    <glyph glyph-name="dollar" unicode="$" horiz-adv-x="500" 
d="M52 512c0 42.667 15.002 77 45.002 103s74.333 42.333 133 49v63h34v-63c75.333 -8.66699 129 -26.334 161 -53.001v-111h-15c-8.66699 42.667 -24.667 74.834 -48 96.501s-56 35.167 -98 40.5v-246l38.5 -22s31.667 -18 38 -22l31.5 -20.5
c14.667 -9.66699 24.667 -17.5 30 -23.5l22 -25c9.33301 -10.667 15.666 -20.834 18.999 -30.501s6.5 -21.167 9.5 -34.5s4.5 -27.666 4.5 -42.999c0 -50 -16.167 -88.167 -48.5 -114.5s-80.5 -44.833 -144.5 -55.5v-87h-34v87c-42 1.33301 -76 5.5 -102 12.5
s-54 19.833 -84 38.5v130h15c12 -52.667 31.667 -91.167 59 -115.5s64.666 -36.833 111.999 -37.5v282c-66 36.667 -112.167 69.5 -138.5 98.5s-39.5 63.5 -39.5 103.5zM229.002 407v230c-68.667 -14 -103 -48.333 -103 -103c0 -23.333 6.83301 -43.333 20.5 -60
s41.167 -39 82.5 -67zM264.002 293l0.000976562 -265c76 14.667 114 54 114 118c0 30.667 -7.33301 55.5 -22 74.5s-45.334 43.167 -92.001 72.5z" />
    <glyph glyph-name="percent" unicode="%" horiz-adv-x="833" 
d="M669 371c32.667 0 58 -9.33398 76 -28.001s27 -45 27 -79c0 -38.667 -7.66699 -77 -23 -115s-36.333 -70.667 -63 -98c-34 -34 -73 -51 -117 -51c-36 0 -65 11.833 -87 35.5s-33 54.834 -33 93.501c0 62.667 22.5 118.667 67.5 168s95.833 74 152.5 74zM586 29.999
c28.667 0 55.668 12.666 81.001 37.999s44.833 55.5 58.5 90.5s20.5 68.5 20.5 100.5c0 22 -6.83301 40.833 -20.5 56.5s-30.167 23.5 -49.5 23.5c-30.667 0 -58.334 -17.333 -83.001 -52s-42.167 -70.167 -52.5 -106.5s-15.5 -65.166 -15.5 -86.499
c0 -18.667 5.66699 -34 17 -46s26 -18 44 -18zM282.001 661.998c20.667 0 37.333 -4.49805 50 -13.498s26.834 -18 42.501 -27s37.167 -13.5 64.5 -13.5c31.333 0 58.5 5 81.5 15s47.833 27.667 74.5 53h39l-385 -689h-48l351 626c-34.667 -20 -71.334 -30 -110.001 -30
c-26 0 -47.667 3.33301 -65 10c4.66699 -16.667 7 -31.334 7 -44.001c0 -62 -19.833 -120.833 -59.5 -176.5s-88.167 -83.5 -145.5 -83.5c-32.667 0 -60.5 12.5 -83.5 37.5s-34.5 54.833 -34.5 89.5c0 63.333 22.5 120.166 67.5 170.499s96.167 75.5 153.5 75.5zM282 632
c-32 0 -64.166 -29.167 -96.499 -87.5s-48.5 -111.833 -48.5 -160.5c0 -18 5.5 -32.667 16.5 -44s25.167 -17 42.5 -17c40.667 0 78 23.833 112 71.5s51 99.834 51 156.501c0 12.667 -3 29 -9 49c-13.333 3.33301 -24.5 7.16602 -33.5 11.499s-15 7.83301 -18 10.5
s-5.83301 5 -8.5 7s-5.33398 3 -8.00098 3z" />
    <glyph glyph-name="ampersand" unicode="&#x26;" horiz-adv-x="778" 
d="M491 555c0 -35.333 -11.666 -66 -34.999 -92s-63.333 -52.333 -120 -79c40 -78 84 -146.667 132 -206c60.667 80.667 91 141.334 91 182.001c0 15.333 -4.5 26 -13.5 32s-25.833 10.333 -50.5 13v21h216v-21c-25.333 -3.33301 -44.333 -8.83301 -57 -16.5
s-25 -21.834 -37 -42.501l-26 -46c-26.667 -46 -60 -96 -100 -150c46 -61.333 97.333 -92 154 -92c18 0 33.5 3.83301 46.5 11.5s27.5 21.5 43.5 41.5l15 -11c-14.667 -35.333 -35.5 -63 -62.5 -83s-56.5 -30 -88.5 -30c-54.667 0 -111.334 30.333 -170.001 91
c-37.333 -32.667 -72.5 -56 -105.5 -70s-69.833 -21 -110.5 -21c-53.333 0 -95.166 13.5 -125.499 40.5s-45.5 64.167 -45.5 111.5c0 84 52.333 156 157 216l38 22c-23.333 64.667 -35 113 -35 145c0 42.667 15 79 45 109s66.333 45 109 45
c39.333 0 71.666 -11.333 96.999 -34s38 -51.667 38 -87zM321.001 416c40.667 22 70.333 44.333 89 67s28 48 28 76c0 24.667 -7.5 45 -22.5 61s-34.167 24 -57.5 24c-22.667 0 -41.167 -7.66699 -55.5 -23s-21.5 -35 -21.5 -59c0 -41.333 13.333 -90 40 -146zM252 343
c-43.333 -28 -73.832 -54.167 -91.499 -78.5s-26.5 -52.5 -26.5 -84.5c0 -38.667 12.667 -71.834 38 -99.501s55.666 -41.5 90.999 -41.5c39.333 0 86.333 21.667 141 65c-49.333 60.667 -100 140.334 -152 239.001z" />
    <glyph glyph-name="quotesingle" unicode="'" horiz-adv-x="180" 
d="M101 431h-20.999c-21.333 112.667 -32 180.667 -32 204c0 11.333 4.16699 21 12.5 29s18.5 12 30.5 12c11.333 0 21.166 -4 29.499 -12s12.5 -17.333 12.5 -28c0 -30.667 -8.33301 -85.667 -25 -165z" />
    <glyph glyph-name="parenleft" unicode="(" horiz-adv-x="333" 
d="M292 -177c-17.333 10.667 -35.334 23.502 -54.001 38.502s-39.834 35.833 -63.501 62.5s-44.5 55.167 -62.5 85.5s-33.167 66.833 -45.5 109.5s-18.5 87 -18.5 133c0 48 6.16699 93.5 18.5 136.5s26.833 78.667 43.5 107s37.834 55.666 63.501 81.999
s46.834 45.833 63.501 58.5s36 26 58 40l9 -16c-29.333 -24 -53 -45.667 -71 -65s-35.333 -44.5 -52 -75.5s-28.667 -68 -36 -111s-11 -94.167 -11 -153.5c0 -62 3.66699 -115.333 11 -160s19.333 -82.834 36 -114.501s34 -57.5 52 -77.5s41.667 -41.333 71 -64z" />
    <glyph glyph-name="parenright" unicode=")" horiz-adv-x="333" 
d="M41 676c17.333 -10.667 35.334 -23.501 54.001 -38.501s39.834 -35.833 63.501 -62.5s44.5 -55.167 62.5 -85.5s33.167 -66.833 45.5 -109.5s18.5 -87 18.5 -133c0 -48 -6.16699 -93.5 -18.5 -136.5s-26.833 -78.667 -43.5 -107s-37.834 -55.666 -63.501 -81.999
s-46.834 -45.833 -63.501 -58.5s-36 -26 -58 -40l-9 16c29.333 23.333 53 45 71 65s35.333 45.5 52 76.5s28.667 68 36 111s11 93.833 11 152.5c0 80.667 -7.33301 148 -22 202s-33 95.333 -55 124s-53 58.667 -93 90z" />
    <glyph glyph-name="asterisk" unicode="*" horiz-adv-x="500" 
d="M214 302c0 9.33301 4.66309 27.667 13.9961 55s14 49.666 14 66.999v8l-1 17v7c-25.333 -16 -46.166 -31.5 -62.499 -46.5s-26.5 -26.333 -30.5 -34s-9.33301 -13.667 -16 -18s-15.667 -6.5 -27 -6.5c-24 0 -36 11.667 -36 35c0 16 6.16699 26.5 18.5 31.5
s33.333 11.167 63 18.5s57.5 19 83.5 35l-11 7c-14.667 10 -35.667 18 -63 24s-49.333 12.333 -66 19s-25 18 -25 34c0 10 3.33301 18.5 10 25.5s14.667 10.5 24 10.5c13.333 0 23.833 -4.33301 31.5 -13l37 -40.5c17 -18.333 40.167 -35.5 69.5 -51.5v13
c0 22.667 -4.16699 50 -12.5 82s-12.5 52 -12.5 60c0 10 3.33301 18.333 10 25s15 10 25 10s18.5 -3.5 25.5 -10.5s10.5 -15.833 10.5 -26.5c0 -8.66699 -4.5 -27.5 -13.5 -56.5s-13.5 -53.167 -13.5 -72.5v-26c18.667 10.667 37.334 25.334 56.001 44.001l47 46.5
c12.667 12.333 23.334 18.5 32.001 18.5c10.667 0 19.334 -3.66699 26.001 -11s10 -16.666 10 -27.999c0 -12 -3.83301 -21 -11.5 -27s-17.667 -10 -30 -12s-30 -6.83301 -53 -14.5s-45.833 -17.834 -68.5 -30.501c20 -12.667 41.333 -22.334 64 -29.001
s40.5 -10.834 53.5 -12.501s24 -5.66699 33 -12s13.5 -16.166 13.5 -29.499c0 -11.333 -3.16699 -20.333 -9.5 -27s-14.833 -10 -25.5 -10c-13.333 0 -26.166 6.5 -38.499 19.5l-43.5 47c-16.667 18.333 -35 31.5 -55 39.5v-7c0 -33.333 4.66699 -64.666 14 -93.999
s14 -46 14 -50c0 -10.667 -3.83301 -20 -11.5 -28s-16.834 -12 -27.501 -12c-9.33301 0 -17.5 3.66699 -24.5 11s-10.5 16 -10.5 26z" />
    <glyph glyph-name="plus" unicode="+" horiz-adv-x="564" 
d="M249 286v220h66v-220h219v-66h-219v-220h-66v220h-219v66h219z" />
    <glyph glyph-name="comma" unicode="," horiz-adv-x="250" 
d="M142 -2l-8 -2c-6 -1.33301 -12.333 -2 -19 -2c-18 0 -32.333 4.5 -43 13.5s-16 21.5 -16 37.5c0 16.667 5.5 30.334 16.5 41.001s25.167 16 42.5 16c22.667 0 41.667 -8.5 57 -25.5s23 -38.167 23 -63.5c0 -30 -10.333 -59 -31 -87s-47.667 -50.333 -81 -67l-9 19
c54.667 37.333 82 72.666 82 105.999c0 9.33301 -4.66699 14 -14 14z" />
    <glyph glyph-name="hyphen" unicode="-" horiz-adv-x="333" 
d="M39 257h246v-63h-246v63z" />
    <glyph glyph-name="period" unicode="." horiz-adv-x="250" 
d="M125 100c15.333 0 28.5 -5.66699 39.5 -17s16.5 -24.666 16.5 -39.999c0 -14.667 -5.66699 -27.334 -17 -38.001s-24.666 -16 -39.999 -16c-14.667 0 -27.334 5.33301 -38.001 16s-16 23.334 -16 38.001c0 15.333 5.5 28.666 16.5 39.999s23.833 17 38.5 17z" />
    <glyph glyph-name="slash" unicode="/" horiz-adv-x="278" 
d="M287 676l-228 -690h-68l229 690h67z" />
    <glyph glyph-name="zero" unicode="0" horiz-adv-x="500" 
d="M250 -14c-34.667 0 -65.668 8 -93.001 24s-49 36.333 -65 61s-29.333 53.167 -40 85.5s-18 63.166 -22 92.499s-6 58.333 -6 87c0 58.667 8.83301 114.334 26.5 167.001s40.834 93 69.501 121c36.667 34.667 81.334 52 134.001 52c65.333 0 118.666 -32 159.999 -96
s62 -147.333 62 -250c0 -101.333 -20.667 -184 -62 -248s-96 -96 -164 -96zM250.999 650c-87.333 0 -131 -107.667 -131 -323c0 -210 43.333 -315 130 -315s130 105.333 130 316c0 104.667 -11 184.5 -33 239.5s-54 82.5 -96 82.5z" />
    <glyph glyph-name="one" unicode="1" horiz-adv-x="500" 
d="M183 593c-12 0 -36 -7.33301 -72 -22v14l180 91l8 -2v-600c0 -24 6 -39.667 18 -47s37.667 -11.333 77 -12v-15h-276v15c37.333 1.33301 62.5 6.83301 75.5 16.5s19.5 30.167 19.5 61.5v453c0 31.333 -10 47 -30 47z" />
    <glyph glyph-name="two" unicode="2" horiz-adv-x="500" 
d="M31 477c3.33301 15.333 6.66699 28.666 10 39.999s10.5 27.833 21.5 49.5s23.333 39.667 37 54s32.667 27.166 57 38.499s51.833 17 82.5 17c52 0 95.833 -17 131.5 -51s53.5 -76 53.5 -126c0 -75.333 -42.667 -157.666 -128 -246.999l-168 -176h239
c22.667 0 39.5 3.83301 50.5 11.5s25.833 25.834 44.5 54.501l13 -5l-55 -137h-390v12l178 189c86.667 92 130 178.667 130 260c0 42 -13 76 -39 102s-60 39 -102 39c-34.667 0 -62.5 -9.5 -83.5 -28.5s-41.5 -52.833 -61.5 -101.5z" />
    <glyph glyph-name="three" unicode="3" horiz-adv-x="500" 
d="M81 78c15.333 0 38.165 -9.33008 68.498 -27.9971s56.833 -28 79.5 -28c36.667 0 67.667 14.333 93 43s38 64 38 106c0 34.667 -9 65.167 -27 91.5s-42.667 45.166 -74 56.499c-19.333 7.33301 -54.666 11 -105.999 11v13c22.667 8 42.167 15.833 58.5 23.5
s33.5 18 51.5 31s31.833 28.833 41.5 47.5s14.5 40 14.5 64c0 31.333 -10.167 57 -30.5 77s-46.833 30 -79.5 30c-31.333 0 -58.833 -8.5 -82.5 -25.5s-45.834 -43.833 -66.501 -80.5l-15 4c17.333 47.333 40.833 86.166 70.5 116.499s71.834 45.5 126.501 45.5
c46 0 83.5 -12.667 112.5 -38s43.5 -58.333 43.5 -99c0 -27.333 -7 -51.333 -21 -72s-38.333 -42.667 -73 -66c40 -17.333 71.333 -39.5 94 -66.5s34 -65.5 34 -115.5c0 -70.667 -26.167 -127.167 -78.5 -169.5s-118.166 -63.5 -197.499 -63.5
c-34.667 0 -62.167 5.16699 -82.5 15.5s-30.5 24.166 -30.5 41.499c0 10.667 3.5 19.167 10.5 25.5s16.167 9.5 27.5 9.5z" />
    <glyph glyph-name="four" unicode="4" horiz-adv-x="500" 
d="M472 231v-64h-102v-167h-77v167h-281v64l314 445h44v-445h102zM292 231v343l-240 -343h240z" />
    <glyph glyph-name="five" unicode="5" horiz-adv-x="500" 
d="M357 194c0 35.333 -7.83203 66.668 -23.499 94.001s-34.667 48.5 -57 63.5s-47.333 27.333 -75 37s-51.667 16 -72 19s-38.166 4.5 -53.499 4.5c-8 0 -12 2.66699 -12 8c0 2 0.333008 3.66699 1 5l109 237h209c10.667 0 19.167 1.66699 25.5 5s13.166 10.333 20.499 21
l9 -7l-38 -89c-2.66699 -6 -10.334 -9 -23.001 -9h-196l-42 -85c97.333 -17.333 169.666 -45.5 216.999 -84.5s71 -96.167 71 -171.5c0 -39.333 -6.16699 -74.333 -18.5 -105s-28 -55.334 -47 -74.001s-41 -34 -66 -46s-49 -20.167 -72 -24.5s-46.167 -6.5 -69.5 -6.5
c-37.333 0 -67 5.5 -89 16.5s-33 26.167 -33 45.5c0 24.667 14.333 37 43 37c18.667 0 42.834 -10.333 72.501 -31s53.167 -31 70.5 -31c39.333 0 72.333 16.5 99 49.5s40 73.5 40 121.5z" />
    <glyph glyph-name="six" unicode="6" horiz-adv-x="500" 
d="M258 -14c-67.333 0 -121.499 26.832 -162.499 80.499s-61.5 124.5 -61.5 212.5c0 137.333 55.667 245.666 167 324.999c36.667 25.333 72.5 43.833 107.5 55.5s80.833 19.834 137.5 24.501l2 -16c-78.667 -12.667 -144.334 -44.5 -197.001 -95.5
s-85.667 -114.167 -99 -189.5c31.333 18.667 55 30.834 71 36.501s35 8.5 57 8.5c57.333 0 103 -18.833 137 -56.5s51 -88.5 51 -152.5c0 -68.667 -19.5 -124.667 -58.5 -168s-89.5 -65 -151.5 -65zM242.001 381.999c-45.333 0 -75.833 -10.002 -91.5 -30.002
s-23.5 -49.667 -23.5 -89c0 -77.333 12.667 -138.166 38 -182.499s60 -66.5 104 -66.5c35.333 0 62.333 14.833 81 44.5s28 71.834 28 126.501c0 62.667 -11.833 111.167 -35.5 145.5s-57.167 51.5 -100.5 51.5z" />
    <glyph glyph-name="seven" unicode="7" horiz-adv-x="500" 
d="M449 662l-0.00195312 -16l-212 -654h-65l198 596h-217c-27.333 0 -48.166 -5 -62.499 -15s-32.166 -32 -53.499 -66l-17 8l59 147h370z" />
    <glyph glyph-name="eight" unicode="8" horiz-adv-x="500" 
d="M290 371c60 -44.667 100.834 -82.1689 122.501 -112.502s32.5 -64.833 32.5 -103.5c0 -51.333 -17.833 -92.333 -53.5 -123s-83.5 -46 -143.5 -46c-56.667 0 -102.834 15.333 -138.501 46s-53.5 70.334 -53.5 119.001c0 34 8.16699 62.5 24.5 85.5
s51.5 54.833 105.5 95.5c-52.667 46 -86.5 80.333 -101.5 103s-22.5 50.334 -22.5 83.001c0 45.333 18 83 54 113s81.333 45 136 45c50 0 91.167 -13.333 123.5 -40s48.5 -60.667 48.5 -102c0 -34 -10 -63 -30 -87s-54.667 -49.333 -104 -76zM272.001 267.998l-60 43.999
c-29.333 -23.333 -50 -46.666 -62 -69.999s-18 -51 -18 -83c0 -43.333 11.667 -78.333 35 -105s54 -40 92 -40c32.667 0 59.167 10.167 79.5 30.5s30.5 46.833 30.5 79.5c0 28 -7 52.5 -21 73.5s-39.333 44.5 -76 70.5zM261.001 388.997
c0.666992 0.666992 5.16602 3.83398 13.499 9.50098s14.333 10.167 18 13.5l17 15.5c7.66699 7 13.5 13.667 17.5 20s8.5 14 13.5 23s8.66699 19 11 30s3.5 22.5 3.5 34.5c0 34.667 -10 62.167 -30 82.5s-47 30.5 -81 30.5c-31.333 0 -57.166 -9.33301 -77.499 -28
s-30.5 -42.334 -30.5 -71.001c0 -28 9.66699 -54.333 29 -79s51.333 -51.667 96 -81z" />
    <glyph glyph-name="nine" unicode="9" horiz-adv-x="500" 
d="M59 -22l-3 20.0029c76 13.333 140.5 45.666 193.5 96.999s89.833 117.666 110.5 198.999c-49.333 -38 -99.333 -57 -150 -57c-54 0 -97.5 18.667 -130.5 56s-49.5 86.333 -49.5 147c0 67.333 19.833 123.5 59.5 168.5s89.167 67.5 148.5 67.5
c64.667 0 117.667 -26.333 159 -79s62 -120.334 62 -203.001c0 -67.333 -14.5 -130.5 -43.5 -189.5s-69.5 -107.5 -121.5 -145.5c-34 -24.667 -67.667 -42.667 -101 -54s-78 -20.333 -134 -27zM246 280.003c12.667 0 27.002 1.83398 43.002 5.50098s32.167 11.667 48.5 24
s24.5 27.5 24.5 45.5v39c0 169.333 -44 254 -132 254c-20.667 0 -38.334 -5.5 -53.001 -16.5s-25.834 -25.5 -33.501 -43.5s-13.167 -36.333 -16.5 -55s-5 -38.334 -5 -59.001c0 -59.333 11.167 -106.5 33.5 -141.5s52.5 -52.5 90.5 -52.5z" />
    <glyph glyph-name="colon" unicode=":" horiz-adv-x="278" 
d="M136 459c15.333 0 28.5 -5.66699 39.5 -17s16.5 -24.666 16.5 -39.999c0 -14.667 -5.66699 -27.334 -17 -38.001s-24.666 -16 -39.999 -16c-14.667 0 -27.334 5.33301 -38.001 16s-16 23.334 -16 38.001c0 15.333 5.5 28.666 16.5 39.999s23.833 17 38.5 17zM136 100
c15.333 0 28.5 -5.66699 39.5 -17s16.5 -24.666 16.5 -39.999c0 -14.667 -5.66699 -27.334 -17 -38.001s-24.666 -16 -39.999 -16c-14.667 0 -27.334 5.33301 -38.001 16s-16 23.334 -16 38.001c0 15.333 5.5 28.666 16.5 39.999s23.833 17 38.5 17z" />
    <glyph glyph-name="semicolon" unicode=";" horiz-adv-x="278" 
d="M166 -2l-8 -1.99902c-6 -1.33301 -12.333 -2 -19 -2c-18.667 0 -33.167 4.5 -43.5 13.5s-15.5 21.833 -15.5 38.5s5.5 30.167 16.5 40.5s25.167 15.5 42.5 15.5c22.667 0 41.667 -8.5 57 -25.5s23 -38.167 23 -63.5c0 -30 -10 -59 -30 -87s-47.333 -50.333 -82 -67l-9 19
c54.667 37.333 82 72.666 82 105.999c0 9.33301 -4.66699 14 -14 14zM136 459.001c15.333 0 28.5 -5.66699 39.5 -17s16.5 -24.666 16.5 -39.999c0 -14.667 -5.66699 -27.334 -17 -38.001s-24.666 -16 -39.999 -16c-14.667 0 -27.334 5.33301 -38.001 16
s-16 23.334 -16 38.001c0 15.333 5.5 28.666 16.5 39.999s23.833 17 38.5 17z" />
    <glyph glyph-name="less" unicode="&#x3c;" horiz-adv-x="564" 
d="M536 -10l-508 230v66l508 230v-72l-420 -191l420 -191v-72z" />
    <glyph glyph-name="equal" unicode="=" horiz-adv-x="564" 
d="M534 386v-66h-504v66h504zM534 186v-66h-504v66h504z" />
    <glyph glyph-name="greater" unicode="&#x3e;" horiz-adv-x="564" 
d="M28 -10v72l420 191l-420 191v72l508 -230v-66z" />
    <glyph glyph-name="question" unicode="?" horiz-adv-x="444" 
d="M230 676c50.667 0 93.999 -14.165 129.999 -42.498s54 -65.833 54 -112.5c0 -24 -5.66699 -48.5 -17 -73.5s-22.666 -45.333 -33.999 -61s-29.333 -38.5 -54 -68.5c-33.333 -42.667 -55 -94 -65 -154h-17c1.33301 51.333 11.333 98.666 30 141.999l28 64
c24.667 56.667 37 108.667 37 156c0 33.333 -10.5 61.666 -31.5 84.999s-46.5 35 -76.5 35c-24.667 0 -46.667 -6.33301 -66 -19s-29 -27 -29 -43c0 -6 6.33301 -17 19 -33s19 -29.667 19 -41c0 -12 -3.83301 -21.833 -11.5 -29.5s-17.5 -11.5 -29.5 -11.5
c-32 0 -48 20.667 -48 62s15.5 75.833 46.5 103.5s69.5 41.5 115.5 41.5zM236.999 99.002c14.667 0 27.333 -5.50098 38 -16.501s16 -23.833 16 -38.5c0 -15.333 -5.16699 -27.833 -15.5 -37.5s-23.5 -14.5 -39.5 -14.5c-14.667 0 -27 4.83301 -37 14.5
s-15 21.834 -15 36.501c0 16 5 29.333 15 40s22.667 16 38 16z" />
    <glyph glyph-name="at" unicode="@" horiz-adv-x="921" 
d="M482 645c-84 0 -152.001 -31.166 -204.001 -93.499s-78 -138.5 -78 -228.5c0 -86.667 27.333 -158 82 -214s124.667 -84 210 -84c59.333 0 124.666 16 195.999 48l12 -30c-48.667 -22 -88.167 -37 -118.5 -45s-63.166 -12 -98.499 -12
c-103.333 0 -190.333 32.667 -261 98s-106 146 -106 242c0 97.333 35.5 180 106.5 248s157.167 102 258.5 102c92.667 0 170.5 -28.167 233.5 -84.5s94.5 -125.833 94.5 -208.5c0 -64.667 -18.333 -120.834 -55 -168.501s-79.667 -71.5 -129 -71.5
c-24 0 -44.5 6.66699 -61.5 20s-26.833 31 -29.5 53c-36 -48 -77.667 -72 -125 -72c-24.667 0 -45.5 10.833 -62.5 32.5s-25.5 48.167 -25.5 79.5c0 60 18.833 117 56.5 171s84.167 81 139.5 81c17.333 0 30.833 -3.5 40.5 -10.5s20.167 -20.833 31.5 -41.5l10 38h69
l-65 -254c-1.33301 -8 -2 -14 -2 -18c0 -30.667 13 -46 39 -46c32.667 0 62.334 20.333 89.001 61s40 86 40 136c0 74.667 -28.167 138.667 -84.5 192s-123.833 80 -202.5 80zM571.999 406.001c0 20.667 -4.33398 35.5 -13.001 44.5s-19 13.5 -31 13.5
c-27.333 0 -56.833 -18.5 -88.5 -55.5s-47.5 -82.5 -47.5 -136.5c0 -26 5.33301 -46.667 16 -62s25.334 -23 44.001 -23c32 0 60 25 84 75s36 98 36 144z" />
    <glyph glyph-name="A" unicode="A" horiz-adv-x="722" 
d="M706 19l-0.00195312 -19.0029h-255v19c26.667 0.666992 45 3.33398 55 8.00098s15 13.334 15 26.001c0 16 -6.33301 38.333 -19 67l-41 96h-262l-46 -117c-5.33301 -14 -8 -27 -8 -39c0 -27.333 22.667 -41 68 -41v-19h-198v19c24.667 1.33301 43.834 10.833 57.501 28.5
s35.834 62.834 66.501 135.501l208 491h20l249 -568c17.333 -37.333 31 -60.833 41 -70.5s26.333 -15.167 49 -16.5zM215.998 256.997h231l-116 275z" />
    <glyph glyph-name="B" unicode="B" horiz-adv-x="667" 
d="M593 180c0 -20 -3.66504 -39.665 -10.998 -58.998s-19.5 -38.5 -36.5 -57.5s-42.167 -34.333 -75.5 -46s-73 -17.5 -119 -17.5h-334v19c41.333 1.33301 67.666 7.33301 78.999 18s17 34.667 17 72v444c0 36.667 -5.5 60.167 -16.5 70.5s-37.5 16.833 -79.5 19.5v19h280
c174.667 0 262 -56.667 262 -170c0 -22 -4 -41.5 -12 -58.5s-16.167 -30 -24.5 -39s-21.166 -17.5 -38.499 -25.5s-28.333 -12.5 -33 -13.5s-14.334 -3.5 -29.001 -7.5l34.5 -9c7.66699 -2 21.667 -7.66699 42 -17s36.166 -19.333 47.499 -30s22 -25.834 32 -45.501
s15 -41.834 15 -66.501zM278.002 37.002c30 0 56 2.00098 78 6.00098s42.667 10.833 62 20.5s34.166 24.167 44.499 43.5s15.5 43.333 15.5 72c0 61.333 -28 103.666 -84 126.999c-32 13.333 -91.667 20 -179 20v-248c0 -16 4.33301 -26.833 13 -32.5
s25.334 -8.5 50.001 -8.5zM215.002 366.003h94.999c46.667 0 82.834 10.5 108.501 31.5s38.5 51.167 38.5 90.5c0 44.667 -15 78.667 -45 102s-73.667 35 -131 35h-44c-14.667 0 -22 -10 -22 -30v-229z" />
    <glyph glyph-name="C" unicode="C" horiz-adv-x="667" 
d="M28 325c0 104 32.001 188.501 96.001 253.501s143.667 97.5 239 97.5c42.667 0 82.667 -5.5 120 -16.5s59 -16.5 65 -16.5c22 0 36 11 42 33h21l9 -226h-23c-36.667 124 -108.334 186 -215.001 186c-72.667 0 -130.5 -27 -173.5 -81s-64.5 -126.333 -64.5 -217
c0 -58 7.5 -108.167 22.5 -150.5s35.167 -74.333 60.5 -96s51.5 -37.334 78.5 -47.001s55.833 -14.5 86.5 -14.5c78.667 0 153 33.667 223 101l18 -18c-30.667 -40.667 -69.667 -72 -117 -94s-99.333 -33 -156 -33c-98.667 0 -178.667 31 -240 93s-92 144 -92 246z" />
    <glyph glyph-name="D" unicode="D" horiz-adv-x="722" 
d="M685 334c0 -30 -3.33398 -59.3301 -10.001 -87.9971s-19 -58.334 -37 -89.001s-41 -57.167 -69 -79.5s-65.167 -40.833 -111.5 -55.5s-98.833 -22 -157.5 -22h-284v19c38 2.66699 62.167 9.33398 72.5 20.001s15.5 34 15.5 70v444c0 36.667 -4.83301 60 -14.5 70
s-34.167 16.667 -73.5 20v19h270c60.667 0 114.834 -6.83301 162.501 -20.5s86 -31.334 115 -53.001s53 -47.334 72 -77.001s32 -58.834 39 -87.501s10.5 -58.667 10.5 -90zM575.999 327.003c0 28.667 -2.83203 56.167 -8.49902 82.5s-15.834 53 -30.501 80
s-33.667 50.167 -57 69.5s-54 35.166 -92 47.499s-81.333 18.5 -130 18.5c-20.667 0 -34.5 -2.66699 -41.5 -8s-10.5 -15.666 -10.5 -30.999v-508c0 -16 3.66699 -26.833 11 -32.5s21 -8.5 41 -8.5c212 0 318 96.667 318 290z" />
    <glyph glyph-name="E" unicode="E" horiz-adv-x="611" 
d="M201 80c0 -19.333 5.49902 -31.333 16.499 -36s40.5 -7 88.5 -7h27c71.333 0 122.333 8.5 153 25.5s58.334 52.5 83.001 106.5h28l-45 -169h-540v19c36.667 2.66699 60.334 9.5 71.001 20.5s16 34.167 16 69.5v444c0 35.333 -5.33301 58.5 -16 69.5
s-34.334 17.833 -71.001 20.5v19h531l3 -143h-25c-8.66699 44.667 -22 73.334 -40 86.001s-55.333 19 -112 19h-135c-13.333 0 -22.166 -2.16699 -26.499 -6.5s-6.5 -13.5 -6.5 -27.5v-222h154c42.667 0 70.167 6.5 82.5 19.5s21.5 38.167 27.5 75.5h23v-232h-23
c-6.66699 41.333 -16.334 67.666 -29.001 78.999s-39.667 17 -81 17h-154v-247z" />
    <glyph glyph-name="F" unicode="F" horiz-adv-x="556" 
d="M479 231l-22.999 -0.00292969c-6 40.667 -15.667 66.834 -29 78.501s-40.333 17.5 -81 17.5h-145v-218c0 -36 5.5 -59.5 16.5 -70.5s35.833 -17.5 74.5 -19.5v-19h-280v19c38 2.66699 62 9.83398 72 21.501s15 38.167 15 79.5v433c0 35.333 -5.33301 58.5 -16 69.5
s-34.334 17.833 -71.001 20.5v19h531l3 -143h-25c-8.66699 44.667 -22 73.334 -40 86.001s-55.333 19 -112 19h-136c-13.333 0 -22 -2.16699 -26 -6.5s-6 -13.5 -6 -27.5v-222h145c40 0 66.833 5.83301 80.5 17.5s23.5 37.5 29.5 77.5h23v-232z" />
    <glyph glyph-name="G" unicode="G" horiz-adv-x="722" 
d="M392 636c-38 0 -71.668 -6.83105 -101.001 -20.498s-53 -31.167 -71 -52.5s-32.667 -46.333 -44 -75s-19.166 -56.167 -23.499 -82.5s-6.5 -52.833 -6.5 -79.5c0 -92.667 23.5 -165.834 70.5 -219.501s111.167 -80.5 192.5 -80.5c36 0 67.167 5.83301 93.5 17.5
s39.5 25.5 39.5 41.5v162c0 37.333 -5.16699 60.833 -15.5 70.5s-34.5 15.834 -72.5 18.501v18h255v-18c-29.333 -2.66699 -48.333 -8.83398 -57 -18.501s-13 -29.167 -13 -58.5v-203c-20 -17.333 -56.167 -33.333 -108.5 -48s-99.833 -22 -142.5 -22c-30 0 -60 3 -90 9
s-61.333 17 -94 33s-61.334 36.167 -86.001 60.5s-45.167 56.833 -61.5 97.5s-24.5 87 -24.5 139c0 102 32.167 186 96.5 252s146.5 99 246.5 99c38.667 0 76.834 -5.5 114.501 -16.5s59.5 -16.5 65.5 -16.5c10.667 0 20 3.16699 28 9.5s13.667 14.166 17 23.499h22l8 -211
h-23c-21.333 52 -48 93.5 -80 124.5s-77 46.5 -135 46.5z" />
    <glyph glyph-name="H" unicode="H" horiz-adv-x="722" 
d="M209 359h303v194c0 36 -5 59.167 -15 69.5s-34.333 17.166 -73 20.499v19h278v-19c-38.667 -3.33301 -63 -10.166 -73 -20.499s-15 -33.5 -15 -69.5v-444c0 -35.333 5.33301 -58.333 16 -69s34.667 -17.667 72 -21v-19h-278v19c38.667 2.66699 63 9.66699 73 21
s15 38 15 80v195h-303v-206c0 -35.333 5.33301 -58.333 16 -69s34.667 -17.667 72 -21v-19h-278v19c38.667 2.66699 63 9.66699 73 21s15 38 15 80v433c0 36 -5 59.167 -15 69.5s-34.333 17.166 -73 20.499v19h278v-19c-38.667 -3.33301 -63 -10.166 -73 -20.499
s-15 -33.5 -15 -69.5v-194z" />
    <glyph glyph-name="I" unicode="I" horiz-adv-x="333" 
d="M115 109v444.001c0 36.667 -5.5 60.167 -16.5 70.5s-37.833 16.833 -80.5 19.5v19h297v-19c-42 -2 -68.833 -8.33301 -80.5 -19s-17.5 -34.334 -17.5 -71.001v-444c0 -36.667 6 -60.5 18 -71.5s38.667 -17.167 80 -18.5v-19h-297v19c42 1.33301 68.667 7.33301 80 18
s17 34.667 17 72z" />
    <glyph glyph-name="J" unicode="J" horiz-adv-x="389" 
d="M59 108c14 0 25.001 -4.33008 33.001 -12.9971s13.333 -18.334 16 -29.001s6.33398 -20.334 11.001 -29.001s11 -13 19 -13c25.333 0 38 22 38 66v463c0 36.667 -5.33301 60.167 -16 70.5s-36.334 16.833 -77.001 19.5v19h287v-19
c-40.667 -2.66699 -66.167 -9.16699 -76.5 -19.5s-15.5 -33.833 -15.5 -70.5v-370c0 -62.667 -14.667 -111.167 -44 -145.5s-71 -51.5 -125 -51.5c-28.667 0 -52.334 6.66699 -71.001 20s-28 30.666 -28 51.999c0 13.333 4.83301 25 14.5 35s21.167 15 34.5 15z" />
    <glyph glyph-name="K" unicode="K" horiz-adv-x="722" 
d="M413 643v19.001h262v-19c-34.667 -2.66699 -60.5 -8.16699 -77.5 -16.5s-41.833 -28.833 -74.5 -61.5l-190 -188l233 -250c45.333 -48.667 76.333 -78.667 93 -90s38 -17.333 64 -18v-19h-305v19c8 0.666992 17.333 1 28 1c28 1.33301 42 8.66602 42 21.999
c0 12 -12.167 34 -36.5 66s-55.5 66.667 -93.5 104l-106 105l-26 -21v-187c0 -36.667 5.33301 -60.167 16 -70.5s35.334 -16.833 74.001 -19.5v-19h-282v19c39.333 2.66699 64.166 9.83398 74.499 21.501s15.5 38.167 15.5 79.5v433c0 35.333 -5.33301 58.5 -16 69.5
s-35.334 17.833 -74.001 20.5v19h284v-19c-40.667 -2.66699 -66.167 -9.16699 -76.5 -19.5s-15.5 -33.833 -15.5 -70.5v-205l177 161c52 48 78 82.333 78 103c0 10 -3.16699 17.167 -9.5 21.5s-17.166 7.16602 -32.499 8.49902c-9.33301 0 -18 0.333008 -26 1z" />
    <glyph glyph-name="L" unicode="L" horiz-adv-x="611" 
d="M354 39c17.333 0 33.498 1.00098 48.498 3.00098s28.167 4.16699 39.5 6.5s22.333 6.16602 33 11.499l26 13c6.66699 3.33301 13.5 8.83301 20.5 16.5s12.333 13.167 16 16.5s7.83398 9.5 12.501 18.5l9 17.5c1.33301 2.66699 4 8.5 8 17.5s6 13.833 6 14.5h25l-48 -174
h-538v19c36.667 2.66699 60.334 9.5 71.001 20.5s16 34.167 16 69.5v444c0 35.333 -5.33301 58.5 -16 69.5s-34.334 17.833 -71.001 20.5v19h282v-19c-39.333 -2.66699 -64.666 -9.5 -75.999 -20.5s-17 -34.167 -17 -69.5v-473c0 -17.333 5.16699 -28.5 15.5 -33.5
s33.833 -7.5 70.5 -7.5h67z" />
    <glyph glyph-name="M" unicode="M" horiz-adv-x="889" 
d="M674 573l-256.002 -573.002h-14l-251 550v-403c0 -50.667 6 -84.167 18 -100.5s37.333 -25.5 76 -27.5v-19h-235v19c41.333 2.66699 67.833 11.834 79.5 27.501s17.5 49.167 17.5 100.5v406c0 36.667 -5.5 60.167 -16.5 70.5s-37.167 16.833 -78.5 19.5v19h198l231 -505
l221 505h199v-19c-37.333 -3.33301 -61.166 -10.333 -71.499 -21s-15.5 -33.667 -15.5 -69v-444c0 -35.333 5.33301 -58.5 16 -69.5s34.334 -17.833 71.001 -20.5v-19h-280v19c39.333 2.66699 64.333 9.83398 75 21.501s16 38.167 16 79.5v453z" />
    <glyph glyph-name="N" unicode="N" horiz-adv-x="722" 
d="M707 643c-18.667 -2 -32.5 -4.16895 -41.5 -6.50195s-18.333 -7.5 -28 -15.5s-16.334 -20.5 -20.001 -37.5s-5.5 -39.833 -5.5 -68.5v-526h-17l-442 550v-392c0 -50.667 6 -84.167 18 -100.5s37.333 -25.5 76 -27.5v-19h-235v19
c41.333 2.66699 67.833 11.834 79.5 27.501s17.5 49.167 17.5 100.5v441c-20 23.333 -35.833 38.333 -47.5 45s-28.167 10 -49.5 10v19h171l385 -484v337c0 50.667 -6.16699 83.834 -18.5 99.501s-38.166 25.167 -77.499 28.5v19h235v-19z" />
    <glyph glyph-name="O" unicode="O" horiz-adv-x="722" 
d="M355 -14c-90 0 -165.998 31.8311 -227.998 95.498s-93 146.834 -93 249.501c0 100.667 30.667 183.334 92 248.001s139.666 97 234.999 97c96 0 174.5 -32.167 235.5 -96.5s91.5 -148.5 91.5 -252.5c0 -100.667 -30.833 -182.667 -92.5 -246s-141.834 -95 -240.501 -95z
M574.002 327.998c0 48 -4.67285 90.665 -14.0059 127.998s-21.166 67.333 -35.499 90s-31.166 41.334 -50.499 56.001s-38.166 24.667 -56.499 30s-37.166 8 -56.499 8c-32.667 0 -62 -7 -88 -21s-46.5 -31.5 -61.5 -52.5s-27.5 -45.833 -37.5 -74.5
s-16.833 -56.167 -20.5 -82.5s-5.5 -53.166 -5.5 -80.499c0 -34 3.33301 -67.333 10 -100s17.334 -65.334 32.001 -98.001s36.5 -59 65.5 -79s63.5 -30 103.5 -30c40.667 0 75.834 10 105.501 30s52 46.333 67 79s25.833 65.334 32.5 98.001s10 65.667 10 99z" />
    <glyph glyph-name="P" unicode="P" horiz-adv-x="556" 
d="M542 481c0 -17.333 -2.00293 -33.9971 -6.00293 -49.9971s-11.833 -33 -23.5 -51s-27.167 -33.5 -46.5 -46.5s-45.666 -23.833 -78.999 -32.5s-72 -13 -116 -13c-20 0 -43 1 -69 3v-182c0 -36.667 5.83301 -60.5 17.5 -71.5s37.167 -17.167 76.5 -18.5v-19h-280v19
c38 3.33301 61.5 10.5 70.5 21.5s13.5 37.5 13.5 79.5v433c0 36 -4.66699 59 -14 69s-32.666 17 -69.999 21v19h264c30 0 59 -2.83301 87 -8.5s55.833 -14.834 83.5 -27.501s49.834 -31.334 66.501 -56.001s25 -54.334 25 -89.001zM201.997 591.003v-259.999
c22.667 -2 41.667 -3 57 -3c116 0 174 49 174 147c0 51.333 -16 89.166 -48 113.499s-81.667 36.5 -149 36.5c-13.333 0 -22.333 -2.33301 -27 -7s-7 -13.667 -7 -27z" />
    <glyph glyph-name="Q" unicode="Q" horiz-adv-x="722" 
d="M688 331c0 -36.667 -3.99805 -70.998 -11.998 -102.998s-18.167 -58.833 -30.5 -80.5s-27 -41.5 -44 -59.5s-33.5 -32.333 -49.5 -43s-33 -20 -51 -28s-32.5 -13.5 -43.5 -16.5s-21.5 -5.5 -31.5 -7.5c40.667 -52.667 82.334 -90.834 125.001 -114.501
s92.667 -36.167 150 -37.5v-18h-6c-7.33301 -0.666992 -19 -1 -35 -1c-162 0 -278 40.667 -348 122l-47 55c-66.667 22.667 -121.834 60.667 -165.501 114s-65.5 125.333 -65.5 216c0 101.333 30.667 184.5 92 249.5s139.666 97.5 234.999 97.5s173.666 -32.333 234.999 -97
s92 -147.334 92 -248.001zM574.002 333.002c0 93.333 -19.1699 167.835 -57.5029 223.502s-89.166 83.5 -152.499 83.5c-33.333 0 -63 -6.83301 -89 -20.5s-46.667 -31 -62 -52s-28.166 -45.5 -38.499 -73.5s-17.333 -54.833 -21 -80.5s-5.5 -51.834 -5.5 -78.501
c0 -58.667 6.66699 -109.5 20 -152.5s31 -75.5 53 -97.5s44.5 -38 67.5 -48s47.167 -15 72.5 -15c32.667 0 61.834 6.83301 87.501 20.5s46.167 31.167 61.5 52.5s28 46.166 38 74.499s16.833 55.833 20.5 82.5s5.5 53.667 5.5 81z" />
    <glyph glyph-name="R" unicode="R" horiz-adv-x="667" 
d="M293 662c28.667 0 55.999 -2.3291 81.999 -6.99609s52.833 -12.834 80.5 -24.501s49.834 -29.834 66.501 -54.501s25 -54.667 25 -90c0 -88.667 -58.667 -144 -176 -166c-2 -0.666992 -3.66699 -1 -5 -1l206 -253c14 -16.667 27.167 -28.334 39.5 -35.001
s28.166 -10.667 47.499 -12v-19h-161l-238 308l-56 -2v-197c0 -36 5.33301 -59.333 16 -70s35.334 -17.334 74.001 -20.001v-19h-277v19c37.333 2.66699 60.833 9.83398 70.5 21.501s14.5 38.167 14.5 79.5v433c0 35.333 -4.83301 58.166 -14.5 68.499
s-33.167 17.5 -70.5 21.5v19h276zM203.999 343.004c80.667 1.33301 139.834 12 177.501 32s56.5 57.667 56.5 113c0 46.667 -14.833 81.167 -44.5 103.5s-75.834 33.5 -138.501 33.5c-20 0 -33.5 -2.5 -40.5 -7.5s-10.5 -14.5 -10.5 -28.5v-246z" />
    <glyph glyph-name="S" unicode="S" horiz-adv-x="556" 
d="M390 135c0 31.333 -11.0078 59.1641 -33.0078 83.4971s-48.667 45.166 -80 62.499l-93.5 53.5c-31 18.333 -57.5 41.833 -79.5 70.5s-33 62 -33 100c0 50.667 17.167 91.834 51.5 123.501s74.833 47.5 121.5 47.5c28 0 58.333 -5.66699 91 -17s52.334 -17 59.001 -17
c17.333 0 28 11.333 32 34h21l22 -213h-25c-16 58.667 -40.5 102 -73.5 130s-69.5 42 -109.5 42c-30.667 0 -55.667 -8.66699 -75 -26s-29 -39.666 -29 -66.999c0 -26.667 11.333 -52 34 -76s60.334 -50.667 113.001 -80c66 -35.333 113.667 -70.166 143 -104.499
s44 -72.166 44 -113.499c0 -51.333 -19.667 -94.5 -59 -129.5s-87.666 -52.5 -144.999 -52.5c-33.333 0 -67.166 5.66699 -101.499 17s-55.5 17 -63.5 17c-7.33301 0 -13.666 -3.16699 -18.999 -9.5s-8.33301 -14.166 -9 -23.499h-22l-30 212h23
c24.667 -60.667 53.334 -105.334 86.001 -134.001s71.334 -43 116.001 -43c36.667 0 66.334 10.5 89.001 31.5s34 48.167 34 81.5z" />
    <glyph glyph-name="T" unicode="T" horiz-adv-x="611" 
d="M254 620l-53.999 0.000976562c-56 0 -93.5 -7.66699 -112.5 -23s-34.5 -50.333 -46.5 -105h-24l6 170h564l6 -170h-24c-11.333 55.333 -26.5 90.5 -45.5 105.5s-56.833 22.5 -113.5 22.5h-54v-511c0 -36.667 5.66699 -60.334 17 -71.001s37.666 -17 78.999 -19v-19h-292
v19c41.333 2.66699 67.333 9.5 78 20.5s16 37.833 16 80.5v500z" />
    <glyph glyph-name="U" unicode="U" horiz-adv-x="722" 
d="M206 233c0 -66.667 12.499 -117.17 37.499 -151.503s69.833 -51.5 134.5 -51.5c37.333 0 71 7.16699 101 21.5s51.667 33.5 65 57.5c15.333 28.667 23 74 23 136v270c0 50 -6 83.167 -18 99.5s-37.333 25.833 -76 28.5v19h232v-19
c-41.333 -5.33301 -67.333 -15.333 -78 -30s-16 -47.334 -16 -98.001v-261c0 -39.333 -3.5 -73.666 -10.5 -102.999s-19.333 -57.166 -37 -83.499s-44 -46.5 -79 -60.5s-78.167 -21 -129.5 -21c-85.333 0 -148.5 20.833 -189.5 62.5s-61.5 105.834 -61.5 192.501v312
c0 36.667 -5.16699 60 -15.5 70s-35.166 16.667 -74.499 20v19h283v-19c-40 -3.33301 -65.167 -10.166 -75.5 -20.499s-15.5 -33.5 -15.5 -69.5v-320z" />
    <glyph glyph-name="V" unicode="V" horiz-adv-x="722" 
d="M697 662l0.000976562 -18.998c-24.667 -1.33301 -42.167 -7.33301 -52.5 -18s-23.5 -35.667 -39.5 -75l-222 -561h-15l-246 549c-19.333 44 -35.5 72.167 -48.5 84.5s-32.167 19.166 -57.5 20.499v19h266v-19c-18.667 -1.33301 -28.334 -2 -29.001 -2
c-30.667 -2 -46 -12.333 -46 -31c0 -13.333 13.667 -50.333 41 -111l151 -338l147 367c12.667 32 19 56.333 19 73c0 14 -5.33301 24.167 -16 30.5s-29.667 10.166 -57 11.499v19h205z" />
    <glyph glyph-name="W" unicode="W" horiz-adv-x="944" 
d="M932 662v-19.001c-26.667 -5.33301 -44.834 -12 -54.501 -20s-19.167 -25 -28.5 -51l-112 -306l-92 -277h-15l-160 423l-154 -423h-15l-193 537c-16.667 46.667 -31.5 77.167 -44.5 91.5s-32.5 22.833 -58.5 25.5v19h245v-19
c-25.333 -1.33301 -42.5 -4.16602 -51.5 -8.49902s-13.5 -12.166 -13.5 -23.499c0 -12 3.66699 -27.333 11 -46l144 -376l107 282l-33 82c-16 40 -29.667 64.833 -41 74.5s-31.333 14.834 -60 15.501v19h267v-19c-51.333 -0.666992 -77 -12.334 -77 -35.001
c0 -7.33301 9 -34.333 27 -81l132 -341l125 339c10.667 30 16 55 16 75c0 13.333 -5.16699 23.166 -15.5 29.499s-28.166 10.833 -53.499 13.5v19h198z" />
    <glyph glyph-name="X" unicode="X" horiz-adv-x="722" 
d="M696 662l0.000976562 -18.998c-32.667 -2 -57.834 -8.5 -75.501 -19.5s-42.167 -35.833 -73.5 -74.5l-146 -182l192 -274c20 -28.667 36.667 -47.334 50 -56.001s33.666 -14.667 60.999 -18v-19h-297v19c16 1.33301 25 2 27 2c33.333 0.666992 50 10.334 50 29.001
c0 14.667 -17 47.334 -51 98.001l-95 140l-119 -148c-34.667 -43.333 -52 -72 -52 -86c0 -11.333 5.33301 -19.5 16 -24.5s30.667 -8.5 60 -10.5v-19h-233v19c26 2 46 8.33301 60 19s42.333 42.334 85 95.001l157 193l-109 160c-46.667 68.667 -80.167 111.667 -100.5 129
s-47.166 26.666 -80.499 27.999v19h302v-19l-28 -1c-32 -0.666992 -48 -10.334 -48 -29.001c0 -21.333 28.333 -71.333 85 -150l42 -59l113 138c26.667 33.333 40 56.333 40 69c0 11.333 -4.83301 19.166 -14.5 23.499s-28.167 7.16602 -55.5 8.49902v19h238z" />
    <glyph glyph-name="Y" unicode="Y" horiz-adv-x="722" 
d="M703 662l-0.00292969 -19.001c-26 -2 -48.333 -10.5 -67 -25.5s-42.334 -44.5 -71.001 -88.5l-148 -226v-194c0 -38 6 -62.167 18 -72.5s40.333 -16.166 85 -17.499v-19h-306v19c45.333 2 73.5 8.5 84.5 19.5s16.5 38.167 16.5 81.5v174l-131 192
c-33.333 48.667 -58.666 83.5 -75.999 104.5s-31.666 34.833 -42.999 41.5s-25.666 10.334 -42.999 11.001v19h280v-19c-7.33301 -0.666992 -15.666 -1 -24.999 -1c-30.667 -2 -46 -11.667 -46 -29c0 -12.667 5.66699 -27.334 17 -44.001l148 -222l143 226
c9.33301 15.333 14 27.666 14 36.999c0 12 -5 20.333 -15 25s-28 7.33398 -54 8.00098v19h219z" />
    <glyph glyph-name="Z" unicode="Z" horiz-adv-x="611" 
d="M402 38c18.667 0 35.6699 1.66895 51.0029 5.00195s28.166 6.66602 38.499 9.99902s20 9.66602 29 18.999l20 21c4.33301 4.66699 9.16602 13.834 14.499 27.501s8.66602 22.5 9.99902 26.5s4.33301 13.667 9 29h23l-24 -176h-564v15l437 609h-221
c-34 0 -62 -3.33301 -84 -10s-38.5 -17.334 -49.5 -32.001s-18.5 -28 -22.5 -40s-8 -29 -12 -51h-26l20 171h526v-15l-432 -609h257z" />
    <glyph glyph-name="bracketleft" unicode="[" horiz-adv-x="333" 
d="M299 -131v-25h-211v818h211v-25h-90c-16 0 -27.5 -3.5 -34.5 -10.5s-10.5 -18.167 -10.5 -33.5v-672c0 -34.667 16.333 -52 49 -52h86z" />
    <glyph glyph-name="backslash" unicode="\" horiz-adv-x="278" 
d="M-9 676h67l229 -690h-68z" />
    <glyph glyph-name="bracketright" unicode="]" horiz-adv-x="333" 
d="M34 -131h90c30 0 45 14.667 45 44v672c0 34.667 -16.333 52 -49 52h-86v25h211v-818h-211v25z" />
    <glyph glyph-name="asciicircum" unicode="^" horiz-adv-x="469" 
d="M92 297h-68l181 365h60l181 -365h-68l-143 289z" />
    <glyph glyph-name="underscore" unicode="_" horiz-adv-x="500" 
d="M500 -125h-500v50h500v-50z" />
    <glyph glyph-name="grave" unicode="`" horiz-adv-x="333" 
d="M242 507h-40l-154 97c-19.333 12.667 -29 27 -29 43c0 20.667 11.333 31 34 31c12.667 0 26.667 -7.66699 42 -23z" />
    <glyph glyph-name="a" unicode="a" horiz-adv-x="444" 
d="M37 97c0 12 1.33496 23.165 4.00195 33.498s7.33398 20 14.001 29s13 17.167 19 24.5s15 14.833 27 22.5l30 19c8 5 20.167 11 36.5 18l37.5 16c8.66699 3.66699 22.334 9.16699 41.001 16.5l41 16v61c0 55.333 -25.333 83 -76 83c-20 0 -37 -4.83301 -51 -14.5
s-21 -21.167 -21 -34.5c0 -5.33301 0.833008 -12.666 2.5 -21.999s2.5 -15.333 2.5 -18c0 -11.333 -4.5 -21.166 -13.5 -29.499s-19.5 -12.5 -31.5 -12.5c-11.333 0 -21.333 4.33301 -30 13s-13 18.667 -13 30c0 31.333 16.167 57.833 48.5 79.5s72.166 32.5 119.499 32.5
c54.667 0 92.334 -13.167 113.001 -39.5s31 -66.5 31 -120.5v-195c0 -22 2.16699 -37.167 6.5 -45.5s12.166 -12.5 23.499 -12.5c14 0 28.667 6.33301 44 19v-26c-17.333 -19.333 -32.5 -32.5 -45.5 -39.5s-27.833 -10.5 -44.5 -10.5c-20.667 0 -35.834 5.66699 -45.501 17
s-15.834 30 -18.501 56c-57.333 -48.667 -106 -73 -146 -73c-30.667 0 -55.834 10 -75.501 30s-29.5 45.667 -29.5 77zM287.002 122.998l0.000976562 145c-60 -22 -102 -43.333 -126 -64s-36 -45.667 -36 -75v-4c0 -21.333 6.16699 -39.5 18.5 -54.5
s27.166 -22.5 44.499 -22.5c22.667 0 47 7.66699 73 23c10.667 6 17.667 12.333 21 19s5 17.667 5 33z" />
    <glyph glyph-name="b" unicode="b" horiz-adv-x="500" 
d="M153 681l-0.000976562 -306.001c10 24.667 28 45 54 61s54.333 24 85 24c50 0 91.833 -20.833 125.5 -62.5s50.5 -93.167 50.5 -154.5c0 -71.333 -22.5 -131.333 -67.5 -180s-100.5 -73 -166.5 -73c-40 0 -77.5 6.83301 -112.5 20.5s-52.5 28.167 -52.5 43.5v519
c0 20.667 -3.16699 34.334 -9.5 41.001s-19.5 10 -39.5 10c-7.33301 0 -13 -0.333008 -17 -1v16l29 8c44.667 12.667 83.334 24.667 116.001 36zM152.999 321.999v-252c0 -12.667 9.66699 -23.834 29 -33.501s42 -14.5 68 -14.5c41.333 0 73.333 15.333 96 46
s34 73.667 34 129c0 60.667 -11.5 109.167 -34.5 145.5s-54.167 54.5 -93.5 54.5c-26 0 -49 -7.66699 -69 -23s-30 -32.666 -30 -51.999z" />
    <glyph glyph-name="c" unicode="c" horiz-adv-x="444" 
d="M25 213c0 74 21.832 133.663 65.499 178.996s94.834 68 153.501 68c42 0 78.167 -10.167 108.5 -30.5s45.5 -44.5 45.5 -72.5c0 -11.333 -4.66699 -21.166 -14 -29.499s-20.666 -12.5 -33.999 -12.5c-22.667 0 -38.334 15.333 -47.001 46l-6 22
c-5.33301 18.667 -12 31.334 -20 38.001s-21 10 -39 10c-40.667 0 -73.5 -16.167 -98.5 -48.5s-37.5 -74.166 -37.5 -125.499c0 -57.333 14.5 -104.166 43.5 -140.499s66.167 -54.5 111.5 -54.5c28.667 0 53.334 7 74.001 21s43 38.333 67 73l14 -9
c-6.66699 -13.333 -12.5 -24.333 -17.5 -33s-14 -21.667 -27 -39s-25.833 -31.333 -38.5 -42s-29.334 -20.5 -50.001 -29.5s-42 -13.5 -64 -13.5c-55.333 0 -100.833 20.833 -136.5 62.5s-53.5 95.167 -53.5 160.5z" />
    <glyph glyph-name="d" unicode="d" horiz-adv-x="500" 
d="M344 -10l-4.00098 2.99707v64c-32 -44.667 -74.667 -67 -128 -67c-55.333 0 -100 19.833 -134 59.5s-51 91.5 -51 155.5c0 70.667 20.333 130.834 61 180.501s89.667 74.5 147 74.5c36 0 71 -14.333 105 -43v156c0 20.667 -3 34.334 -9 41.001s-18.333 10 -37 10
c-9.33301 0 -16.666 -0.333008 -21.999 -1v16c60.667 16 109.667 30.667 147 44l5 -2v-567c0 -23.333 2.83301 -38.666 8.5 -45.999s17.5 -11 35.5 -11c3.33301 0 11 0.333008 23 1v-16zM250.999 41.9971c25.333 0 46.502 7.16797 63.502 21.501s25.5 27.166 25.5 38.499
v230c0 26.667 -10.333 50 -31 70s-44.334 30 -71.001 30c-38 0 -68.333 -17 -91 -51s-34 -79.333 -34 -136c0 -61.333 12.667 -110.5 38 -147.5s58.666 -55.5 99.999 -55.5z" />
    <glyph glyph-name="e" unicode="e" horiz-adv-x="444" 
d="M97 277c1.33301 -42 7.00098 -78.168 17.001 -108.501s23 -53 39 -68s32.167 -25.667 48.5 -32s33.5 -9.5 51.5 -9.5c32 0 59.833 8 83.5 24s47.5 43 71.5 81l16 -7c-20.667 -54 -49.334 -95.333 -86.001 -124s-78.667 -43 -126 -43
c-57.333 0 -102.833 20.167 -136.5 60.5s-50.5 94.833 -50.5 163.5c0 74 19.5 133.5 58.5 178.5s89.167 67.5 150.5 67.5c50.667 0 90 -15.167 118 -45.5s45.667 -76.166 53 -137.499h-308zM99.001 308.999h204c-6.66699 43.333 -17 73.333 -31 90s-36.333 25 -67 25
c-60 0 -95.333 -38.333 -106 -115z" />
    <glyph glyph-name="f" unicode="f" horiz-adv-x="333" 
d="M341 580c-10.667 0 -19.8359 3.8291 -27.5029 11.4961s-13.667 16.334 -18 26.001s-11 18.334 -20 26.001s-19.833 11.5 -32.5 11.5c-38 0 -57 -29.667 -57 -89v-116h123v-32h-122v-314c0 -37.333 5.33301 -61.166 16 -71.499s36.334 -16.166 77.001 -17.499v-15h-260v15
c36 2 58.833 8.16699 68.5 18.5s14.5 33.833 14.5 70.5v314h-82v32h82c1.33301 74.667 15.333 132.167 42 172.5s71.334 60.5 134.001 60.5c30 0 54.833 -5.83301 74.5 -17.5s29.5 -26.5 29.5 -44.5c0 -11.333 -4.16699 -21 -12.5 -29s-18.166 -12 -29.499 -12z" />
    <glyph glyph-name="g" unicode="g" horiz-adv-x="500" 
d="M73 54c0 12.667 4.49902 24.3291 13.499 34.9961s34.167 35.334 75.5 74.001c-33.333 16.667 -57.166 35.334 -71.499 56.001s-21.5 46.667 -21.5 78c0 45.333 16.167 83.833 48.5 115.5s71.833 47.5 118.5 47.5c26.667 0 53.334 -5 80.001 -15l22 -8
c19.333 -6.66699 37.666 -10 54.999 -10h77v-39h-83c12.667 -28.667 19 -56.667 19 -84c0 -46 -15.5 -83.333 -46.5 -112s-67.5 -43 -109.5 -43c-6.66699 0 -19.334 1 -38.001 3c-0.666992 0 -7 0.666992 -19 2c-13.333 -4 -26.666 -13 -39.999 -27s-20 -26 -20 -36
c0 -16 26 -25 78 -27l129 -6c36.667 -1.33301 66 -11.666 88 -30.999s33 -44.666 33 -75.999c0 -37.333 -18.333 -71 -55 -101c-56 -45.333 -124.333 -68 -205 -68c-47.333 0 -88 9.5 -122 28.5s-51 41.833 -51 68.5c0 18.667 7.5 37.167 22.5 55.5s40.167 40.5 75.5 66.5
c-20.667 10 -34.667 18.667 -42 26s-11 16.333 -11 27zM146.999 -2.00488c-20.667 -24.667 -34.001 -42.333 -40.001 -53s-9 -21.667 -9 -33c0 -22 13.333 -39.667 40 -53s62 -20 106 -20c56.667 0 102.334 9 137.001 27s52 41.333 52 70c0 18 -9.33301 30.667 -28 38
s-50.667 11 -96 11c-67.333 0 -121.333 4.33301 -162 13zM328.998 264.996c0 11.333 -1.3291 25 -3.99609 41s-7.33398 34.167 -14.001 54.5s-17.334 37.333 -32.001 51s-32.334 20.5 -53.001 20.5c-23.333 0 -41.5 -8.33301 -54.5 -25s-19.5 -39.667 -19.5 -69v-3
c0 -48 9.5 -86.833 28.5 -116.5s43.5 -44.5 73.5 -44.5c23.333 0 41.666 8.16699 54.999 24.5s20 38.5 20 66.5z" />
    <glyph glyph-name="h" unicode="h" horiz-adv-x="500" 
d="M157 343l0.000976562 -240.998c0 -34.667 4 -57 12 -67s26.667 -16.667 56 -20v-15h-216v15c28.667 4 46.5 10.667 53.5 20s10.5 31.666 10.5 66.999v471c0 21.333 -3.16699 35.166 -9.5 41.499s-20.166 9.5 -41.499 9.5c-5.33301 0 -9.33301 -0.333008 -12 -1v16l27 8
c45.333 12.667 83.666 24.667 114.999 36l5 -3v-304c23.333 30 46.333 51.5 69 64.5s48.667 19.5 78 19.5c82 0 123 -53 123 -159v-199c0 -34.667 3.16699 -56.5 9.5 -65.5s23.166 -16.167 50.499 -21.5v-15h-212v15c28.667 2.66699 47.167 9.33398 55.5 20.001
s12.5 33 12.5 67v198c0 70.667 -25 106 -75 106c-19.333 0 -37.5 -4.83301 -54.5 -14.5s-35.833 -25.834 -56.5 -48.501z" />
    <glyph glyph-name="i" unicode="i" horiz-adv-x="278" 
d="M62 394c-8 0 -22 -1.33203 -42 -3.99902v15l155 55l4 -3v-355c0 -36 4.16699 -58.833 12.5 -68.5s28.833 -15.834 61.5 -18.501v-15h-237v15c34.667 2 56.5 8 65.5 18s13.5 33 13.5 69v232c0 22 -2.5 37.5 -7.5 46.5s-13.5 13.5 -25.5 13.5zM128 683.001
c14.667 0 27 -4.99902 37 -14.999s15 -22 15 -36c0 -14.667 -5 -26.834 -15 -36.501s-22.333 -14.5 -37 -14.5c-14 0 -25.833 5 -35.5 15s-14.5 22 -14.5 36s5 26 15 36s21.667 15 35 15z" />
    <glyph glyph-name="j" unicode="j" horiz-adv-x="278" 
d="M77 394l-45.001 -4.00098v16c53.333 16.667 105.333 34.667 156 54l5 -3v-457c0 -70.667 -14.333 -124.667 -43 -162s-70.667 -56 -126 -56c-27.333 0 -49.833 5.16699 -67.5 15.5s-26.5 23.5 -26.5 39.5c0 10.667 4 19.834 12 27.501s17.667 11.5 29 11.5
c14 0 29.333 -10 46 -30s31.334 -30 44.001 -30c20 0 33 10.333 39 31s9 56.667 9 108v379c0 40 -10.667 60 -32 60zM141.999 682.999c14.667 0 27 -4.99902 37 -14.999s15 -22 15 -36c0 -14.667 -5 -26.834 -15 -36.501s-22.333 -14.5 -37 -14.5c-14 0 -25.833 5 -35.5 15
s-14.5 22 -14.5 36s5 26 15 36s21.667 15 35 15z" />
    <glyph glyph-name="k" unicode="k" horiz-adv-x="500" 
d="M7 623l-0.00292969 15.998l30 8c58 16 99.667 28 125 36l4 -2v-420l137 122c15.333 13.333 23 24.666 23 33.999c0 6.66699 -3.5 11.334 -10.5 14.001s-20.167 4.33398 -39.5 5.00098v14h204v-15h-8c-17.333 0 -32.166 -1.83301 -44.499 -5.5s-32.333 -15 -60 -34
s-62.167 -47.833 -103.5 -86.5l-29 -27l153 -194c20.667 -25.333 39.834 -43.5 57.501 -54.5s37.5 -17.167 59.5 -18.5v-15h-218v15h19c14 0 21 5 21 15c0 2.66699 -1 5.83398 -3 9.50098s-5.16699 8 -9.5 13s-7.16602 8.83301 -8.49902 11.5l-140 187v-184
c0 -17.333 4.16699 -30 12.5 -38s22.5 -12.333 42.5 -13l20 -1v-15h-234v15c36 6 57.5 12.167 64.5 18.5s10.5 22.5 10.5 48.5v482c0 24 -3 40.167 -9 48.5s-17.333 12.5 -34 12.5c-4 0 -14.667 -0.666992 -32 -2z" />
    <glyph glyph-name="l" unicode="l" horiz-adv-x="278" 
d="M19 623v15.999c66 16 119 30.667 159 44l4 -2v-597c0 -27.333 4.5 -45.166 13.5 -53.499s29.5 -13.5 61.5 -15.5v-15h-236v15c31.333 2.66699 52 8.66699 62 18s15 27.333 15 54v477c0 23.333 -3 39.333 -9 48s-17 13 -33 13c-6 0 -16.333 -0.666992 -31 -2h-6z" />
    <glyph glyph-name="m" unicode="m" horiz-adv-x="778" 
d="M19 398v17.002c48 13.333 94.667 28.333 140 45l7 -2v-75c41.333 31.333 72 52 92 62s41 15 63 15c52.667 0 88 -28 106 -84c52 56 106.333 84 163 84c77.333 0 116 -59.333 116 -178v-206c0 -37.333 14.333 -57 43 -59l26 -2v-15h-219v15
c29.333 3.33301 47.666 9 54.999 17s11 26.333 11 55v211c0 41.333 -5.33301 70 -16 86s-30.334 24 -59.001 24c-44 0 -80.333 -20.333 -109 -61v-252c0 -31.333 4.83301 -52.333 14.5 -63s28.834 -16.334 57.501 -17.001v-15h-224v15c28.667 2 47.167 7.33301 55.5 16
s12.5 27 12.5 55v217c0 70 -22 105 -66 105c-17.333 0 -35.666 -3.83301 -54.999 -11.5s-35.333 -17.167 -48 -28.5c-10 -10 -15 -16.333 -15 -19v-282c0 -19.333 4.66699 -32.5 14 -39.5s27.333 -11.167 54 -12.5v-15h-222v15c28 0.666992 46.667 5.66699 56 15
s14 27.666 14 54.999v253c0 24 -2.5 40.667 -7.5 50s-14.167 14 -27.5 14c-10 0 -20.667 -1.33301 -32 -4z" />
    <glyph glyph-name="n" unicode="n" horiz-adv-x="500" 
d="M16 398l0.00195312 17c49.333 14.667 95.333 29.667 138 45l7 -2v-79c34 32 60.833 53.5 80.5 64.5s41.167 16.5 64.5 16.5c36.667 0 65.5 -13.167 86.5 -39.5s31.5 -63.166 31.5 -110.499v-229c0 -24.667 4 -41.167 12 -49.5s24.333 -13.833 49 -16.5v-15h-208v15
c25.333 2 42.166 8.66699 50.499 20s12.5 32.666 12.5 63.999v209c0 64.667 -24.333 97 -73 97c-16.667 0 -32 -3.83301 -46 -11.5s-33 -22.834 -57 -45.501v-281c0 -18 4.66699 -30.667 14 -38s26.666 -12 51.999 -14v-15h-212v15c25.333 2 42 7.83301 50 17.5
s12 28.834 12 57.501v248c0 24.667 -2.66699 41.5 -8 50.5s-15 13.5 -29 13.5c-12.667 0 -21.667 -1.33301 -27 -4z" />
    <glyph glyph-name="o" unicode="o" horiz-adv-x="500" 
d="M250 460c64 0 116.669 -21.334 158.002 -64.001s62 -96.667 62 -162c0 -69.333 -21.333 -127.333 -64 -174s-95.334 -70 -158.001 -70s-114.834 22.5 -156.501 67.5s-62.5 101.167 -62.5 168.5c0 68.667 20.5 124.834 61.5 168.501s94.167 65.5 159.5 65.5z
M119.002 274.999c0 -71.333 13.001 -132 39.001 -182s60 -75 102 -75c37.333 0 66.666 16 87.999 48s32 76.333 32 133c0 68.667 -13.333 124.667 -40 168s-61 65 -103 65c-35.333 0 -63.833 -14.333 -85.5 -43s-32.5 -66.667 -32.5 -114z" />
    <glyph glyph-name="p" unicode="p" horiz-adv-x="500" 
d="M9 393l-0.00292969 16c42 12.667 90 29.667 144 51l6 -2v-77c42.667 52.667 90.667 79 144 79c48.667 0 88.667 -20 120 -60s47 -91 47 -153c0 -72.667 -20.167 -133.667 -60.5 -183s-90.166 -74 -149.499 -74c-21.333 0 -39.166 3 -53.499 9s-30.166 17.333 -47.499 34
v-157c0 -31.333 5.33301 -51.5 16 -60.5s34.667 -13.833 72 -14.5v-18h-242v17c29.333 2.66699 48.333 8.33398 57 17.001s13 26 13 52v468c0 23.333 -2.66699 38.666 -8 45.999s-16.333 11 -33 11c-10.667 0 -19 -0.333008 -25 -1zM158.997 334l-0.00195312 -245.997
c0 -14.667 11.5 -29.334 34.5 -44.001s46.167 -22 69.5 -22c36 0 65.167 17.167 87.5 51.5s33.5 79.166 33.5 134.499c0 58 -11.167 104.5 -33.5 139.5s-52.166 52.5 -89.499 52.5c-23.333 0 -46.166 -7.33301 -68.499 -22s-33.5 -29.334 -33.5 -44.001z" />
    <glyph glyph-name="q" unicode="q" horiz-adv-x="500" 
d="M360 425l54 32h11v-598c0 -21.333 3.66699 -35.5 11 -42.5s24.666 -13.5 51.999 -19.5v-14h-236v17c35.333 2.66699 59 9 71 19s18 29 18 57v188c-45.333 -49.333 -97.666 -74 -156.999 -74c-46.667 0 -85 20 -115 60s-45 91.667 -45 155c0 72 21.167 132.667 63.5 182
s94.833 74 157.5 74c36 0 74.333 -12 115 -36zM110 241c0 -28.667 3.33203 -56.334 9.99902 -83.001s20.334 -51.167 41.001 -73.5s47.334 -33.5 80.001 -33.5c33.333 0 62 10.333 86 31c9.33301 7.33301 14 22.333 14 45v206c0 66.667 -31 100 -93 100
c-42.667 0 -76.334 -17.167 -101.001 -51.5s-37 -81.166 -37 -140.499z" />
    <glyph glyph-name="r" unicode="r" horiz-adv-x="333" 
d="M296 362c-10 0 -22.3301 5.83398 -36.9971 17.501s-24.334 17.5 -29.001 17.5c-13.333 0 -28.333 -9.66699 -45 -29s-25 -37 -25 -53v-225c0 -28.667 5.66699 -48 17 -58s34 -15.667 68 -17v-15h-240v15c32 6 51.833 12.667 59.5 20s11.5 23.666 11.5 48.999v250
c0 22 -2.5 37.5 -7.5 46.5s-13.833 13.5 -26.5 13.5c-10.667 0 -22.334 -1.33301 -35.001 -4v16c53.333 17.333 102.666 35.333 147.999 54l5 -2v-92c24.667 35.333 45.667 59.833 63 73.5s36.333 20.5 57 20.5c17.333 0 30.833 -4.66699 40.5 -14s14.5 -22.333 14.5 -39
c0 -14 -3.5 -25 -10.5 -33s-16.5 -12 -28.5 -12z" />
    <glyph glyph-name="s" unicode="s" horiz-adv-x="389" 
d="M284 440c0.666992 0 6.00195 3.33301 16.002 10h11l4 -136h-15c-11.333 44.667 -25.333 76.334 -42 95.001s-39.334 28 -68.001 28c-22.667 0 -41.167 -6.33301 -55.5 -19s-21.5 -29 -21.5 -49c0 -28.667 14.333 -51.334 43 -68.001l108 -64
c30 -18 51.5 -36.167 64.5 -54.5s19.5 -39.833 19.5 -64.5c0 -34.667 -13.833 -64.667 -41.5 -90s-60.834 -38 -99.501 -38c-16.667 0 -39 3 -67 9s-45.333 9 -52 9c-10 0 -17.667 -4 -23 -12h-13v156h16c10.667 -46.667 23.334 -79.667 38.001 -99
c21.333 -27.333 51 -41 89 -41c25.333 0 45.5 6.5 60.5 19.5s22.5 30.5 22.5 52.5c0 30 -17.333 55 -52 75l-58 33c-42.667 24 -72.834 47 -90.501 69s-26.5 47 -26.5 75c0 36 12.833 65.5 38.5 88.5s58.167 34.5 97.5 34.5c22 0 42.667 -3.16699 62 -9.5s31 -9.5 35 -9.5z
" />
    <glyph glyph-name="t" unicode="t" horiz-adv-x="278" 
d="M255 450l-0.000976562 -32h-101v-286c0 -31.333 4 -54.166 12 -68.499s21.333 -21.5 40 -21.5c20.667 0 40.667 11.667 60 35l13 -11c-32 -50.667 -72 -76 -120 -76c-59.333 0 -89 42.333 -89 127v301h-53c-2.66699 2 -4 4.33301 -4 7c0 3.33301 1 6 3 8
s5.83301 4.83301 11.5 8.5s12.5 8.66699 20.5 15s19 17.833 33 34.5s29.333 36.667 46 60c10.667 15.333 17.334 24.666 20.001 27.999c4.66699 0 7 -4.33301 7 -13v-116h101z" />
    <glyph glyph-name="u" unicode="u" horiz-adv-x="500" 
d="M479 50l-0.000976562 -14.001c-52 -14 -97.667 -29 -137 -45l-4 2v83l-43 -43c-28.667 -28.667 -63 -43 -103 -43c-36.667 0 -66 11.833 -88 35.5s-33 55.167 -33 94.5v252c0 23.333 -4.33301 39.5 -13 48.5s-25 14.167 -49 15.5v14h146v-326c0 -20.667 7 -38.5 21 -53.5
s30.667 -22.5 50 -22.5c30.667 0 60 11.333 88 34c12.667 10 19 27.667 19 53v235c0 24.667 -4.5 41 -13.5 49s-29.167 12.667 -60.5 14v17h158v-343c0 -23.333 3.83301 -38.666 11.5 -45.999s22.834 -11 45.501 -11h5z" />
    <glyph glyph-name="v" unicode="v" horiz-adv-x="500" 
d="M477 450l-0.00390625 -15.001c-15.333 -1.33301 -26.666 -6.33301 -33.999 -15s-17.666 -29.667 -30.999 -63l-128 -321c-13.333 -33.333 -22.666 -50 -27.999 -50c-7.33301 0 -16 15.667 -26 47l-120 287c-23.333 52 -39.666 84 -48.999 96s-23.333 18.333 -42 19v15
h196v-15c-17.333 -1.33301 -29.333 -4 -36 -8s-10 -10.667 -10 -20c0 -10.667 3 -23 9 -37l102 -256l99 259c4 10 6 20 6 30c0 18.667 -15.667 29.334 -47 32.001v15h139z" />
    <glyph glyph-name="w" unicode="w" horiz-adv-x="722" 
d="M351 310c-18 53.333 -31.8359 86.835 -41.5029 100.502s-25.5 21.834 -47.5 24.501v15h203v-15c-23.333 -3.33301 -38.833 -7.33301 -46.5 -12s-11.5 -12.667 -11.5 -24c0 -8.66699 5.66699 -28.334 17 -59.001l84 -224l90 222c11.333 28 17 50 17 66
c0 8.66699 -3 15.167 -9 19.5s-17.667 8.16602 -35 11.499v15h123v-15c-10 -3.33301 -17.167 -8 -21.5 -14s-10.833 -19.333 -19.5 -40l-138 -346c-13.333 -32.667 -22.666 -49 -27.999 -49s-13.333 14.333 -24 43l-91 236l-112 -240c-12 -26 -20.333 -39 -25 -39
c-5.33301 0 -14 14.667 -26 44l-135 342c-11.333 25.333 -20.166 42 -26.499 50s-15.166 12.333 -26.499 13v15h180v-15c-17.333 -2 -29.333 -5.33301 -36 -10s-10 -12.334 -10 -23.001c0 -10 2 -20 6 -30l99 -261z" />
    <glyph glyph-name="x" unicode="x" horiz-adv-x="500" 
d="M248 304c7.33301 11.333 16.001 23.8369 26.001 37.5039l22.5 31c5 7 9.33301 14.167 13 21.5s5.5 13.666 5.5 18.999c0 12.667 -13.333 20 -40 22v15h158v-15c-34 -1.33301 -61 -16 -81 -44l-83 -120l128 -196c16 -22.667 29.833 -38.334 41.5 -47.001
s25.167 -13 40.5 -13v-15h-201v15c16.667 1.33301 27.5 3.5 32.5 6.5s7.5 8.83301 7.5 17.5c0 6 -2 12 -6 18l-91 140l-79 -123c-13.333 -20.667 -20 -34.334 -20 -41.001c0 -12 13.333 -18 40 -18v-15h-145v15c16.667 1.33301 29.5 5 38.5 11s20.5 19.333 34.5 40l114 165
l-94 144c-15.333 23.333 -28.333 39.166 -39 47.499s-23.334 12.5 -38.001 12.5h-9v15h207v-15c-28.667 -0.666992 -43 -8 -43 -22c0 -13.333 15.333 -43 46 -89z" />
    <glyph glyph-name="y" unicode="y" horiz-adv-x="500" 
d="M151 -134c18.667 0 38.3311 20.666 58.998 61.999s31 71.666 31 90.999c0 14.667 -14.667 48.334 -44 101.001l-15 30l-117 254c-8 17.333 -25 28 -51 32v14h206v-15c-21.333 -0.666992 -36.333 -3 -45 -7s-13 -10.667 -13 -20c0 -10 3.33301 -22.667 10 -38l115 -253
l97 276c2.66699 6 4 11.667 4 17c0 16.667 -16 25 -48 25v15h135v-15c-12 -1.33301 -21.5 -5.16602 -28.5 -11.499s-13.5 -17.5 -19.5 -33.5l-154 -408c-26.667 -72 -53.167 -123.333 -79.5 -154s-56.166 -46 -89.499 -46c-21.333 0 -39 5.5 -53 16.5s-21 24.833 -21 41.5
c0 12 4.33301 22.333 13 31s18.667 13 30 13c14.667 0 30.334 -3 47.001 -9s27 -9 31 -9z" />
    <glyph glyph-name="z" unicode="z" horiz-adv-x="444" 
d="M272 30c26 0 46.668 1.66797 62.001 5.00098s27.333 10.666 36 21.999s14.667 22 18 32s7.33301 26.667 12 50l18 -4l-14 -135h-377v15l266 405h-138c-30 0 -50.333 -5.5 -61 -16.5s-18.334 -34.833 -23.001 -71.5h-18l3 118h347v-15l-269 -405h138z" />
    <glyph glyph-name="braceleft" unicode="{" horiz-adv-x="480" 
d="M350 -181c-58.667 1.33301 -100.831 10.998 -126.498 28.998s-38.5 55 -38.5 111v177c0 34.667 -5.83301 59.667 -17.5 75s-34.167 28.333 -67.5 39c33.333 10 55.833 22.667 67.5 38s17.5 40.333 17.5 75v178c0 29.333 3.33301 53.166 10 71.499s17.667 32.333 33 42
s32.166 16.167 50.499 19.5s42.166 5.33301 71.499 6v-11c-34.667 -8.66699 -58.5 -22 -71.5 -40s-19.5 -45.667 -19.5 -83v-168c0 -41.333 -6.33301 -70.666 -19 -87.999s-37.667 -31 -75 -41c37.333 -9.33301 62.333 -22.666 75 -39.999s19 -46.666 19 -87.999v-168
c0 -37.333 6.5 -65 19.5 -83s36.833 -31.333 71.5 -40v-11z" />
    <glyph glyph-name="bar" unicode="|" horiz-adv-x="200" 
d="M67 -14v690h66v-690h-66z" />
    <glyph glyph-name="braceright" unicode="}" horiz-adv-x="480" 
d="M130 680c22 0 39.998 -0.831055 53.998 -2.49805s28.667 -5.16699 44 -10.5s27.5 -12.833 36.5 -22.5s16.333 -23.334 22 -41.001s8.5 -38.834 8.5 -63.501v-177c0 -34.667 5.83301 -59.667 17.5 -75s34.167 -28 67.5 -38c-33.333 -10.667 -55.833 -23.667 -67.5 -39
s-17.5 -40.333 -17.5 -75v-178c0 -29.333 -3.33301 -53.166 -10 -71.499s-17.667 -32.333 -33 -42s-32.166 -16.167 -50.499 -19.5s-42.166 -5.33301 -71.499 -6v11c34.667 8.66699 58.5 22 71.5 40s19.5 45.667 19.5 83v168c0 41.333 6.33301 70.666 19 87.999
s37.667 31 75 41c-37.333 9.33301 -62.333 22.5 -75 39.5s-19 46.5 -19 88.5v168c0 37.333 -6.5 65 -19.5 83s-36.833 31.333 -71.5 40v11z" />
    <glyph glyph-name="asciitilde" unicode="~" horiz-adv-x="541" 
d="M163 320c33.333 0 71 -11.333 113 -34s74.667 -34 98 -34c15.333 0 28.166 3.66699 38.499 11s22.166 20.666 35.499 39.999l54 -32c-22.667 -32 -43 -54.167 -61 -66.5s-38.667 -18.5 -62 -18.5c-33.333 0 -71 11.333 -113 34s-74.667 34 -98 34
c-15.333 0 -28.166 -3.66699 -38.499 -11s-22.166 -20.666 -35.499 -39.999l-54 32c22.667 32 43 54.167 61 66.5s38.667 18.5 62 18.5z" />
    <glyph glyph-name="multiply" unicode="&#xd7;" horiz-adv-x="580" 
d="M90 438l151 -143l139 147l47 -43l-140 -148l149 -141l-45 -47l-149 141l-141 -149l-47 44l141 149l-148 142z" />
    <glyph glyph-name="ka" unicode="&#x1000;" horiz-adv-x="937" 
d="M771 61c-48 -46 -101.669 -69 -161.002 -69c-12.667 0 -26.667 1.33301 -42 4c-2.66699 0.666992 -5.16699 1.16699 -7.5 1.5s-5.16602 0.833008 -8.49902 1.5c-17.333 5.33301 -26 16.666 -26 33.999c0 24.667 11.667 37 35 37c4.66699 0 12.667 -1.5 24 -4.5
s20 -4.5 26 -4.5c40 0 76.667 16.667 110 50c30.667 30.667 46 68.334 46 113.001c0 45.333 -15.333 83.333 -46 114c-31.333 31.333 -68.333 47 -111 47c-45.333 0 -83.333 -16.333 -114 -49c-26 -25.333 -41 -60.333 -45 -105v-14c0 -98.667 -36.667 -170.667 -110 -216
c-6 -2.66699 -12.333 -4 -19 -4c-10 0 -18.333 3.66699 -25 11s-10 15.666 -10 24.999c0 11.333 5.66699 20.666 17 27.999c46.667 30 72 78.333 76 145c-0.666992 6.66699 -0.666992 14 0 22c-3.33301 42.667 -20 79 -50 109c-31.333 31.333 -67.666 47 -108.999 47
c-43.333 0 -80.666 -16.667 -111.999 -50s-47 -72.333 -47 -117c0 -14 2 -28.333 6 -43s9.66699 -29 17 -43s16.166 -27 26.499 -39s22.166 -22.333 35.499 -31c10 -7.33301 15 -16.666 15 -27.999c0 -10 -3.33301 -18.667 -10 -26s-15 -11 -25 -11
c-5.33301 0 -12 1.66699 -20 5c-36 25.333 -64.333 58 -85 98c-20.667 39.333 -31 78.666 -31 117.999c0 64.667 22.333 120.334 67 167.001s99 70 163 70c84 0 148.333 -36.333 193 -109c10 14.667 20.667 28.334 32 41.001c46.667 46 100.667 69 162 69
c62.667 0 116.334 -22.333 161.001 -67c45.333 -45.333 68 -100 68 -164c0 -64.667 -22 -119 -66 -163z" />
    <glyph glyph-name="kha" unicode="&#x1001;" 
d="M441 219c0 -62.667 -22.667 -116.665 -68 -161.998s-99.333 -68 -162 -68c-86 0 -152.333 37.333 -199 112c-10.667 20.667 -16 43.334 -16 68.001c0 10.667 1.66699 17.667 5 21c44.667 43.333 93.334 65 146.001 65c24 0 49 -4.66699 75 -14
c50.667 -18.667 89 -57.334 115 -116.001c22 28 33 59.333 33 94c0 44 -15.333 81 -46 111c-30.667 30.667 -68.334 46 -113.001 46c-49.333 0 -90.666 -19.667 -123.999 -59l-14 -16l-1 2c-0.666992 0 -0.333984 0.666992 0.999023 2c2 2 3 1.66699 3 -1
c-7.33301 -14 -17.333 -21 -30 -21c-10 0 -19 3.66699 -27 11s-12 16 -12 26c0 5.33301 1.66699 10.666 5 15.999c-0.666992 0.666992 -1 1.66699 -1 3l1 1c1.33301 1.33301 3.66602 4.16602 6.99902 8.49902l13 16.5c46.667 54.667 106.334 82 179.001 82
c65.333 0 120 -22 164 -66s66 -98 66 -162zM278 75.002c-13.333 50.667 -40.333 83.668 -81 99.001c-23.333 7.33301 -41.666 11 -54.999 11c-26 0 -51.333 -12 -76 -36l10 -14c2 -2.66699 6.66699 -8.33398 14 -17.001c32.667 -38.667 73 -58 121 -58
c19.333 0 41.666 5 66.999 15z" />
    <glyph glyph-name="ga" unicode="&#x1002;" 
d="M448 217c0 -84.667 -26.999 -156.998 -80.999 -216.998c-7.33301 -7.33301 -16 -11 -26 -11c-9.33301 0 -17.833 3.66699 -25.5 11s-11.5 15.666 -11.5 24.999s3.66699 17.666 11 24.999c41.333 44.667 62 100.334 62 167.001c0 48.667 -14 86 -42 112
c-33.333 30.667 -72.333 46 -117 46c-42 0 -77.667 -13.667 -107 -41c-32.667 -30 -49 -69 -49 -117c0 -68.667 21.333 -124.334 64 -167.001c6.66699 -6.66699 10 -15 10 -25s-3.83301 -18.5 -11.5 -25.5s-16.167 -10.5 -25.5 -10.5c-8.66699 0 -17.334 3.66699 -26.001 11
c-54.667 59.333 -82 131.666 -82 216.999c0 14.667 1.83301 29.834 5.5 45.501s8.5 31 14.5 46s13.333 29.167 22 42.5s18 25 28 35c42.667 40 94.667 60 156 60c63.333 0 119.333 -21.667 168 -65c42 -39.333 63 -94 63 -164z" />
    <glyph glyph-name="gha" unicode="&#x1003;" horiz-adv-x="930" 
d="M601 -11c-62 0 -116.336 23.3291 -163.003 69.9961l-16 20c-5.33301 6.66699 -10.333 13.667 -15 21c-45.333 -74 -110 -111 -194 -111c-50 0 -96.333 17 -139 51c-42.667 34.667 -69 74.334 -79 119.001c-5.33301 10.667 -6.66602 26 -3.99902 46
c5.33301 30.667 15.333 50.334 30 59.001c9.33301 11.333 24 20.333 44 27c38.667 16 58.334 34 59.001 54c0 9.33301 -7.33301 18 -22 26c-10 4.66699 -20 6.66699 -30 6c-12 -1.33301 -18 -5.33301 -18 -12c0 -24 -11.667 -36 -35 -36c-24 0 -36 12 -36 36
c0 22 11 40.667 33 56c22.667 15.333 47 23 73 23c18.667 0 33.667 -3.33301 45 -10c42 -22 62 -52.667 60 -92c-0.666992 -35.333 -18 -65.666 -52 -90.999c-3.33301 -2 -9.33301 -5 -18 -9s-20.334 -8.66699 -35.001 -14
c-3.33301 -1.33301 -6.66602 -3.16602 -9.99902 -5.49902s-6.33301 -5.16602 -9 -8.49902c-8 -13.333 -11.333 -23.666 -10 -30.999s1 -13.666 -1 -18.999c6.66699 -26 25.667 -50 57 -72c31.333 -21.333 63.666 -32 96.999 -32c42.667 0 79 15.333 109 46
c30 30 46.667 66.667 50 110c-1.33301 8 -1.33301 15 0 21c-2.66699 66 -28 114.333 -76 145c-11.333 8 -17 17.667 -17 29c0 9.33301 3.33301 17.666 10 24.999s15.334 11 26.001 11c4 0 10 -1.66699 18 -5c73.333 -45.333 110 -117.333 110 -216v-14
c4 -44 19 -78.333 45 -103c32.667 -32.667 70.334 -49 113.001 -49c42 0 78.667 15.667 110 47s47 69 47 113s-16 82 -48 114c-31.333 32 -67 48 -107 48c-6 1.33301 -13.333 0.666016 -22 -2.00098s-18 -4.66699 -28 -6c-22.667 0 -34 12.333 -34 37
c0 15.333 7.83301 26.166 23.5 32.499s35.167 9.5 58.5 9.5c60 0 113.667 -23.667 161 -71c44 -44 66 -98 66 -162s-22.667 -118.667 -68 -164c-44.667 -44.667 -97.667 -67 -159 -67z" />
    <glyph glyph-name="nga" unicode="&#x1004;" 
d="M421 339c0 -1.33301 -0.999023 -1.99902 -2.99902 -1.99902h-1v2v1c4 -7.33301 6 -13.666 6 -18.999c0 -10 -3.83301 -18.667 -11.5 -26s-16.5 -11 -26.5 -11c-14 0 -24.333 7 -31 21c-1.33301 0.666992 -1.33301 1.66699 0 3l-9 11c-32 38 -73.333 57 -124 57
c-45.333 0 -83.333 -15.333 -114 -46c-30 -30 -45 -66.667 -45 -110c0 -42.667 15.667 -80.334 47 -113.001c32.667 -31.333 70 -47 112 -47c56 0 96.333 17.333 121 52c3.33301 3.33301 6.66602 8 9.99902 14c6 17.333 17.333 26 34 26c24 0 36 -11.333 36 -34
c0 -10.667 -7 -26.334 -21 -47.001c-38.667 -54.667 -98.667 -82 -180 -82c-62.667 0 -116.667 22.667 -162 68c-45.333 46.667 -68 101 -68 163c0 63.333 22 117 66 161s98.667 66 164 66c34.667 0 70 -8.66699 106 -26c30 -16 54.333 -34.333 73 -55l11 -13l6 -9l1 -2
l3 -3v0z" />
    <glyph glyph-name="ca" unicode="&#x1005;" horiz-adv-x="550" 
d="M448 217c0 -62.667 -22.999 -116.333 -68.999 -161c-44.667 -44.667 -98.334 -67 -161.001 -67c-61.333 0 -114.333 22.333 -159 67s-67 99.667 -67 165c0 64.667 22 118.667 66 162c43.333 42.667 97.333 64 162 64s118.667 -22.667 162 -68
c44 -45.333 66 -99.333 66 -162zM331.001 109.001c30.667 28.667 45.999 64.668 45.999 108.001s-15 80.666 -45 111.999c-28.667 30.667 -65 46 -109 46c-16 0 -31.333 -2 -46 -6c46 -39.333 69 -89.333 69 -150s-23.667 -111.667 -71 -153c12.667 -4 26.334 -6 41.001 -6
c44 0 82.333 16.333 115 49zM175 219.002c0 47.333 -22.667 84.667 -68 112c0 -1.33301 -0.333008 -2.33301 -1 -3l-4 -7c-9.33301 -16.667 -17 -33 -23 -49s-9.66699 -32 -11 -48c-5.33301 -48 8.66699 -87.667 42 -119c43.333 29.333 65 67.333 65 114z" />
    <glyph glyph-name="cha" unicode="&#x1006;" horiz-adv-x="921" 
d="M820 220c0 -62.667 -22.667 -116.667 -68 -162c-44.667 -44.667 -98.667 -67 -162 -67c-82 0 -146 34.667 -192 104c-46.667 -70.667 -110.667 -106 -192 -106c-71.333 0 -130.333 27 -177 81c-2.66699 3.33301 -5.66699 7.5 -9 12.5s-7 10.167 -11 15.5
c-14.667 23.333 -17.334 46.333 -8.00098 69c40.667 38.667 84.334 58 131.001 58c21.333 0 43.333 -3.33301 66 -10c54.667 -14.667 93 -52 115 -112c26 24 42.667 53 50 87c-0.666992 5.33301 -1.16699 10.333 -1.5 15s-0.5 9.66699 -0.5 15s0.166992 10.5 0.5 15.5
s0.833008 10.167 1.5 15.5c-6.66699 36 -25 65.667 -55 89c-29.333 24 -63.333 36 -102 36c-50.667 0 -92 -19 -124 -57l-12 -11c1.33301 -6 -1.66699 -11.5 -9 -16.5s-14 -7.5 -20 -7.5c-10 0 -19 3.66699 -27 11s-12 16 -12 26c0 6 1.33301 11.333 4 16
c-1.33301 1.33301 -1.33301 2 0 2v1c0.666992 0.666992 2.66699 3 6 7s8.33301 10.333 15 19c17.333 20.667 41.333 39 72 55c36 17.333 71.667 26 107 26c82.667 0 146.667 -33 192 -99c45.333 67.333 109.333 101 192 101c62.667 0 116.667 -22.667 162 -68
s68 -99 68 -161zM749 220c0 42 -15.6689 78.666 -47.002 109.999s-68.666 47 -111.999 47c-40 0 -74.167 -11.833 -102.5 -35.5s-46.166 -53.834 -53.499 -90.501c2 -11.333 3 -21.666 3 -30.999c0 -10 -1 -20 -3 -30c6.66699 -36 25 -67 55 -93
c28.667 -24.667 62.334 -37 101.001 -37c43.333 0 80.666 15.667 111.999 47c31.333 32.667 47 70.334 47 113.001zM250.998 65.999c-13.333 42 -38.665 69.002 -75.998 81.002c-14.667 5.33301 -28.334 8 -41.001 8c-22 0 -43.333 -7 -64 -21
c2 -2.66699 4.16699 -5.33398 6.5 -8.00098s5.16602 -5.33398 8.49902 -8.00098c32 -38.667 72.333 -58 121 -58c14.667 0 29.667 2 45 6z" />
    <glyph glyph-name="ja" unicode="&#x1007;" horiz-adv-x="532" 
d="M458 131c0 -10 -3.66797 -18.501 -11.001 -25.501s-16 -10.5 -26 -10.5s-20.667 6.66699 -32 20c-5.33301 9.33301 -12.333 20.666 -21 33.999c-27.333 -17.333 -63 -25 -107 -23c-29.333 2 -55.666 14 -78.999 36c-22.667 22 -34 46 -34 72
c0 26.667 11.333 48.334 34 65.001c23.333 17.333 48.666 26 75.999 26c36 0 70.667 -18 104 -54c-1.33301 26.667 -10.333 47.334 -27 62.001c-33.333 30.667 -71.333 46 -114 46c-44 0 -81.667 -15.667 -113 -47c-30.667 -30.667 -46 -67.667 -46 -111
c0 -42.667 15.667 -80.667 47 -114c30.667 -32 69.667 -48 117 -48c32.667 0 58.667 8 78 24c8.66699 5.33301 16.334 8 23.001 8c22.667 0 34 -12 34 -36c0 -22 -19 -39 -57 -51c-26.667 -8.66699 -53.667 -13 -81 -13c-66.667 0 -122 22.333 -166 67s-66 98.667 -66 162
c0 62.667 22.333 116.334 67 161.001c45.333 45.333 99.333 68 162 68c58.667 0 112.667 -21 162 -63c9.33301 -8 19.333 -24.333 30 -49c13.333 -28.667 20 -54.334 20 -77.001c0 -16.667 -5 -35.334 -15 -56.001c27.333 -39.333 41 -63.666 41 -72.999zM325.999 207.999
c-26 31.333 -49.668 47.001 -71.001 47.001c-19.333 0 -31 -6.66699 -35 -20c-3.33301 -10 -0.166016 -18.833 9.50098 -26.5s21.167 -11.834 34.5 -12.501c25.333 -1.33301 46 2.66699 62 12z" />
    <glyph glyph-name="jha" unicode="&#x1008;" horiz-adv-x="700" 
d="M601 -213c0 -42 -13.668 -77.668 -41.001 -107.001c-26.667 -28.667 -60.667 -43 -102 -43s-76.333 13.667 -105 41c-28 26.667 -42 61.334 -42 104.001v234c-22 -9.33301 -49.667 -14 -83 -14c-65.333 0 -119.333 22.333 -162 67c-42 44 -63.667 99 -65 165
c-0.666992 63.333 21 116.666 65 159.999s98.333 65.333 163 66c64 0.666992 117.667 -21.666 161 -66.999c42.667 -45.333 64.667 -100.333 66 -165c1.33301 -68 -22.667 -125.667 -72 -173v-268c0 -21.333 7 -39 21 -53s31.667 -21 53 -21c20.667 0 37.834 7 51.501 21
s20.5 31.667 20.5 53v638c0 22.667 12 34.667 36 36c23.333 1.33301 35 -10.667 35 -36v-638zM385.999 229.999c0.666992 42.667 -14.3301 79.667 -44.9971 111c-30.667 30.667 -68.334 46.667 -113.001 48c-15.333 0 -29.333 -2.66699 -42 -8
c44.667 -39.333 67.667 -89.333 69 -150c1.33301 -58 -22.334 -108.667 -71.001 -152c12 -4.66699 25.667 -7 41 -7c42.667 -1.33301 80 14 112 46c31.333 30.667 47.666 68 48.999 112zM184.002 230.999c1.33301 48 -21.333 85.667 -68 113
c-11.333 -10 -22.333 -28 -33 -54c-10.667 -25.333 -16 -46 -16 -62c-0.666992 -38.667 16.666 -75.334 51.999 -110.001c42.667 28.667 64.334 66.334 65.001 113.001z" />
    <glyph glyph-name="nya" unicode="&#x1009;" 
d="M815 -246c0.666992 -4 0.996094 -8 0.996094 -12v-12c0 -62 -29 -93 -87 -93h-585c-52.667 0 -91.334 12.833 -116.001 38.5s-37 64.5 -37 116.5v288c0 10.667 6.5 19.834 19.5 27.501s26.5 11.5 40.5 11.5c8.66699 0 15.334 -1.66699 20.001 -5
c26 -36 66.333 -54 121 -54c42.667 0 79.667 16 111 48c32 32 48 69.667 48 113c0 45.333 -15.333 82.333 -46 111c-31.333 29.333 -69 44 -113 44c-50.667 0 -92 -19 -124 -57l-11 -11c0.666992 -6 -2.66602 -11.5 -9.99902 -16.5s-14 -7.5 -20 -7.5
c-10 0 -19 3.66699 -27 11s-12 16 -12 26c0 5.33301 2 10.666 6 15.999c-1.33301 1.33301 -2 2.33301 -2 3h2v-1c-1.33301 0 -2 0.333008 -2 1l2 1c0.666992 0.666992 7 9 19 25c46 54 105.667 81 179 81c64.667 0 119 -22 163 -66c44.667 -42.667 67 -96 67 -160
c0 -62.667 -23 -117 -69 -163s-99.667 -69 -161 -69c-49.333 0 -92.666 12.333 -129.999 37v-234c0 -32.667 5.66699 -54.667 17 -66s33 -17 65 -17h585c12.667 0 17.334 12.667 14.001 38s9 38 37 38c20.667 0 32.334 -10.333 35.001 -31z" />
    <glyph glyph-name="nnya" unicode="&#x100a;" horiz-adv-x="907" 
d="M815 -246c0.666992 -4 0.99707 -7.99805 0.99707 -11.998v-12c0 -62 -29 -93 -87 -93h-585c-52.667 0 -91.334 12.833 -116.001 38.5s-37 64.5 -37 116.5v288c0 10.667 6.5 19.834 19.5 27.501s26.5 11.5 40.5 11.5c8.66699 0 15.334 -1.66699 20.001 -5
c26 -36 66.333 -54 121 -54c40.667 0 76.667 15 108 45c31.333 31.333 48.333 67.666 51 108.999c-0.666992 6.66699 -0.666992 13.334 0 20.001c-2.66699 40 -19.334 73.667 -50.001 101s-67 41 -109 41c-50.667 0 -92 -19 -124 -57l-11 -11
c0.666992 -6 -2.66602 -11.5 -9.99902 -16.5s-14 -7.5 -20 -7.5c-10 0 -19 3.66699 -27 11s-12 16 -12 26c0 5.33301 2 10.666 6 15.999c-1.33301 1.33301 -2 2.33301 -2 3h2v-1c-1.33301 0 -2 0.333008 -2 1l2 1c0.666992 0.666992 7 9 19 25c46 54 105.667 81 179 81
c64.667 0 119 -22 163 -66c44.667 -42.667 67 -96 67 -160v-11c4 -43.333 18.667 -77 44 -101c32 -32.667 69.333 -49 112 -49s79.667 15.667 111 47s47 69.333 47 114c0 44 -15.667 81.667 -47 113s-66.666 47 -105.999 47c-8 1.33301 -16.333 0.666016 -25 -2.00098
s-18 -4.66699 -28 -6c-22 0 -33 12.333 -33 37c0 15.333 7.66699 26 23 32s35.666 9 60.999 9c59.333 0 112.666 -23 159.999 -69c43.333 -44.667 65 -98.334 65 -161.001c0 -64 -22.667 -118.667 -68 -164s-98.666 -68 -159.999 -68s-115.333 23.333 -162 70
c-6 5.33301 -11.5 11.5 -16.5 18.5s-9.83301 14.167 -14.5 21.5c-46 -73.333 -110.333 -110 -193 -110c-49.333 0 -92.666 12.333 -129.999 37v-234c0 -32.667 5.66699 -54.667 17 -66s33 -17 65 -17h585c12.667 0 17.334 12.667 14.001 38s9 38 37 38
c20.667 0 32.334 -10.333 35.001 -31z" />
    <glyph glyph-name="tta" unicode="&#x100b;" 
d="M386 -343c-23.333 0 -35 11.999 -35 35.999v93c-38 -15.333 -81 -22 -129 -20c-68.667 0.666992 -132.334 19.334 -191.001 56.001c-10 6.66699 -15 16.667 -15 30v126c0 26.667 10 40 30 40c10.667 0 21 -5.33301 31 -16c36.667 -39.333 84.667 -59.333 144 -60
c38 -1.33301 76.333 13 115 43l15 11v29c-37.333 -24 -80.666 -36 -129.999 -36c-62.667 0 -116.667 22.667 -162 68c-45.333 46.667 -68 101 -68 163c0 63.333 22 117 66 161s98.667 66 164 66c34.667 0 70 -8.66699 106 -26c30 -16 54.333 -34.333 73 -55l11 -13l6 -9
l1 -2l3 -3c0 -1.33301 -1 -2 -3 -2c3.33301 -5.33301 5 -10.666 5 -15.999c0 -10 -3.83301 -18.667 -11.5 -26s-16.5 -11 -26.5 -11c-14 0 -24.333 7 -31 21c-1.33301 0.666992 -1.33301 1.66699 0 3l-9 11c-32 38 -73.333 57 -124 57c-45.333 0 -83.333 -15.333 -114 -46
c-30 -30 -45 -66.667 -45 -110c0 -42.667 15.667 -80.334 47 -113.001c32.667 -31.333 70 -47 112 -47c52.667 0 94 18 124 54c6.66699 8 15.667 12 27 12h14c24 0 36 -11.667 36 -35v-113c0 -12.667 -5 -22.334 -15 -29.001l-52 -36c-14 -9.33301 -25.333 -16 -34 -20
c-30 -15.333 -63.667 -22.333 -101 -21c-53.333 0.666992 -97.666 11 -132.999 31v-31c42 -24 87.333 -36.333 136 -37c55.333 -1.33301 92.666 6.33398 111.999 23.001l28 22c10 8 19.667 12 29 12c20 0 30 -13.333 30 -40v-124h64c24 0 36 -12.333 36 -37
c0 -22.667 -12 -34 -36 -34h-100z" />
    <glyph glyph-name="ttha" unicode="&#x100c;" 
d="M422 -188c0 -52 -12.499 -90.8311 -37.499 -116.498s-64.5 -38.5 -118.5 -38.5h-181c-30 0 -54 14.333 -72 43c-16 26 -24 56.667 -24 92c0 20 3.5 38.167 10.5 54.5s16.5 30.333 28.5 42s26.5 20.667 43.5 27s35.5 9.5 55.5 9.5c40 0 75.667 -14 107 -42
c7.33301 -7.33301 11 -16.333 11 -27c0 -8.66699 -3.66699 -16.834 -11 -24.501s-15.666 -11.5 -24.999 -11.5s-17.666 3.66699 -24.999 11c-16 16 -35 24 -57 24c-28.667 0 -49.667 -11.667 -63 -35c-6 -11.333 -9 -25.666 -9 -42.999c0 -32.667 10 -49 30 -49h181
c32.667 0 54.834 6 66.501 18s17.5 34 17.5 66v217c-38.667 -26.667 -82.334 -40 -131.001 -40c-62 0 -115.667 22.667 -161 68c-44.667 45.333 -67 100 -67 164c0 63.333 21.667 116.666 65 159.999c42.667 44 97 66 163 66c71.333 0 130.666 -27 177.999 -81l9 -11.5
c3.33301 -4.33301 7.33301 -9.16602 12 -14.499c0 -0.666992 -0.666992 -1 -2 -1c4.66699 -6.66699 7 -14 7 -22c0 -22.667 -12.333 -34 -37 -34c-12 0 -22.333 6 -31 18c-0.666992 2 -0.666992 3.33301 0 4c1.33301 0 2.33301 -0.333008 3 -1
c0.666992 -1.33301 0.666992 -2.33301 0 -3c0 -0.666992 -0.333008 -0.666992 -1 0l-3 4l-12 14c-32 38 -73 57 -123 57c-44.667 0 -82.334 -15 -113.001 -45c-30 -30 -45 -66.667 -45 -110c0 -42.667 15.667 -80.334 47 -113.001c30.667 -32 67.667 -48 111 -48
c50.667 0 90 16.667 118 50c2.66699 6 10 9 22 9c6.66699 0 13.667 -1.16699 21 -3.5s14.166 -5.33301 20.499 -9s11.5 -7.83398 15.5 -12.501s6 -9.66699 6 -15v-267v0z" />
    <glyph glyph-name="dda" unicode="&#x100d;" horiz-adv-x="522" 
d="M474 -327c0 -24 -11.999 -35.999 -35.999 -35.999h-100c-23.333 0 -35 12 -35 36v216c-25.333 -14.667 -64.333 -24 -117 -28c-65.333 -2 -112.333 6.33301 -141 25l-32 23c-14.667 10 -22 20.667 -22 32v150c0 23.333 11.667 35 35 35h13c11.333 0 20.666 -4 27.999 -12
c30 -36 71.333 -54 124 -54c43.333 0 80.666 15.667 111.999 47c32 32 48 69.667 48 113s-15.667 80 -47 110c-30.667 30.667 -68.334 46 -113.001 46c-52 0 -93.333 -19 -124 -57l-10 -11c0.666992 -1.33301 0.666992 -2.33301 0 -3c-7.33301 -14 -17.333 -21 -30 -21
c-10 0 -19 3.66699 -27 11s-12 16 -12 26c0 5.33301 2 10.666 6 15.999c-0.666992 0 -1.66699 0.666992 -3 2l3 3l1 2c0.666992 2 6.33398 9.33301 17.001 22c18 20.667 42.333 39 73 55c36 17.333 71.333 26 106 26c65.333 0 120 -22 164 -66
c44.667 -44 67 -97.667 67 -161c0 -62.667 -23 -117 -69 -163c-46.667 -45.333 -100.667 -68 -162 -68c-54 0 -97.333 14 -130 42v-71c33.333 -23.333 74 -34 122 -32c22.667 1.33301 47.334 6.33301 74.001 15l36 12c12 4 24 8.33301 36 13
c3.33301 0.666992 6.33301 1.16699 9 1.5s5.66699 0.5 9 0.5c19.333 0 29 -12 29 -36v-227l62 2c24 0 36 -12 36 -36z" />
    <glyph glyph-name="ddha" unicode="&#x100e;" 
d="M449 226c0 -64.667 -22.998 -120.326 -68.998 -166.993s-101.667 -70 -167 -70c-48.667 0 -94.334 16.333 -137.001 49c-43.333 32.667 -70.333 70.667 -81 114v6.5c0 2.33301 -0.333008 5.16602 -1 8.49902c-4 22.667 -3 42 3 58c7.33301 20 14.666 32.667 21.999 38
c10 10.667 25.333 20 46 28c38.667 16.667 59 34.667 61 54c0 9.33301 -8 18.666 -24 27.999c-7.33301 4.66699 -15.666 5.33398 -24.999 2.00098c-10 -3.33301 -15 -8.33301 -15 -15c0 -24 -11.667 -36 -35 -36c-24 0 -36 12 -36 36c0 12 2.83301 23.167 8.5 33.5
s13.334 19.333 23.001 27s20.5 13.667 32.5 18s24.667 6.5 38 6.5c26.667 0 50.667 -10.667 72 -32c21.333 -20.667 31.666 -44.334 30.999 -71.001c-2 -36 -20 -66.333 -54 -91c-4.66699 -2.66699 -11.167 -5.83398 -19.5 -9.50098l-31.5 -13.5
c-8 -3.33301 -13.833 -7.33301 -17.5 -12s-7.83398 -13.334 -12.501 -26.001c-1.33301 -2.66699 -1.5 -5.83398 -0.5 -9.50098s1.16699 -8.5 0.5 -14.5c7.33301 -28 26 -52.667 56 -74c31.333 -21.333 63.333 -32 96 -32c46 0 85 16.333 117 49s48 71.667 48 117
c0 70 -27.333 122 -82 156c-10.667 8 -16 17.667 -16 29c0 9.33301 3.33301 17.666 10 24.999s15 11 25 11c4 0 10 -1.66699 18 -5c18 -11.333 34.167 -24.833 48.5 -40.5s26.5 -32.834 36.5 -51.501s17.667 -38.5 23 -59.5s8 -42.5 8 -64.5z" />
    <glyph glyph-name="nna" unicode="&#x100f;" horiz-adv-x="1042" 
d="M901 349c26 -39.333 39 -82.335 39 -129.002c0 -83.333 -32.667 -147.666 -98 -192.999c-39.333 -25.333 -81.666 -38 -126.999 -38c-24.667 0 -47 3.33301 -67 10c-16.667 4.66699 -25 16 -25 34c0 24 11.333 36 34 36c6 0 15.167 -1.66699 27.5 -5s21.833 -5 28.5 -5
c32 0 61.333 9.33301 88 28c44.667 30 67 74 67 132c0 33.333 -9 63 -27 89c-31.333 45.333 -73.333 68 -126 68c-35.333 0 -66.333 -10.333 -93 -31l-24 -16c-6 -6 -14.333 -17.333 -25 -34c0 -4 -1.66699 -9.33301 -5 -16c-11.333 -21.333 -17 -41.333 -17 -60
c0 -24.667 5.66699 -49 17 -73c3.33301 -5.33301 5 -10.666 5 -15.999v-29c0 -29.333 -10.667 -55.666 -32 -78.999c-21.333 -22 -46.333 -33 -75 -33c-29.333 0 -54.333 11 -75 33c-20.667 22.667 -31 49 -31 79v30c0 6 0.666992 11 2 15c12 22.667 18 47 18 73
c0 6 -1 12.333 -3 19s-4.16699 13.334 -6.5 20.001l-6.5 18c-2 5.33301 -3 9.66602 -3 12.999c-2.66699 3.33301 -5.5 7.5 -8.5 12.5l-10.5 17.5c-2.66699 3.33301 -13.667 11.666 -33 24.999c-28 20 -59 30 -93 30c-53.333 0 -95 -22 -125 -66
c-18.667 -25.333 -28 -54.666 -28 -87.999c0 -54 22.333 -96 67 -126c30.667 -22.667 62.667 -34 96 -34c6 0 14.333 1.5 25 4.5s18.667 4.5 24 4.5c22 0 33 -12 33 -36c0 -8.66699 -2.33301 -15.834 -7 -21.501s-10.834 -10 -18.501 -13s-16.5 -5 -26.5 -6
s-20 -1.5 -30 -1.5c-49.333 0 -95.333 14.333 -138 43c-64 44 -96 106.333 -96 187c0 46 13 88.667 39 128c44.667 64 106.667 96 186 96c48.667 0 93.667 -13.667 135 -41c4.66699 -3.33301 8.66699 -6.33301 12 -9s6 -4.66699 8 -6c20.667 38.667 52 58 94 58
c42.667 0 74.334 -19.333 95.001 -58l18 13c41.333 29.333 86.666 44 135.999 44c79.333 0 141.333 -32.333 186 -97zM503 120.998c-16 28.667 -23 61.667 -21 99c0.666992 30.667 7.66699 58.667 21 84v35c0 10 -3.66699 18.833 -11 26.5s-16 11.5 -26 11.5
s-18.5 -3.83301 -25.5 -11.5s-10.5 -16.5 -10.5 -26.5v-36c13.333 -30 20 -58 20 -84c0 -35.333 -6.66699 -67 -20 -95v-23c0 -10.667 3.5 -20.334 10.5 -29.001s15.5 -13 25.5 -13s18.667 4.33301 26 13s11 18.334 11 29.001v20z" />
    <glyph glyph-name="ta" unicode="&#x1010;" horiz-adv-x="942" 
d="M773 58c-50 -50 -111.666 -72.333 -184.999 -67l-22 1c-2.66699 0 -4 0.333008 -4 1s1.33301 1 4 1h1h1l-1 -1v-1c-8.66699 0 -17.334 4.66699 -26.001 14s-13 19 -13 29c0 14 11.333 23.333 34 28h3h3c8 -1.33301 16.333 -2.33301 25 -3
c52 -3.33301 95.333 12.334 130 47.001c32.667 32 49 69.667 49 113s-16 80.666 -48 111.999c-31.333 31.333 -69 47 -113 47c-44.667 0 -82.334 -15.333 -113.001 -46c-28.667 -28.667 -45.334 -59.334 -50.001 -92.001c6.66699 -64.667 -12.666 -123 -57.999 -175
c-45.333 -51.333 -101.333 -77 -168 -77c-62 0 -116.333 22.667 -163 68c-45.333 46.667 -68 101.334 -68 164.001c0 64 21.667 117.667 65 161c44.667 43.333 100 65 166 65c84 0 148 -35.667 192 -107c46.667 72.667 112.334 109 197.001 109c64 0 118 -22.333 162 -67
c46 -46 69 -100 69 -162s-23 -116 -69 -162zM378.001 200c-1.33301 13.333 -1.33398 27.667 -0.000976562 43c-6 38 -23.667 69.667 -53 95s-63.666 38 -102.999 38c-46 0 -84.333 -14.667 -115 -44c-30 -29.333 -45 -66.333 -45 -111c0 -43.333 15.667 -81.333 47 -114
c32.667 -31.333 70.334 -47 113.001 -47c40 0 74.667 13.333 104 40s46.666 60 51.999 100z" />
    <glyph glyph-name="tha" unicode="&#x1011;" horiz-adv-x="932" 
d="M831 220c0.666992 -63.333 -21.334 -117.332 -66.001 -161.999s-99 -67 -163 -67c-80.667 0 -144.334 34.333 -191.001 103c-46 -70 -110.333 -105 -193 -105c-61.333 0 -114.666 22.667 -159.999 68c-44.667 45.333 -67 99.666 -67 162.999c0 64 21.667 117.667 65 161
c42.667 44 96.667 66 162 66c82 0 145.667 -34 191 -102c42.667 68 107 102 193 102c63.333 0 117 -22.333 161 -67c44.667 -44.667 67.334 -98 68.001 -160zM760.999 220.001c0 43.333 -15.667 80 -47 110c-30.667 30.667 -68 46 -112 46
c-20 0 -38.833 -3.16699 -56.5 -9.5s-33.167 -15.333 -46.5 -27s-24.666 -25.5 -33.999 -41.5s-15.333 -33.667 -18 -53c1.33301 -17.333 1.33301 -35 0 -53c7.33301 -38 25.333 -69.333 54 -94c29.333 -25.333 63 -38 101 -38c43.333 0 80.666 16 111.999 48
c31.333 32.667 47 70 47 112zM375.999 189.001c-2 10.667 -3.00098 21 -3.00098 31v15c0 4.66699 0.333008 9.66699 1 15c-6 36 -24 66 -54 90c-29.333 24 -63.333 36 -102 36c-44 0 -81 -15 -111 -45s-45 -67 -45 -111s15.333 -81.667 46 -113
c31.333 -31.333 68 -47 110 -47c39.333 0 73.333 12.333 102 37c30.667 25.333 49.334 56 56.001 92z" />
    <glyph glyph-name="da" unicode="&#x1012;" 
d="M399 329c2 -9.33301 2.99902 -18.0049 2.99902 -26.0049c0 -34.667 -14.667 -63.667 -44 -87c29.333 -25.333 44 -53.666 44 -84.999c0 -8 -1 -15.333 -3 -22c-16 -78 -82 -117.333 -198 -118c-98 -2 -162.667 34.667 -194 110c-2 4.66699 -3 9.33398 -3 14.001
c0 23.333 12.667 35 38 35c16 0 27 -8 33 -24c16.667 -45.333 58.667 -67.333 126 -66c78 0.666992 121 21.667 129 63c4.66699 28 -14.333 48.333 -57 61c-2 -0.666992 -4.33301 -1 -7 -1h-34c-24 0 -36 12 -36 36c0 23.333 12 35 36 35h34h5h1
c44.667 6.66699 64 26.667 58 60c-9.33301 42 -52.333 63 -129 63c-76 0 -118 -20.667 -126 -62c-5.33301 -19.333 -16.666 -29 -33.999 -29c-12 0 -21.667 3.83301 -29 11.5s-10 17.834 -8 30.501c16 80.667 81.667 120.334 197 119.001
c117.333 -1.33301 183.333 -40.666 198 -117.999z" />
    <glyph glyph-name="dha" unicode="&#x1013;" 
d="M449 220c0 -62.667 -22.667 -116.668 -68 -162.001c-44.667 -44.667 -99 -67 -163 -67c-62 0 -115.667 22.667 -161 68c-44 44.667 -66 98.334 -66 161.001c0 64 21.667 117.667 65 161c44 44 98 66 162 66s118.333 -22.333 163 -67c45.333 -44 68 -97.333 68 -160z
M378 219.999c0 42 -15.667 78.667 -47 110c-30.667 30.667 -68.334 46 -113.001 46c-44 0 -81 -15 -111 -45s-45 -67 -45 -111c0 -23.333 5 -45.333 15 -66c34.667 42 81.334 63 140.001 63c60 0 108.667 -21.667 146 -65c10 22 15 44.667 15 68zM317 94.999
c-25.333 34 -58.667 51 -100 51c-40.667 0 -72 -16.667 -94 -50v-1c33.333 -23.333 65 -35 95 -35c36.667 0 69.667 11.667 99 35z" />
    <glyph glyph-name="na" unicode="&#x1014;" 
d="M426 145c5.33301 -46.667 -9.99902 -85.3311 -45.999 -115.998c-17.333 -14 -44.666 -24.333 -81.999 -31v-325c0 -24 -11.667 -36 -35 -36c-24 0 -36 12 -36 36v316c-35.333 -0.666992 -72 3 -110 11c-46 10 -77.667 25.667 -95 47c-20 26.667 -30 55 -30 85
c0 24 7 47.667 21 71c21.333 31.333 54 47 98 47c37.333 0 72 -11 104 -33c16 -12 31.667 -30.667 47 -56c14.667 -22.667 24 -40.834 28 -54.501s6.66699 -26.834 8 -39.501c42.667 12 62 35.667 58 71c-5.33301 33.333 -23.333 59 -54 77
c-12 7.33301 -25.667 12.5 -41 15.5l-44 8.5c-52.667 12.667 -88.334 35 -107.001 67c-8 12.667 -12 26.667 -12 42c0 25.333 9.33301 47.333 28 66c22.667 22 51.667 33 87 33c38 0 67.667 -10 89 -30c20.667 -18.667 31 -34.334 31 -47.001c0 -20.667 -10.667 -31 -32 -31
c-10 0 -18.667 2.33301 -26 7c-4.66699 4.66699 -11.5 10.834 -20.5 18.501s-22.833 11.5 -41.5 11.5c-15.333 0 -27.333 -4.16699 -36 -12.5s-10.667 -15.5 -6 -21.5c9.33301 -14 30 -25 62 -33c18.667 -4 37.5 -8.33301 56.5 -13s36.167 -11.667 51.5 -21
c49.333 -30.667 77.666 -74 84.999 -130zM227.001 59.0029c-1.33301 8 -3.33203 16.998 -5.99902 26.998c-12 34.667 -28 58.667 -48 72c-23.333 15.333 -45 23 -65 23c-15.333 0 -27 -6 -35 -18c-5.33301 -9.33301 -8 -19.666 -8 -30.999
c0 -13.333 4.66699 -26.666 14 -39.999c19.333 -24 68.666 -35 147.999 -33z" />
    <glyph glyph-name="pa" unicode="&#x1015;" 
d="M451 225c0 -64.667 -22.334 -119.664 -67.001 -164.997c-44 -46 -98.333 -69 -163 -69c-64 0 -118.333 23 -163 69c-44.667 45.333 -67 100.333 -67 165c0 40.667 10.333 80.667 31 120c20.667 40 49 72.333 85 97c6.66699 4.66699 13.334 7 20.001 7
c10 0 18.333 -3.83301 25 -11.5s10 -16.5 10 -26.5c0 -11.333 -5 -21 -15 -29c-56.667 -36.667 -85 -89 -85 -157c0 -44.667 15.333 -83.334 46 -116.001s68.334 -49 113.001 -49c44 0 81.333 16.333 112 49c31.333 33.333 47 72 47 116c0 69.333 -29 121.666 -87 156.999
c-10.667 8 -16 17.667 -16 29c0 9.33301 3.33301 17.666 10 24.999s15 11 25 11c4.66699 0 11 -1.66699 19 -5c18.667 -11.333 35.5 -24.833 50.5 -40.5s27.667 -33 38 -52s18.166 -39 23.499 -60s8 -42.5 8 -64.5z" />
    <glyph glyph-name="pha" unicode="&#x1016;" 
d="M451 226c0 -64 -22.3359 -119.332 -67.0029 -165.999c-44 -46 -98.333 -69 -163 -69c-64 0 -118.333 23 -163 69c-44.667 46.667 -67 102 -67 166c0 39.333 10 79 30 119c20.667 40 49 72.333 85 97c6.66699 4.66699 13.334 7 20.001 7c10 0 18.333 -3.83301 25 -11.5
s10 -16.5 10 -26.5c0 -11.333 -5 -21 -15 -29c-56 -36 -84 -88 -84 -156c0 -45.333 15.333 -84.333 46 -117s68.334 -49 113.001 -49c50.667 0 92 21.333 124 64c-57.333 20.667 -94.666 59.667 -111.999 117c-6 20 -9 39.667 -9 59c0 51.333 21 97.666 63 138.999
c6.66699 6.66699 15 10 25 10s18.667 -3.66699 26 -11c75.333 -51.333 113 -122 113 -212zM379.997 226.001c0 55.333 -20.999 101.667 -62.999 139c-14 -21.333 -21 -44 -21 -68c0 -29.333 8.33301 -53.666 25 -72.999c13.333 -16 31.666 -27.667 54.999 -35
c2.66699 11.333 4 23.666 4 36.999z" />
    <glyph glyph-name="ba" unicode="&#x1017;" 
d="M451 226c0 -64 -22.333 -119.335 -67 -166.002c-44 -46 -98.333 -69 -163 -69c-64 0 -118.333 23 -163 69c-44.667 46.667 -67 102 -67 166c0 40.667 8.66699 80 26 118c19.333 42 47.333 74.667 84 98c20.667 12.667 35 14.334 43 5.00098
c5.33301 -5.33301 9.33301 -19.666 12 -42.999c7.33301 -54 28 -80.333 62 -79c16.667 0 30.834 6.83301 42.501 20.5s17.5 28.834 17.5 45.501c0 2.66699 -0.333008 7.16699 -1 13.5s-1 11.166 -1 14.499c0 21.333 9.33301 32 28 32c9.33301 0 17.666 -2.33301 24.999 -7
c81.333 -47.333 122 -120 122 -218zM380 225.998c0 44.667 -13.334 83.334 -40.001 116.001c-24 -56.667 -63.667 -85.667 -119 -87c-26 -0.666992 -50.667 6.83301 -74 22.5s-40.333 36.167 -51 61.5c-22.667 -32.667 -34 -70.334 -34 -113.001
c0 -45.333 15.333 -84.333 46 -117s68.334 -49 113.001 -49c44 0 81.333 16.333 112 49c31.333 33.333 47 72.333 47 117z" />
    <glyph glyph-name="bha" unicode="&#x1018;" horiz-adv-x="907" 
d="M741 55c-47.333 -45.333 -100.667 -67.9922 -160 -67.9922c-25.333 0 -45.666 3 -60.999 9s-23 16.333 -23 31c0 25.333 11 38 33 38c8 0 16.333 -1.5 25 -4.5s18 -4.5 28 -4.5c40 0 76 16.333 108 49c30.667 30 46 67 46 111c0 45.333 -16 83.666 -48 114.999
c-31.333 32 -68.333 48 -111 48c-43.333 0 -80.333 -16.333 -111 -49c-26 -25.333 -40.667 -58 -44 -98v-16c0 -63.333 -22 -117 -66 -161s-99 -66 -165 -66c-36 0 -71.333 9 -106 27c-15.333 7.33301 -29 15.666 -41 24.999s-22.667 19.333 -32 30l-9 11.5
c-3.33301 4.33301 -7.33301 9.83301 -12 16.5v1c-2.66699 5.33301 -4 10.666 -4 15.999c0 10 4 18.833 12 26.5s17 11.5 27 11.5c13.333 0 23.333 -7.33301 30 -22c0 -0.666992 -1 -1 -3 -1l-2 1v2l1 1l4 -4l11 -12c33.333 -39.333 74.666 -59 123.999 -59
c42 0 78.333 13.667 109 41c30 28 47 62 51 102c-1.33301 8.66699 -1.33301 17.667 0 27c-4 39.333 -21.667 73.666 -53 102.999c-30.667 28.667 -66.334 43 -107.001 43c-57.333 0 -98 -17 -122 -51c-2.66699 -2 -5.66699 -5.66699 -9 -11
c-3.33301 -19.333 -14.666 -29 -33.999 -29c-24.667 0 -37 11.667 -37 35c0 9.33301 6.66699 24.666 20 45.999c40 54 100.667 81 182 81c82.667 0 147 -35.667 193 -107c5.33301 7.33301 10.666 14.166 15.999 20.499l16 19.5c46.667 46 100.334 69 161.001 69
c61.333 0 115 -23 161 -69c44.667 -44.667 67 -99.334 67 -164.001c0 -62.667 -21.667 -116.334 -65 -161.001z" />
    <glyph glyph-name="ma" unicode="&#x1019;" 
d="M451 226c0 -64 -22.332 -119.333 -66.999 -166c-44 -46 -98.333 -69 -163 -69c-72 0 -131.333 28.333 -178 85c-6.66699 4.66699 -11 11.334 -13 20.001c-26 36 -39 79.333 -39 130c0 40 10.333 79.667 31 119c10.667 20 23.167 38 37.5 54s30.166 30.333 47.499 43
c6.66699 4.66699 13.334 7 20.001 7c10 0 18.333 -3.83301 25 -11.5s10 -16.5 10 -26.5c0 -11.333 -5 -21 -15 -29c-26.667 -17.333 -47.5 -40.5 -62.5 -69.5s-22.5 -57.833 -22.5 -86.5c0 -16 2.66699 -33 8 -51c39.333 45.333 89.666 68 150.999 68
c60.667 0 110.667 -23 150 -69c6 16.667 9 34 9 52c0 68.667 -29 120.667 -87 156c-10.667 8 -16 17.667 -16 29c0 9.33301 3.33301 17.666 10 24.999s15 11 25 11c4.66699 0 11 -1.66699 19 -5c38 -22 67.5 -52.5 88.5 -91.5s31.5 -80.5 31.5 -124.5zM332.001 109
c-29.333 41.333 -66.334 62 -111.001 62c-46 0 -83.667 -20.667 -113 -62c30.667 -32.667 68.334 -49 113.001 -49c42 0 79 16.333 111 49z" />
    <glyph glyph-name="ya" unicode="&#x101a;" horiz-adv-x="939" 
d="M608 -11c-61.333 0 -115.333 22.999 -162 68.999c-11.333 12.667 -22 26.334 -32 41.001c-45.333 -72 -109.666 -108 -192.999 -108c-64 0 -118.333 23 -163 69c-44.667 46.667 -67 102 -67 166c0 40 10.333 79.667 31 119c10.667 20 23.167 38 37.5 54
s30.166 30.333 47.499 43c6.66699 4.66699 13.334 7 20.001 7c10 0 18.333 -3.83301 25 -11.5s10 -16.5 10 -26.5c0 -11.333 -5 -21 -15 -29c-26.667 -17.333 -47.5 -40.5 -62.5 -69.5s-22.5 -57.833 -22.5 -86.5c0 -44.667 15.667 -83.667 47 -117
c30.667 -32.667 68 -49 112 -49c42 0 78.333 15.333 109 46c30 30 46.667 66.667 50 110c-1.33301 8 -1.33301 15 0 21c-4 66.667 -29.333 115 -76 145c-11.333 8 -17 17.667 -17 29c0 9.33301 3.33301 17.666 10 24.999s15 11 25 11c4.66699 0 11 -1.66699 19 -5
c73.333 -45.333 110 -117.333 110 -216v-14c4 -45.333 19 -80.333 45 -105c30.667 -32 68.667 -48 114 -48c43.333 0 80.333 15.333 111 46s46 69 46 115c0 44 -16 82 -48 114c-31.333 32 -67.333 48 -108 48c-15.333 0 -26 -1.33301 -32 -4s-12 -4 -18 -4
c-23.333 0 -35 12.333 -35 37c0 16.667 8.66699 28 26 34c2.66699 0.666992 6.66699 1.5 12 2.5s12.666 2.16699 21.999 3.5c3.33301 0.666992 7 1.16699 11 1.5s8.33301 0.5 13 0.5c58.667 0 112.334 -23.667 161.001 -71c44 -44 66 -98.333 66 -163
c0 -63.333 -22.667 -117.666 -68 -162.999c-44.667 -44.667 -98.334 -67 -161.001 -67z" />
    <glyph glyph-name="ra" unicode="&#x101b;" horiz-adv-x="557" 
d="M427 -358c-23.333 0 -35 12 -35 36v522c0 58.667 -15.333 103 -46 133c-30.667 30.667 -67.334 46 -110.001 46c-36 0 -68.333 -11.333 -97 -34c-29.333 -23.333 -48.333 -52.666 -57 -87.999c63.333 1.33301 111 -16 143 -52c36 -40 54 -85 54 -135
c0 -10 -0.666992 -19.833 -2 -29.5s-3.83301 -18.334 -7.5 -26.001s-8.33398 -13.834 -14.001 -18.501s-12.5 -7 -20.5 -7c-39.333 0 -68.666 4.33301 -87.999 13s-43.666 27.667 -72.999 57c-40.667 41.333 -62.334 90 -65.001 146
c-3.33301 8.66699 -3.66602 16.667 -0.999023 24c2.66699 58 24.667 108.667 66 152c46.667 45.333 100.334 68 161.001 68c61.333 0 114.666 -22.667 159.999 -68s68 -105.666 68 -180.999v-487h52c24.667 0 37 -12 37 -36c0 -23.333 -12.333 -35 -37 -35h-88zM207 61
c2.66699 34 -9.33105 66.333 -35.998 97c-18.667 21.333 -48.334 30.666 -89.001 27.999c6.66699 -34.667 28 -67 64 -97c17.333 -15.333 37.666 -24.666 60.999 -27.999z" />
    <glyph glyph-name="la" unicode="&#x101c;" horiz-adv-x="932" 
d="M766 381c43.333 -44.667 64.999 -98.335 64.999 -161.002c0 -64.667 -22.333 -119.334 -67 -164.001s-98 -67 -160 -67c-38 0 -74 9.5 -108 28.5s-61.333 44.833 -82 77.5c-16.667 26 -28 57 -34 93c-2.66699 4.66699 -4 10.334 -4 17.001c1.33301 53.333 -14 96 -46 128
s-69.333 48 -112 48c-42 0 -78.667 -15.667 -110 -47c-30.667 -30.667 -46 -68.667 -46 -114c0 -44 15 -81 45 -111c32 -32.667 67.333 -49 106 -49c16.667 0 28.167 1.66699 34.5 5s12.5 5 18.5 5c22.667 0 34 -12.333 34 -37c0 -15.333 -8.5 -26.166 -25.5 -32.499
s-36.833 -9.5 -59.5 -9.5c-58 0 -110.667 22.667 -158 68c-43.333 43.333 -65 97 -65 161s22.333 118.333 67 163c45.333 45.333 98.333 68 159 68s114.667 -23 162 -69c30.667 -31.333 51.334 -73.333 62.001 -126c4 -7.33301 5.66699 -14.333 5 -21
c-3.33301 -51.333 12 -94 46 -128c32.667 -31.333 69.667 -47 111 -47c43.333 0 80.333 15.333 111 46c31.333 31.333 47 69.333 47 114c0 44 -15.667 81.667 -47 113s-67.666 47 -108.999 47c-15.333 0 -25.833 -1.66699 -31.5 -5s-11.5 -5 -17.5 -5
c-22.667 0 -34 12.667 -34 38c0 14.667 8.16699 25.334 24.5 32.001s35.166 10 56.499 10c60.667 0 114.667 -23 162 -69z" />
    <glyph glyph-name="wa" unicode="&#x101d;" 
d="M448 220c0.666992 -62.667 -21.667 -116.668 -67 -162.001c-44.667 -44.667 -99 -67 -163 -67c-62 0 -115.333 22.333 -160 67s-67 98.667 -67 162c0 64 21.667 117.667 65 161c44 44 98 66 162 66c63.333 0 117.333 -22.333 162 -67
c44 -43.333 66.667 -96.666 68 -159.999zM377.999 219.999c0 42 -15.666 78.666 -46.999 109.999c-30.667 30.667 -68.334 46 -113.001 46c-44 0 -81 -15 -111 -45s-45 -67 -45 -111s15.333 -81.667 46 -113c31.333 -31.333 68 -47 110 -47c44 0 81.667 15.667 113 47
c31.333 32.667 47 70.334 47 113.001z" />
    <glyph glyph-name="sa" unicode="&#x101e;" horiz-adv-x="910" 
d="M742 382c43.333 -44.667 64.9971 -98.6689 64.9971 -162.002c0 -64 -22.667 -118.667 -68 -164c-44.667 -44.667 -98 -67 -160 -67c-61.333 0 -115.333 23 -162 69c-5.33301 5.33301 -10.5 11.5 -15.5 18.5s-9.83301 14.167 -14.5 21.5c-24 -32 -52.333 -57.667 -85 -77
c-37.333 -21.333 -73.666 -32 -108.999 -32c-80 0 -140.333 28.333 -181 85c-14.667 20.667 -22 35.334 -22 44.001c0 22.667 12.333 34 37 34c20 0 31.333 -9.33301 34 -28c2 -1.33301 5.33301 -4.33301 10 -9c26.667 -36.667 67.334 -55 122.001 -55
c42.667 0 79.667 16 111 48c32 32 48 69.667 48 113s-15.333 80 -46 110c-31.333 30 -69 45 -113 45c-23.333 0 -49.666 -7.33301 -78.999 -22c-29.333 -14 -48.333 -30.333 -57 -49c-7.33301 -14 -17 -21 -29 -21c-10 0 -19.167 3.66699 -27.5 11s-12.5 16 -12.5 26
c0 6.66699 2.33301 13.334 7 20.001h1c0.666992 0.666992 1 0.333984 1 -0.999023l-1 1l1 -1l-2 -3h-3c0.666992 0.666992 2.33398 3 5.00098 7l17 22c46 54 105.667 81 179 81c66 0 120.333 -20.333 163 -61c43.333 -41.333 64.666 -92 63.999 -152
c0 -52 15.667 -94.333 47 -127c30.667 -32 68 -48 112 -48c43.333 0 80.333 15.333 111 46c31.333 31.333 47 69.666 47 114.999c0 44.667 -15.667 82.667 -47 114s-67 47 -107 47c-15.333 0 -27.333 -1.66699 -36 -5c-5.33301 -2 -11 -3 -17 -3
c-22.667 0 -34 12.333 -34 37c0 16.667 8.66699 28 26 34c14 4.66699 33.667 7 59 7c60 0 113.667 -23 161 -69z" />
    <glyph glyph-name="ha" unicode="&#x101f;" horiz-adv-x="936" 
d="M769 59c-46.667 -46.667 -100.327 -70.002 -160.994 -70.002c-6.66699 0 -13.334 0.333008 -20.001 1s-13.334 1.66699 -20.001 3c-27.333 5.33301 -41 18 -41 38c0 23.333 11.667 35 35 35c5.33301 0 10.166 -0.5 14.499 -1.5s10.5 -2.5 18.5 -4.5
c3.33301 -0.666992 8.66602 -1 15.999 -1c39.333 0 75.666 16.667 108.999 50c30.667 30 46 67 46 111c0 45.333 -16 83.666 -48 114.999c-31.333 31.333 -68.333 47 -111 47c-48.667 0 -88.667 -18.667 -120 -56c-21.333 -24 -33.333 -54 -36 -90v-16
c0 -30 -6.33301 -60.167 -19 -90.5s-29 -55.166 -49 -74.499c-47.333 -42.667 -103 -64 -167 -64c-61.333 0 -114.333 20.333 -159 61c-44 40.667 -66 96.667 -66 168c0 86 27 158.667 81 218c7.33301 7.33301 16 11 26 11c9.33301 0 17.833 -3.5 25.5 -10.5
s11.5 -15.5 11.5 -25.5c0 -9.33301 -3.66699 -17.666 -11 -24.999c-41.333 -43.333 -62 -99.333 -62 -168c0 -50 15 -89.333 45 -118c30.667 -28 67 -42 109 -42c44 0 83.667 15.667 119 47c25.333 23.333 40.333 57 45 101c-1.33301 8 -1.33301 17 0 27
c-5.33301 59.333 -27.666 110.333 -66.999 153c-6 6.66699 -9 15 -9 25c0 8.66699 3.66699 16.834 11 24.501s15.666 11.5 24.999 11.5c8.66699 0 17.334 -3.66699 26.001 -11c10.667 -12.667 20.667 -26 30 -40s17.666 -28.667 24.999 -44c46 66.667 108 100 186 100
c61.333 0 114.666 -23 159.999 -69c45.333 -45.333 68 -100.333 68 -165c0 -63.333 -22 -117 -66 -161z" />
    <glyph glyph-name="lla" unicode="&#x1020;" 
d="M448 -22c0 -12.667 -5 -22.334 -15 -29.001l-28 -21c-55.333 -39.333 -117 -58 -185 -56c-53.333 0.666992 -97.666 11.667 -132.999 33v-113c0 -32.667 5.66699 -54.667 17 -66s33.333 -17 66 -17h192c15.333 0 20.333 10.667 15 32
c-0.666992 2.66699 -3.33398 2.66699 -8.00098 0l-2 -1c-12.667 -6.66699 -21.667 -10 -27 -10c-21.333 0 -32 11.667 -32 35c0 14.667 6.5 25.834 19.5 33.501s26.833 11.5 41.5 11.5c44.667 0 70.667 -18.667 78 -56c0.666992 -3.33301 1.16699 -7 1.5 -11
s0.5 -7.66699 0.5 -11c0 -26.667 -8.16699 -49.167 -24.5 -67.5s-37.166 -27.5 -62.499 -27.5h-192c-54 0 -93.167 12.833 -117.5 38.5s-36.5 64.5 -36.5 116.5v186c0 26.667 10 40 30 40c9.33301 0 19.333 -4.66699 30 -14c41.333 -40 89.666 -60.667 144.999 -62
s102.333 13 141 43l15 11v49c-41.333 -37.333 -93.333 -56 -156 -56s-116.667 22.667 -162 68c-45.333 46.667 -68 101 -68 163c0 63.333 22 117 66 161s98.667 66 164 66c34.667 0 70 -8.66699 106 -26c30 -16 54.333 -34.333 73 -55l11 -13l6 -9l1 -2l3 -3
c0 -1.33301 -1 -2 -3 -2c3.33301 -5.33301 5 -10.666 5 -15.999c0 -10 -3.83301 -18.667 -11.5 -26s-16.5 -11 -26.5 -11c-14 0 -24.333 7 -31 21c-1.33301 0.666992 -1.33301 1.66699 0 3l-9 11c-32 38 -73.333 57 -124 57c-45.333 0 -83.333 -15.333 -114 -46
c-30 -30 -45 -66.667 -45 -110c0 -42.667 15.667 -80.334 47 -113.001c32.667 -31.333 70 -47 112 -47c56 0 96.333 17.333 121 52c6.66699 8 17 12.667 31 14h39c24 0 36 -11.667 36 -35v-113v0z" />
    <glyph glyph-name="a.let" unicode="&#x1021;" horiz-adv-x="850" 
d="M712 355c26 -39.333 39 -82.335 39 -129.002c0 -82.667 -32.667 -146.667 -98 -192c-42.667 -28.667 -88.334 -43 -137.001 -43c-23.333 0 -49.333 5 -78 15l-6 2c-2 0.666992 -4.33301 1.66699 -7 3c-18 10.667 -22 26.334 -12 47.001c8 68 45.333 117.333 112 148
c18.667 9.33301 39.334 14 62.001 14c28.667 0 58.667 -7 90 -21c0.666992 4.66699 1.16699 9 1.5 13s0.5 8.33301 0.5 13c0 33.333 -9 63 -27 89c-30 44 -71.667 66 -125 66c-55.333 0 -98.333 -19.333 -129 -58c-3.33301 -3.33301 -7 -9.33301 -11 -18
c-1.33301 -37.333 -16 -67 -44 -89c29.333 -26 44 -54.667 44 -86c0 -6.66699 -1 -13.334 -3 -20.001c-16 -77.333 -82.667 -116.666 -200 -117.999c-97.333 -1.33301 -161.333 35.334 -192 110.001c-1.33301 6.66699 -2 11.334 -2 14.001c0 23.333 12.333 35 37 35
c15.333 0 26 -8 32 -24c18 -45.333 59.667 -67.333 125 -66c79.333 1.33301 123 22.333 131 63c2.66699 16 -3.33301 30 -18 42c-12 10 -24.667 16.333 -38 19c-2 -0.666992 -4.66699 -1 -8 -1h-34c-24 0 -36 12 -36 36c0 23.333 12 35 36 35h38
c14.667 2.66699 25.667 6.66699 33 12c16 9.33301 25.333 20.666 28 33.999c-2 4.66699 -2.33301 9.66699 -1 15c-12 40.667 -55.667 61 -131 61c-74 0 -115 -20.333 -123 -61c-5.33301 -19.333 -16.666 -29 -33.999 -29c-12 0 -21.667 3.83301 -29 11.5
s-9.66602 17.834 -6.99902 30.501c15.333 79.333 79.666 119 192.999 119c83.333 0 142 -20.667 176 -62c7.33301 7.33301 17.666 15.666 30.999 24.999c41.333 27.333 86.333 41 135 41c78.667 0 140.667 -32 186 -96zM652 131.998c-24 11.333 -44.667 16.999 -62 16.999
c-12 0 -24 -2.66699 -36 -8c-34 -14.667 -56.667 -40 -68 -76c11.333 -3.33301 21.666 -5 30.999 -5c24.667 0 49.834 6.83301 75.501 20.5s45.5 30.834 59.5 51.501z" />
    <glyph glyph-name="i.let" unicode="&#x1023;" horiz-adv-x="938" 
d="M838 211c0 -98 -36.667 -169.668 -110 -215.001c-8 -3.33301 -14 -5 -18 -5c-10 0 -18.333 3.66699 -25 11s-10 15.333 -10 24c0 12.667 5.33301 22.334 16 29.001c50.667 32 76 84 76 156c0 45.333 -15.333 84.333 -46 117c-30 32.667 -67.667 49 -113 49
c-40 0 -75.333 -14.333 -106 -43c-30 -29.333 -47 -64.333 -51 -105c0.666992 -6.66699 1 -15.834 1 -27.501v-43.5c0 -6.66699 -1.33301 -15.667 -4 -27c-3.33301 -20 -14.666 -30 -33.999 -30c-10.667 0 -20 4 -28 12s-10.667 18.333 -8 31c2 10 3 16.667 3 20v12
c0 6 -0.333008 14 -1 24c-1.33301 4 -2 7.66699 -2 11s0.166992 6.5 0.5 9.5s0.833008 6.16699 1.5 9.5c-4 42.667 -21 79 -51 109s-66 45 -108 45c-43.333 0 -80.666 -16.667 -111.999 -50s-47 -72.333 -47 -117c0 -14 2 -28.333 6 -43s9.66699 -29 17 -43
s16.166 -27 26.499 -39s22.166 -22.333 35.499 -31c10 -7.33301 15 -16.666 15 -27.999c0 -10 -3.33301 -18.667 -10 -26s-15 -11 -25 -11c-5.33301 0 -12 1.66699 -20 5c-36 25.333 -64.333 58 -85 98c-20.667 39.333 -31 78.666 -31 117.999
c0 64.667 22.333 120.334 67 167.001s99 70 163 70c87.333 -1.33301 152.666 -39 195.999 -113c46.667 70.667 110.334 106 191.001 106c65.333 0 120 -23.333 164 -70c44 -46 66 -101.333 66 -166zM854 -325.001c0 -25.333 -11.9971 -38.001 -35.9971 -38.001h-116
c-16 0 -24.667 25.667 -26 77v82c0 23.333 -1.33301 39 -4 47c-18.667 54 -56.334 81.333 -113.001 82c-65.333 1.33301 -101.333 -20.334 -108 -65.001v-8c0 -22.667 -1 -40 -3 -52c-2 -18.667 -13.333 -28 -34 -28c-10.667 0 -20 3.66699 -28 11s-10.667 17.333 -8 30
c1.33301 4 2 7 2 9v15c-1.33301 4 -2 7.66699 -2 11c0 2.66699 0.666992 7.33398 2 14.001c-7.33301 44.667 -44.333 67.667 -111 69c-32 0 -58.333 -7 -79 -21s-31 -33.333 -31 -58c0 -34.667 7.66699 -62.667 23 -84c5.33301 -7.33301 8 -14.666 8 -21.999
c0 -24.667 -12.333 -37 -37 -37c-20.667 0 -37.667 19.667 -51 59c-9.33301 30 -14 58 -14 84c0 44.667 17 80.667 51 108c34.667 26.667 78 40 130 40c65.333 0 114.666 -18.667 147.999 -56c34 34.667 81.333 52 142 52c92.667 -0.666992 153 -45 181 -133
c2.66699 -10 4.16699 -28.5 4.5 -55.5s-0.833984 -62.5 -3.50098 -106.5l77 8c24 2 36 -9.33301 36 -34z" />
    <glyph glyph-name="ii.let" unicode="&#x1024;" horiz-adv-x="1112" 
d="M1012 -327c0 -24 -11.668 -36.001 -35.001 -36.001c-24 0 -36 12 -36 36v664c0 52 -20.333 99.667 -61 143l-60 52l-60 52c-26 22.667 -42.167 43.334 -48.5 62.001s-9.5 37 -9.5 55c0 38 14 72.667 42 104c27.333 27.333 63.333 41 108 41c72 0 121.667 -28.667 149 -86
c2.66699 -4.66699 4 -10 4 -16c0 -10 -3.83301 -18.333 -11.5 -25s-16.5 -10 -26.5 -10c-14 0 -24.333 7 -31 21c-15.333 31.333 -42.666 47 -81.999 47c-24 0 -43.5 -7.66699 -58.5 -23s-22.5 -33.333 -22.5 -54c0 -32 18 -64.333 54 -97l61 -57.5l61 -56.5
c42 -48 63 -98.667 63 -152v-664zM836.999 -249.001c0 -32 -5.66895 -57.333 -17.002 -76c-17.333 -25.333 -45.333 -38 -84 -38h-646c-23.333 0 -44.333 12.333 -63 37s-28 52.334 -28 83.001c0 4.66699 0.166992 9.16699 0.5 13.5s0.833008 8.5 1.5 12.5
c18 82 91.333 123 220 123c114 0 224 -15.667 330 -47c17.333 -5.33301 26 -16 26 -32c0 -24 -11.667 -36 -35 -36c-5.33301 0 -9 0.333008 -11 1c-97.333 28 -200.666 42 -309.999 42c-90 0 -140 -21.667 -150 -65c-2.66699 -14.667 -2.66699 -28 0 -40
c4 -13.333 10.333 -20 19 -20h646c12.667 0 20.834 2.66699 24.501 8s5.5 16.666 5.5 33.999v477c0 44 -15.333 81 -46 111c-30 30.667 -66.667 46 -110 46c-45.333 0 -83.333 -16.333 -114 -49c-26 -25.333 -41 -60.333 -45 -105v-14c0 -98.667 -36.667 -170.667 -110 -216
c-6 -2.66699 -12.333 -4 -19 -4c-10 0 -18.333 3.66699 -25 11s-10 15.666 -10 24.999c0 11.333 5.66699 20.666 17 27.999c46.667 30 72 78.333 76 145c-0.666992 6.66699 -0.666992 14 0 22c-3.33301 42.667 -20 79 -50 109c-31.333 31.333 -67.666 47 -108.999 47
c-43.333 0 -80.666 -16.667 -111.999 -50s-47 -72.333 -47 -117c0 -14 2 -28.333 6 -43s9.66699 -29 17 -43s16.166 -27 26.499 -39s22.166 -22.333 35.499 -31c10 -7.33301 15 -16.666 15 -27.999c0 -10 -3.33301 -18.667 -10 -26s-15 -11 -25 -11
c-5.33301 0 -12 1.66699 -20 5c-36 25.333 -64.333 58 -85 98c-20.667 39.333 -31 78.666 -31 117.999c0 64.667 22.333 120.334 67 167.001s99 70 163 70c84 0 148.333 -36.333 193 -109c10 14.667 20.667 28.334 32 41.001c46.667 46 100.667 69 162 69
c62 0 115.667 -22.667 161 -68s68 -98.333 68 -159v-477z" />
    <glyph glyph-name="u.let" unicode="&#x1025;" 
d="M422 221c0 -62 -22.6631 -116.333 -67.9961 -163c-45.333 -46 -99.333 -69 -162 -69c-47.333 0 -90.666 12.667 -129.999 38v-235c0 -32.667 5.66699 -54.667 17 -66s33 -17 65 -17h192c12.667 0 17.334 12.667 14.001 38s9 38 37 38c20 0 31.333 -10.333 34 -31
c0.666992 -3.33301 1 -7 1 -11v-11c0 -30 -8 -53.333 -24 -70s-36.667 -25 -62 -25h-192c-52.667 0 -91.334 12.833 -116.001 38.5s-37 64.5 -37 116.5v287c0 10.667 6.83301 19.834 20.5 27.501s27.5 11.5 41.5 11.5c8.66699 0 15 -2 19 -6
c26.667 -34.667 66.667 -52 120 -52c42.667 0 79.667 16 111 48c32 32 48 69.667 48 113s-15.333 80 -46 110c-31.333 30 -69 45 -113 45c-50.667 0 -91.334 -19 -122.001 -57l-13 -15c-2.66699 -2.66699 -4.33398 -3.66699 -5.00098 -3
c0 1.33301 0.666992 2.66602 2 3.99902s2 1 2 -1c1.33301 -4.66699 -2.33398 -9.33398 -11.001 -14.001s-15.334 -7 -20.001 -7c-10 0 -18.667 3.5 -26 10.5s-11 14.833 -11 23.5c0 8 2.66699 15.667 8 23v-1c0 0.666992 0.333008 0.666992 1 0h-1h-1l-1 1l1 1
c1.33301 2.66699 3.66602 6 6.99902 10l12 15c46.667 54 106 81 178 81c66 0 120.667 -22 164 -66c44 -43.333 66 -96.666 66 -159.999z" />
    <glyph glyph-name="uu.let" unicode="&#x1026;" 
d="M422 221c0 -62 -22.6631 -116.333 -67.9961 -163c-45.333 -46 -99.333 -69 -162 -69c-47.333 0 -90.666 12.667 -129.999 38v-235c0 -32.667 5.66699 -54.667 17 -66s33 -17 65 -17h192c12.667 0 17.334 12.667 14.001 38s9 38 37 38c20 0 31.333 -10.333 34 -31
c0.666992 -3.33301 1 -7 1 -11v-11c0 -30 -8 -53.333 -24 -70s-36.667 -25 -62 -25h-192c-52.667 0 -91.334 12.833 -116.001 38.5s-37 64.5 -37 116.5v287c0 10.667 6.83301 19.834 20.5 27.501s27.5 11.5 41.5 11.5c8.66699 0 15 -2 19 -6
c26.667 -34.667 66.667 -52 120 -52c42.667 0 79.667 16 111 48c32 32 48 69.667 48 113s-15.333 80 -46 110c-31.333 30 -69 45 -113 45c-50.667 0 -91.334 -19 -122.001 -57l-13 -15c-2.66699 -2.66699 -4.33398 -3.66699 -5.00098 -3
c0 1.33301 0.666992 2.66602 2 3.99902s2 1 2 -1c1.33301 -4.66699 -2.33398 -9.33398 -11.001 -14.001s-15.334 -7 -20.001 -7c-10 0 -18.667 3.5 -26 10.5s-11 14.833 -11 23.5c0 8 2.66699 15.667 8 23v-1c0 0.666992 0.333008 0.666992 1 0h-1h-1l-1 1l1 1
c1.33301 2.66699 3.66602 6 6.99902 10l12 15c46.667 54 106 81 178 81c66 0 120.667 -22 164 -66c44 -43.333 66 -96.666 66 -159.999zM381.004 661c0 -49.333 -17.666 -92.333 -52.999 -129c-34.667 -34.667 -78.334 -52.667 -131.001 -54c-50 -1.33301 -93 16 -129 52
c-2.66699 2 -4.83398 4.16699 -6.50098 6.5s-3.16699 4.83301 -4.5 7.5c-28.667 33.333 -43 72.333 -43 117c0 52.667 17.333 96.667 52 132c34.667 36.667 78.334 55 131.001 55c50.667 0 94 -18.667 130 -56s54 -81 54 -131zM309.005 661c0 30.667 -11 57.666 -33 80.999
c-22 22.667 -48.333 34 -79 34c-16 0 -30.667 -3 -44 -9s-25 -14.167 -35 -24.5s-17.833 -22.5 -23.5 -36.5s-8.5 -29 -8.5 -45c0 -12 2 -24 6 -36c26 26 59 39.667 99 41c40 0.666992 77 -14.666 111 -45.999c4.66699 12 7 25.667 7 41zM256.005 564.999
c-18.667 20.667 -39.667 31 -63 31c-24 0 -43.333 -10 -58 -30c18.667 -12.667 39 -19 61 -19c20.667 0 40.667 6 60 18z" />
    <glyph glyph-name="e.let" unicode="&#x1027;" horiz-adv-x="531" 
d="M432 299c0 -16 -6.66504 -27 -19.998 -33c-30 -28 -63 -45 -99 -51c37.333 -7.33301 73 -27.333 107 -60c4.66699 -4 7 -11.667 7 -23c0 -13.333 -5.33301 -28.333 -16 -45l-10 -12.5c-3.33301 -4.33301 -7.33301 -8.83301 -12 -13.5
c-46.667 -48.667 -105.667 -72 -177 -70c-28 1.33301 -55.333 6.66602 -82 15.999c-16 1.33301 -26.667 7 -32 17c-17.333 8.66699 -32.833 20 -46.5 34s-25.167 29.5 -34.5 46.5s-16.333 35.5 -21 55.5s-6.33398 40.333 -5.00098 61c4 88 42.333 153 115 195
c4.66699 4.66699 8.66699 7.33398 12 8.00098c30 16.667 65.333 24.334 106 23.001c64.667 -1.33301 115.667 -22 153 -62l18 -21l26 -30c3.33301 -4.66699 4.66602 -7.33398 3.99902 -8.00098c1.33301 -1.33301 2.83301 -5.33301 4.5 -12s2.5 -11.667 2.5 -15zM347.002 310
c-21.333 26 -38.332 42.667 -50.999 50c-19.333 11.333 -43.333 17 -72 17c-18 0 -36 -2.66699 -54 -8c10.667 -39.333 34.667 -65.333 72 -78c13.333 -4.66699 26.666 -7 39.999 -7c24.667 0 47.667 7.33301 69 22zM255.003 215c-12 0.666992 -24 3.66699 -36 9
c-56 20 -93 55 -111 105c-28 -29.333 -43.667 -66 -47 -110c-2.66699 -44.667 13 -83 47 -115c26.667 62.667 75.667 99.667 147 111zM349.003 123c-20.667 14.667 -43 22 -67 22c-10.667 0 -22.667 -1.66699 -36 -5c-37.333 -11.333 -62.333 -36 -75 -74c14 -4 28 -6 42 -6
c50.667 -0.666992 91.667 15.666 123 48.999c4 2.66699 8.33301 7.33398 13 14.001z" />
    </font>
</defs>
</svg>
